<?xml version="1.0" encoding="utf-8"?>
<!-- Generator: Adobe Illustrator 22.1.0, SVG Export Plug-In . SVG Version: 6.00 Build 0)  -->
<svg version="1.1" xmlns="http://www.w3.org/2000/svg" xmlns:xlink="http://www.w3.org/1999/xlink" x="0px" y="0px"
	 viewBox="0 0 2245.2 636" style="enable-background:new 0 0 2245.2 636;" xml:space="preserve">
<style type="text/css">
	.st0{fill:none;stroke:#40A357;stroke-width:10;stroke-miterlimit:10;}
	.st1{fill:#40A357;}
	.st2{fill:#98D86F;}
	.st3{fill:#FFA992;stroke:#F77661;stroke-miterlimit:10;}
	.st4{fill:#FFA992;}
	.st5{fill:#FFFFFF;stroke:#000000;stroke-miterlimit:10;}
	.st6{fill:#D61628;stroke:#000000;stroke-width:0.5;stroke-miterlimit:10;}
	.st7{fill:#FFB3DF;}
	.st8{fill:#5F6EAA;}
	.st9{fill:none;stroke:#000000;stroke-width:0.5;stroke-miterlimit:10;}
	.st10{fill:#FFFFFF;}
	.st11{fill:#FDF475;stroke:#000000;stroke-width:2;stroke-miterlimit:10;}
	.st12{fill:#113B8E;stroke:#000000;stroke-width:2;stroke-miterlimit:10;}
	.st13{fill:#EFED79;stroke:#000000;stroke-width:2;stroke-miterlimit:10;}
	.st14{fill:#DA8F42;stroke:#000000;stroke-miterlimit:10;}
	.st15{fill:#F64C43;}
	.st16{fill:#F64C43;stroke:#000000;stroke-miterlimit:10;}
	.st17{fill:#EDEDED;stroke:#000000;stroke-width:2;stroke-miterlimit:10;}
	.st18{fill:#55BAC5;stroke:#000000;stroke-miterlimit:10;}
	.st19{stroke:#000000;stroke-miterlimit:10;}
	.st20{fill:#0F0F0F;stroke:#000000;stroke-miterlimit:10;}
	.st21{fill:#FDF475;}
	.st22{fill:#C37427;stroke:#000000;stroke-miterlimit:10;}
	.st23{fill:#8A3729;stroke:#000000;stroke-miterlimit:10;}
	.st24{fill:#F69693;stroke:#000000;stroke-width:2;stroke-miterlimit:10;}
	.st25{fill:#0F0F0F;stroke:#000000;stroke-width:2;stroke-miterlimit:10;}
	.st26{fill:#FFFFFF;stroke:#000000;stroke-width:2;stroke-miterlimit:10;}
	.st27{fill:#D6D11D;stroke:#262626;stroke-width:0.25;stroke-miterlimit:10;}
	.st28{fill:#0C0C0C;}
	.st29{fill:#B77132;stroke:#000000;stroke-miterlimit:10;}
	.st30{fill:#EFEFEF;}
	.st31{fill:#FDF475;stroke:#212121;stroke-width:2;stroke-miterlimit:10;}
	.st32{fill:#113B8E;}
	.st33{stroke:#000000;stroke-width:2;stroke-miterlimit:10;}
</style>
<g id="Layer_1">
	<rect x="0" y="1.1" class="st0" width="2245.2" height="636"/>
	<g>
		<g>
			<path class="st1" d="M1123.8,305.2c2.5,0,4.7,0.3,6.9,0.5V1h-13.4v305C1119.5,305.4,1121.4,305.2,1123.8,305.2z"/>
			<path class="st1" d="M1123.8,331.5c-2.5,0-4.7-0.3-6.9-0.5v305h13.4V330.7C1128.5,331,1126.3,331.5,1123.8,331.5z"/>
		</g>
		<path class="st1" d="M1123.8,283c-19.2,0-34.8,15.6-34.8,34.8c0,19.2,15.6,34.8,34.8,34.8c19.2,0,34.8-15.6,34.8-34.8
			C1158.7,298.6,1143,283,1123.8,283z M1123.8,329.3c-6.3,0-11.5-5.2-11.5-11.5s5.2-11.5,11.5-11.5c6.3,0,11.5,5.2,11.5,11.5
			C1135.4,324.1,1130.2,329.3,1123.8,329.3z"/>
	</g>
	<path class="st2" d="M1670.3,395c0,0,85.8,104.1,198.4,4.5c0,0,11,44.7-27.6,75.2l0.8,28.1c0,0-40.2,25.2-68.3,0l-0.8-11.4
		c0,0-15.9,6.9-35.8-4.5v11.4c0,0-22.8,19.9-61-15l4.9-22C1681.3,461.3,1668.7,443,1670.3,395z"/>
	<g>
		<path class="st3" d="M1713.8,318.1c0,0-30.9,58.1-40.7,57.3c0,0-44.7-64.6-48-83.7c0,0-27.2-56.9,22-28.1
			C1647.1,263.7,1687.8,292.1,1713.8,318.1z"/>
		<path class="st4" d="M1722.7,327.5c0,0-30.9,58.1-40.7,57.3c0,0-44.7-64.6-48-83.7c0,0-27.2-56.9,22-28.1
			C1655.6,273,1696.3,301.5,1722.7,327.5z"/>

			<animateTransform  accumulate="none" additive="replace" attributeName="transform" attributeType="XML" begin=".1" calcMode="linear" dur="1.1s" fill="remove" id="lines" repeatCount="indefinite" restart="always" type="translate" values="0,6;0,-6;0,6">
			</animateTransform>
	</g>
	<path class="st3" d="M1832.5,301.1c0,0-23.6-87.8-9.8-119.5c0,0,32.1-87.8-21.1-37.4c0,0-33.7,39.8-37.8,54.1c0,0-5.7,10.6-37,87.4
		c0,0-37.4,80.5-54.9,87.4c0,0-5.3,10.6,0,24.4c0,0,72.4,98.8,196.4,6.9C1868.3,403.9,1878.8,393.8,1832.5,301.1z"/>

		<ellipse transform="matrix(0.2597 -0.9657 0.9657 0.2597 1051.228 1874.015)" class="st5" cx="1747.9" cy="251.4" rx="26" ry="20.3"/>

		<ellipse transform="matrix(0.2597 -0.9657 0.9657 0.2597 1074.4636 1904.2816)" class="st5" cx="1779.3" cy="251.3" rx="26" ry="20.3"/>
	<path class="st6" d="M1734.5,292.5c0,0,15.9,17.5,72.4-7.7c0,0,2.4,25.2-22.4,45.1c0,0-35,24-56.5,0
		C1728.4,329.5,1756.5,305.5,1734.5,292.5z"/>
	<path class="st4" d="M1786.1,510c0,0,15.9,8.9,49.6-4.1c0,0-6.5,41.1-20.3,40.2C1815.4,546.2,1799.2,551.9,1786.1,510z"/>
	<path class="st4" d="M1686.1,491.3c0,0,1.6,30.5,24.4,37c0,0,13,6.5,15-25.2C1725.6,503.1,1709.7,506.4,1686.1,491.3z"/>
	<path class="st7" d="M1789.4,323.8c-2,4.1-35.4,26.4-56.5,8.1c0,0,35.4-27.2,27.2-6.9C1760.1,325.5,1783.3,303.9,1789.4,323.8z"/>
	<g>
		<path class="st3" d="M1847.5,381.2l82.5-114.2c0,0,6.5-30.5-20.3-17.5c0,0-61,34.1-96.8,69.9L1847.5,381.2z"/>
		<path class="st4" d="M1841.8,387.7l82.5-114.2c0,0,6.5-30.5-20.3-17.5c0,0-61,34.1-96.8,69.9L1841.8,387.7z"/>

			<animateTransform  accumulate="none" additive="replace" attributeName="transform" attributeType="XML" begin=".1" calcMode="linear" dur="1.1s" fill="remove" id="lines" repeatCount="indefinite" restart="always" type="translate" values="0,6;0,-6;0,6">
			</animateTransform>
	</g>
	<ellipse transform="matrix(0.1187 -0.9929 0.9929 0.1187 1292.8298 1959.9147)" cx="1750.5" cy="251.7" rx="6.9" ry="4.5"/>
	<ellipse transform="matrix(0.1187 -0.9929 0.9929 0.1187 1312.9772 1984.8241)" cx="1774.6" cy="252.8" rx="6.9" ry="4.5"/>
	<path class="st8" d="M1685.7,416.9c0,0-15.4,19.1,15,15.4c0,0,8.5,0.4,0,7.7c0,0-15,13,3.7,18.7c0,0,6.1,4.1,22.8,5.3
		c0,0,11.4,0.4,5.3-13.8c0,0-0.4-11.4,9.8,6.9c0,0-1.6,20.7,5.7,9.4c0,0,16.3-20.3,12.2-23.2c0,0-39.4-0.8-72.8-29.3"/>
	<path class="st8" d="M1819.9,484.4c0,0,20.3,8.9,9.4-6.1c0,0-15-7.7,0.4-15.4c0,0,9.4-11,19.5-8.1c0,0,8.5,1.6,6.9,5.7
		c0,0-8.9,12.6-13.8,14.6l0.8,27.2c0,0-9.4,6.9-29.7,9.8C1812.6,512.5,1810.9,489.3,1819.9,484.4"/>
	<path d="M1783.3,208.8c0,0-2.8-6.5,3.3-3.3l11,6.5c0,0,7.3,5.3-1.6,2.8c0,0,5.7,7.3-3.7,2.8l-9.8-6.1
		C1782.9,212,1776,208,1783.3,208.8z	">
<animateTransform  accumulate="none" additive="replace" attributeName="transform" attributeType="XML" begin=".1" calcMode="linear" dur="1.2s" fill="remove" id="lines" repeatCount="indefinite" restart="always" type="translate" values="0,1;2,0;0,1">
			</animateTransform>
	</path>
	<path d="M1767,205.9c0,0,2.8-6.1-3.3-3.3l-10.6,6.1c0,0-4.5,3.3,1.6,2.8c0,0-4.5,8.1,3.7,2.8l9.4-5.7
		C1767.4,208.8,1778,202.7,1767,205.9z	">
<animateTransform  accumulate="none" additive="replace" attributeName="transform" attributeType="XML" begin=".1" calcMode="linear" dur="1.2s" fill="remove" id="lines" repeatCount="indefinite" restart="always" type="translate" values="-0,1;-2,0;0,1">
			</animateTransform>
	</path>
	<path class="st9" d="M1724.8,324.7c0.4,1.2-0.4,2,3.7,4.9"/>
	<g id="Layer_19">
		<path class="st10" d="M514.2,519.3c-2.1,0.9-5.8,2.9-3.9,5.1c1.1,1.3,3,1.5,4.5,0.7c2.5-1.4,6.1-4,2.3-5.8
			C516.2,518.9,515.1,518.9,514.2,519.3z"/>
	</g>
	<path class="st5" d="M296.3,472.1"/>
	<g>
	<path class="st11" d="M595.5,310.8l40.3-23.6c0,0-4.5-4.8,1.2-11.9c0,0,2.8-7.9-4-9.6c0,0-5.9-0.2-1.4-7.7
		c4.5-7.5,11.5,2.3,11.5,2.3s-0.3,9.6,3,10.6c0,0,5.9,4.6,6.8-3.1c0,0,4.3-15.1,11.5-12.6c0,0,8.3-0.1,3,7.2c0,0-9.9,6.3-8.3,11.5
		c0,0,0.9,2.9,6.3,0.8c0,0,12-4,11.7,3.5c0,0,1.2,4.4-1.2,5.8c-2.4,1.5-10.4-1.3-12.3,0.6c0,0-5.4,4,1.6,6.3c0,0,13,7.3,9,14
		c0,0-3,3.5-7.7-0.4c0,0-3.5-8.4-9.6-9c0,0-2.8-0.2-9,3.8c0,0-0.9,1.7-7.7-3.1c0,0-40.2,21.3-43.3,26.1L595.5,310.8z"/>
		<animateTransform
		 id="one1"
		 attributeName="transform"
		 dur="0.2s"
		 type="rotate"
		 from="0 595 310"
		 to="20 595 310"
		 begin="0s;four4.end"
			/>
		 <animateTransform
			id="two2"
			attributeName="transform"
			dur="0.2s"
			type="rotate"
			from="20 595 310"
 	 	  to="0 595 310"
			begin="one1.end"
		 />
			<animateTransform
			 id="three3"
			 attributeName="transform"
			 dur="0.2s"
			 type="rotate"
			 from="0 595 310"
			 to="-10 595 310"
			 begin="two2.end"
				/>
		 <animateTransform
			id="four4"
			attributeName="transform"
			dur="0.2s"
			type="rotate"
			from="-10 595 310"
 		  to="0 595 310"
			begin="three3.end"
			 />
		 </g>




	<polygon class="st5" points="413.1,390.2 417.8,435.6 377.1,426.2 371.8,379.6 	"/>
	<polygon class="st5" points="583.3,365.6 583.3,410.9 417.7,435.6 413,386.2 	"/>
	<path class="st12" d="M587.4,337c0,0,21,0,20.3-14.8c0,0-1-22.3-13-22.5c0,0-9.7-2.3-10.7,2.4c0,0-1.5,8.6,0,12.5
		C583.9,314.7,591.9,327.4,587.4,337z"/>
	<path class="st13" d="M415.4,393.7c0,0-3-6-3-8s1.8-10.5,2.2-18.5c0,0-7.7-14.7-8.3-18c0,0,2-18,0-20.7c0,0-13.3-14.7-12-18.7
		c0,0,5.3-11.3-0.1-20c0,0-11.9-12-11.2-18.7c0,0-0.7-20-4.7-23.3c0,0-12-7.3-9.3-20c0,0-0.7-13.3-6.7-17.3c0,0-14.7-12.3-11.8-19.8
		c0,0-5.5-2.2-6.8,11.2c0,0-1.3,6-8.7,6.7c0,0-10,2.7-9.3,13.3c0,0,1.3,4.7-12.7,8c0,0-10.7,11.3,14.7,25.3c0,0,6,13.8,4,19
		c-0.9,2.4,1.4,5.1,3,7.2c1.6,2.1,4.4,4.3,9,5.2c0,0-2,20.7,8,28c0,0,13.3,8.7,5.3,11.3l14,43.3c0,0-4.7,18.7,11.3,15.3
		c0,0,5.7,13.3,21.2,6.2L415.4,393.7z"/>
	<path class="st12" d="M354.3,324.8c0,0,34.3,22.3,30.7,32c0,0-2.3,15.7-47.3,0c0,0-11.3-4-5.3-24
		C332.3,332.8,336.6,319.2,354.3,324.8z"/>
	<polygon class="st14" points="582.7,382.7 582.8,410.6 416.8,435.7 414.6,406.6 	"/>
	<g id="Layer_15">
		<polygon class="st5" points="532.3,370.1 526.9,384.2 514.9,375.2 509.9,387.2 503.9,387.2 495.3,380 479.6,392.2 454.6,379.8
			"/>
		<polygon class="st15" points="515.1,373.4 509.6,386.9 504.1,386.9 490.1,375.9 		"/>
	</g>
	<g id="Layer_14">
		<polygon class="st16" points="504,387.6 509.4,387.6 517.7,403.9 507,415.6 497.7,406.3 		"/>
	</g>
	<path class="st11" d="M417.1,393.7c0,0,16-10.7,36-4.7c0,0,12.6,1.2,17.8-5.1c0,0,1-7,27.3-1.7c1.3,0.3,1.3,0.3,1.3,0.3
		s9,2.1,10.5-2.2c1.5-4.3,3.8-5.6,3.8-5.6s0.7-4.4,23.7,4.1c0,0,10.5,1.5,17-6.5c0,0,5.5-5.5,19.5,0c0,0,12-0.5,12-5.5
		c0,0,4.5-9,0-12c0,0-6-14.5,2-18c0,0,2.5-15.5-2.5-18c0,0-4-7-1.5-16.5c0,0,6.4-8.4,4.6-15.5c-0.6-2.5-8.6-17-2.1-25.5
		c0,0,2.5-11.5-5-23.5c0,0-6.5-14.5,1.5-26c0,0,0.5-10.5-8.5-19.5c0,0-10.5-16.5,2-22c0,0,5-16.5-20.5-9c0,0-6.5,1.5-7.8,4.5
		c0,0-1,4.3-15.7-2.3c0,0-8-2.3-15.3,8c0,0-2.7,5-22,0.3c0,0-14.3-2.7-19.3,2c0,0-5.3,8.5-27.3,2.5c0,0-11-4-22,8.5
		c0,0-7.5,2.5-29.5-5.5c0,0-6-5-24,6.5c0,0-5.5,2.5-15.5,1c0,0-18,0.5,0,19c0,0,11.5,15.5,10.5,23c0,0-3,11,6.5,17.5c0,0,9,5,7,21.5
		c0,0,3,12,8.5,19.5c0,0,7.5,5.5,4,15.5c0,0-3,11.5,7,19c0,0,7,11,3,20.5c0,0-0.5,12.5,6,16.5c0,0,4.5,4,2,19
		C411.8,377.9,411.8,397.7,417.1,393.7z"/>
	<circle onclick="circle_click(evt)" class="st17" cx="512.6" cy="239.4" r="37.3"/>
	<circle class="st17" cx="452.6" cy="247.4" r="37.3"/>
	<circle class="st18" cx="453.4" cy="247.7" r="13"/>
	<circle class="st18" cx="516.4" cy="234.7" r="13"/>
	<circle class="st19" cx="453.4" cy="246.7" r="6"/>
	<circle class="st19" cx="516.4" cy="234.7" r="6"/>
	<polygon class="st20" points="424.4,222.8 428,219.4 419.4,206.7 413.8,211.4 	"/>
	<polygon class="st20" points="461,210.9 467.2,213.1 470.8,197.9 466.1,196.3 	"/>

		<rect x="442" y="195.8" transform="matrix(0.9917 -0.1289 0.1289 0.9917 -22.5318 58.9864)" class="st20" width="5" height="15.5"/>

		<rect x="510.1" y="187" transform="matrix(0.9917 -0.1289 0.1289 0.9917 -20.8285 67.6917)" class="st20" width="5" height="15.5"/>
	<polygon class="st20" points="492.1,208.4 496.3,205.6 489.7,191.7 483.5,195.6 	"/>
	<polygon class="st20" points="524.5,204.5 530.7,206.7 534.3,191.5 529.6,189.9 	"/>
	<g>
		<path class="st11" d="M499.3,285.4c0,0,57.7,0,63.1-32.1c0,0-1-17.7-19.1-7.3c0,0-34.7,27.3-50,30L499.3,285.4z"/>
		<polygon class="st21" points="494.6,274.4 493.4,272.6 490.2,273.1 499.2,289.7 505.5,288 		"/>
	</g>
	<path class="st21" d="M413.8,299.9c0,0-11.1-4.8-9.4-12.2c0,0,9.3-22,29.3-15.3c0,0,18.4,4.8,8.8,18.9L413.8,299.9z"/>
	<path class="st22" d="M416,300.8c0,0-18.5-6.5-5.5-20.8c0,0,9.8-10.5,22.8-6.5c0,0,15.3,4,9.3,17.8c0,0,5.5-5.5,2.8-12.5
		c0,0-6-8.5-17-8.8c0,0-9.5-1-21,8.3C407.3,278.3,394.8,296.6,416,300.8z"/>
	<circle class="st22" cx="414" cy="283.7" r="1.8"/>
	<ellipse class="st22" cx="427.4" cy="279.4" rx="2.6" ry="1.7"/>
	<circle class="st22" cx="422.8" cy="286.6" r="1.9"/>
	<path class="st23" d="M424.8,293.2c0,0,0.9,6.3,4.8,13.6c4,7.4,19.5,34.4,25.2,36.4c5.7,2,20.6,16.7,42.4,12.1
		c0,0,21.3-0.9,23.3-22.4l-6-29.2c0,0-33.6,3.1-35.3,2.8c0,0-31.8-3.8-33.8-6.3c0,0-15.1-5.2-15.7-7.5l-1.6-1.3L424.8,293.2z"/>
	<g>
		<path class="st24" d="M510.2,349.8c0,0-12.8,7.3-22.1,6.1c0,0-21,1.3-33.7-13.7c0,0-0.4-4.8,17.3-2.2c0,0,11.3,3.1,15.5,6.5
			c0,0-12.6-9.1,2.1-7.9C489.3,338.6,506.1,339.6,510.2,349.8z"/>
		<path class="st25" d="M527.7,281.9h-1.2c0,0,6,7.3,18,9.8c0,0-11.3,11-47.7,12.7c0,0-27.3,6.5-67-11.3c0,0-0.6-3.3,4-2.3
			c0,0-7.6-3.3-13.3,4c0,0,1.4-1.3,3.9-1.1c0,0-0.6,9.3,22.9,42.3c0,0,4.9,12,29.9,19.5c0,0,24.6,4.7,37.9-8.5c0,0,8.6-4.9,4.5-24.8
			l-4-17.3h-2.3l4,17.5c0,0,5.4,14-3,23.6c0,0-12.4,12.2-36.5,8.4c0,0-24.1-9-29.7-19.2c0,0-25.8-36.7-22.3-41.9
			c0,0,1.3-1.9,2.7-1.2c0,0,0.5,1.2,1,1.7c0,0,31.7,17.2,67.5,11.8c0,0,30.7,1.2,49.7-13.8l0.8-1.2
			C547.5,290.9,540,291.3,527.7,281.9z"/>
		<polygon class="st26" points="525.3,301.2 527.3,317.2 508.3,321.2 504.9,304.9 		"/>
	</g>
	<polygon class="st26" points="475.6,306.8 496.2,306.1 496.7,320.1 477.8,323.7 	"/>
	<polygon class="st14" points="374.5,398.7 415,407 417.2,435.8 377.6,426.7 	"/>
	<g id="Layer_17">
		<g>
			<g>
				<path class="st5" d="M534.8,442.2l0.6,51.1c0,0,1.5,11.5,12,0v-52.5C547.4,440.8,543.4,442.2,534.8,442.2z"/>
				<polygon class="st27" points="535.7,441.6 535.7,461.7 546.9,461.6 546.9,438.6 				"/>
			</g>
			<path class="st28" d="M535.2,491.2c0,0,5.3,11.2,12,1.2c0,0,11.8,1.5,13.8,8.8c0,0,20-5.7,23.7,8c0,0,6,12-11.7,16.3
				c0,0-7.7,4.7-22.3-7.3c0,0-1,3.3-7.3,2.7c0,0-11.3-1-13.3-5.3v-6.7C530,508.8,521.2,500.5,535.2,491.2z"/>
		</g>
		<path class="st29" d="M557.8,414.7l4.3,15.4c0,0-20.5,24-41.5,4.5V420L557.8,414.7z"/>
		<path class="st29" d="M455.6,430.1c0,0,5.2,12.9,4.7,16.4c0,0-27,22.5-43,3.5c0,0-2-8.5,0-14L455.6,430.1z"/>
		<path class="st30" d="M573.2,505.5c0,0-10.6,4.7-3.2,5C570,510.5,583.3,504.2,573.2,505.5z"/>
	</g>
	<g id="Layer_18">
		<g>
			<g>
				<path class="st5" d="M432.2,457.6v50c0,0,1.5,11.5,12,0l1.4-52.5C445.6,455,440.7,456.4,432.2,457.6z"/>
				<polygon class="st27" points="432.2,457.6 432.2,479 444.5,478.9 445.6,455 				"/>
			</g>
			<path class="st28" d="M432.2,504.7c0,0,5.3,11.2,12,1.2c0,0,11.8,1.5,13.8,8.8c0,0,20-5.7,23.7,8c0,0,6,12-11.7,16.3
				c0,0-7.7,4.7-22.3-7.3c0,0-1,3.3-7.3,2.7c0,0-11.3-1-13.3-5.3v-6.7C427,522.3,418.2,514,432.2,504.7z"/>
		</g>
	</g>
	<path class="st11" d="M339.6,363.8"/>
	<g>
	<path class="st31" d="M362.1,345.3c0,0,4.3,3.8,0,6.4l-66.9-22c0,0-5.7,12.8-27.5,7.3c0,0-5.2-1.4-8.3,6.2c0,0-5.7,8.3-10.9,5
		c0,0-7.1-3.1,0-9.2c0,0,11.1-7.6,11.6-9.2c0,0,5.9-5.5-0.7-5.7c0,0-7.1-0.9-16.8,6.6c0,0-5.5,2.6-7.8-4c0,0-3.6-7.3,6.2-8.8
		c0,0,6.9-1.9,11.1-0.9c0,0,13.7-5,1.2-12.3c0,0-9.7,1.2-13-6.2c0,0-2.8-10.7,12.8-5.7c0,0,14.2,6.6,14.9,9c0,0,10,5.9,9.2-5
		c0,0-4.7-12.8,7.8-12.3c0,0,15.2-2.1,8.8,8.5c0,0-8.8-1.7-8.8,4.5c0,0-1.2,4.5,4,6.4c0,0,13.3,10.7,12.6,16.1L362.1,345.3z"/>
		<animateTransform
		 id="one"
		 attributeName="transform"
		 dur="0.2s"
		 type="rotate"
		 from="0 362 345"
		 to="20 362 345"
		 begin="0s;four.end"
			/>
		 <animateTransform
			id="two"
			attributeName="transform"
			dur="0.2s"
			type="rotate"
			from="20 362 345"
			to="0 362 345"
			begin="one.end"
		 />
			<animateTransform
			 id="three"
			 attributeName="transform"
			 dur="0.2s"
			 type="rotate"
			 from="0 362 345"
			 to="-20 362 345"
			 begin="two.end"
				/>
		 <animateTransform
			id="four"
			attributeName="transform"
			dur="0.2s"
			type="rotate"
			from="-20 362 345"
			to="0 362 345"
			begin="three.end"
			 />
		 </g>
	<g>
		<path class="st32" d="M370,340.6c0,0,19.2,18.5-4.7,17l-26.9-4.2c0,0,22.1-3.3,7.2-26.8L370,340.6z"/>
		<path class="st33" d="M348.7,333.5c0,0,10.4,17.8-6.7,19C342,352.5,353.1,347.1,348.7,333.5z"/>
	</g>
</g>
<g id="Layer_2">
</g>
</svg>
