<?xml version="1.0" encoding="utf-8"?>
<!-- Generator: Adobe Illustrator 22.1.0, SVG Export Plug-In . SVG Version: 6.00 Build 0)  -->
<svg version="1.1" id="Layer_1" xmlns="http://www.w3.org/2000/svg" xmlns:xlink="http://www.w3.org/1999/xlink" x="0px" y="0px"
	 viewBox="0 0 825 485.3" style="enable-background:new 0 0 825 485.3;" xml:space="preserve">
<style type="text/css">
	.st0{fill-rule:evenodd;clip-rule:evenodd;fill:none;stroke:#40A357;stroke-width:3;stroke-miterlimit:10;}
	.st1{fill:#40A357;}
	.st2{fill:#565656;}
	.st3{fill:#F06060;}
	.st4{fill:#7DBC8E;}
	.st5{fill:#3F8CCC;}
	.st6{fill:#4C4C4C;}
	.st7{fill:url(#SVGID_1_);}
	.st8{opacity:8.000000e-02;fill:#333333;}
</style>
<rect x="5.3" y="7.2" class="st0" width="815.7" height="471.7"/>
<g>
	<path class="st1" d="M423,233.3c0.9,0,1.7,0.3,2.5,0.5V7.2h-4.9v226.6C421.3,233.5,422.1,233.3,423,233.3z"/>
	<path class="st1" d="M423,252.8c-0.9,0-1.7-0.3-2.5-0.5v226.6h4.9V252.3C424.6,252.5,423.9,252.8,423,252.8z"/>
</g>
<path class="st1" d="M423,213.5c-16.3,0-29.5,13.2-29.5,29.5s13.2,29.5,29.5,29.5c16.3,0,29.5-13.2,29.5-29.5S439.3,213.5,423,213.5
	z M423,252.8c-5.4,0-9.8-4.4-9.8-9.8c0-5.4,4.4-9.8,9.8-9.8c5.4,0,9.8,4.4,9.8,9.8C432.8,248.4,428.4,252.8,423,252.8z"/>
<path class="st2" d="M217.1,261.4c0,0-1.7-2.9-0.4-6.9c1.7-5.8-0.4,0-0.4,0s4-6.2-0.6-11.5c0,0-8.1-9.8-15.6-8.5
	c0,0-12.2,1-14.1,14.5c0,0-0.2,10.7,10.8,15.7c0,0,2.3,2.5,12.3-0.4c0,0,2.8-0.3,4.6,0.5L217.1,261.4z"/>
<path class="st3" d="M217.2,252.6c0.2-0.7,0.1-0.7,0-0.4c0.8-2.3,1.3-5.8-1.6-9.2c0,0-8.1-9.8-15.6-8.5c0,0-12.2,1-14.1,14.5
	c0,0-0.2,10.7,10.8,15.7c0,0,1.6,1.4,7,0.7L217.2,252.6z"/>
<path class="st4" d="M227.2,269.7c0,0-1.7,3.3-4.1,4.5l-12.7-13c0,0,0.2-2.7,2.9-2.9L227.2,269.7z"/>
<ellipse transform="matrix(0.6605 -0.7509 0.7509 0.6605 -125.6614 254.7352)" class="st3" cx="218.8" cy="266.3" rx="1.8" ry="7.4"/>
<path class="st2" d="M222.9,261.4c0,0,1.7-2.9,0.4-6.9c-1.7-5.8,0.4,0,0.4,0s-4-6.2,0.6-11.5c0,0,8.1-9.8,15.6-8.5
	c0,0,12.2,1,14.1,14.5c0,0,0.2,10.7-10.8,15.7c0,0-2.3,2.5-12.3-0.4c0,0-2.8-0.3-4.6,0.5L222.9,261.4z"/>
<path class="st5" d="M222.7,252.6c-0.2-0.7-0.1-0.7,0-0.4c-0.8-2.3-1.3-5.8,1.6-9.2c0,0,8.1-9.8,15.6-8.5c0,0,12.2,1,14.1,14.5
	c0,0,0.2,10.7-10.8,15.7c0,0-1.6,1.4-7,0.7L222.7,252.6z"/>
<path class="st4" d="M212.8,269.8c0,0,1.7,3.3,4.1,4.5l12.7-13c0,0-0.2-2.7-2.9-2.9L212.8,269.8z"/>
<g>
	<path class="st6" d="M131.6,220v12.8h-5.1V220h-5.7v-5.1h16.7v5.1H131.6z"/>
	<path class="st6" d="M143.9,227.7h10.3v5.1h-15.4v-18h15.4v5.1h-10.3V227.7z M145.2,221.3h5.1v5.1h-5.1V221.3z"/>
	<path class="st6" d="M170.8,230.2c-1.8,1.8-3.9,2.6-6.4,2.6c-2.5,0-4.6-0.9-6.4-2.6c-1.8-1.8-2.6-3.9-2.6-6.4
		c0-2.5,0.9-4.6,2.6-6.4c1.8-1.8,3.9-2.6,6.4-2.6c2.5,0,4.6,0.9,6.4,2.6c0.9,0.9,1.5,1.9,2,2.9l-4.7,2.2c-0.2-0.5-0.5-1-0.9-1.5
		c-0.8-0.8-1.7-1.1-2.7-1.1c-1.1,0-2,0.4-2.7,1.1c-0.8,0.8-1.1,1.7-1.1,2.7c0,1.1,0.4,2,1.1,2.7c0.7,0.8,1.7,1.1,2.7,1.1
		c1.1,0,2-0.4,2.7-1.1c0.4-0.4,0.7-0.9,0.9-1.4l4.7,2.1C172.4,228.4,171.7,229.3,170.8,230.2z"/>
	<path class="st6" d="M174.1,214.9h5.1v5.1h6.4v-5.1h5.1v18h-5.1v-7.7h-6.4v7.7h-5.1V214.9z"/>
	<path class="st6" d="M207.4,230.2c-1.8,1.8-3.9,2.6-6.4,2.6s-4.6-0.9-6.4-2.6c-1.8-1.8-2.6-3.9-2.6-6.4c0-2.5,0.9-4.6,2.6-6.4
		c1.8-1.8,3.9-2.6,6.4-2.6s4.6,0.9,6.4,2.6c0.9,0.9,1.6,1.9,2,2.9l-4.7,2.2c-0.2-0.5-0.5-1-0.9-1.5c-0.8-0.8-1.7-1.1-2.7-1.1
		c-1.1,0-2,0.4-2.7,1.1s-1.1,1.7-1.1,2.7c0,1.1,0.4,2,1.1,2.7c0.7,0.8,1.7,1.1,2.7,1.1c1.1,0,2-0.4,2.7-1.1c0.4-0.4,0.7-0.9,0.9-1.4
		l4.7,2.1C209,228.4,208.3,229.3,207.4,230.2z"/>
	<path class="st6" d="M230.3,214.9h5.1v12.9h5.1v5.1h-10.3V214.9z"/>
	<path class="st6" d="M241.9,214.9h5.1v12.9h5.1v5.1h-10.3V214.9z"/>
	<path class="st6" d="M258.5,227.7h10.3v5.1h-15.4v-18h15.4v5.1h-10.3V227.7z M259.8,221.3h5.1v5.1h-5.1V221.3z"/>
	<path class="st6" d="M279.1,220c-1.1,0-2,0.4-2.7,1.1c-0.8,0.8-1.1,1.7-1.1,2.7c0,1.1,0.4,2,1.1,2.7c0.7,0.8,1.7,1.1,2.7,1.1
		c1.1,0,2-0.4,2.7-1.1c0,0,0.1-0.1,0.1-0.1h-1.6v-5.1l7.7,0v2.6c0,2.5-0.9,4.6-2.6,6.4c-1.8,1.8-3.9,2.6-6.4,2.6
		c-2.5,0-4.6-0.9-6.4-2.6c-1.8-1.8-2.6-3.9-2.6-6.4c0-2.5,0.9-4.6,2.6-6.4c1.8-1.8,3.9-2.6,6.4-2.6h6.4v5.1H279.1z"/>
	<path class="st6" d="M294.5,227.7h10.3v5.1h-15.4v-18h15.4v5.1h-10.3V227.7z M295.8,221.3h5.1v5.1h-5.1V221.3z"/>
</g>
<ellipse transform="matrix(0.7509 -0.6605 0.6605 0.7509 -120.9261 212.1326)" class="st5" cx="220.7" cy="266.4" rx="7.4" ry="1.8"/>
<g>
	
		<radialGradient id="SVGID_1_" cx="218.2229" cy="226.4845" r="9.0919" gradientTransform="matrix(0.98 0 0 1 4.2141 6.371085e-03)" gradientUnits="userSpaceOnUse">
		<stop  offset="0" style="stop-color:#FFFFFF"/>
		<stop  offset="8.510864e-02" style="stop-color:#FFEDD8"/>
		<stop  offset="0.2082" style="stop-color:#FFD5A7"/>
		<stop  offset="0.3345" style="stop-color:#FFC17D"/>
		<stop  offset="0.462" style="stop-color:#FFB05B"/>
		<stop  offset="0.591" style="stop-color:#FFA340"/>
		<stop  offset="0.7222" style="stop-color:#FF9A2D"/>
		<stop  offset="0.8568" style="stop-color:#FF9522"/>
		<stop  offset="1" style="stop-color:#FF931E"/>
	</radialGradient>
	<ellipse class="st7" cx="219.3" cy="224" rx="8.9" ry="9.1"/>
	<ellipse class="st8" cx="219.3" cy="224" rx="8.9" ry="9.1"/>
</g>
</svg>
