<?xml version="1.0" encoding="utf-8"?>
<!-- Generator: Adobe Illustrator 22.1.0, SVG Export Plug-In . SVG Version: 6.00 Build 0)  -->
<svg version="1.1" id="Layer_1" xmlns="http://www.w3.org/2000/svg" xmlns:xlink="http://www.w3.org/1999/xlink" x="0px" y="0px"
	 viewBox="0 0 825 485.3" style="enable-background:new 0 0 825 485.3;" xml:space="preserve">
<style type="text/css">
	.st0{fill-rule:evenodd;clip-rule:evenodd;fill:none;stroke:#40A357;stroke-width:3;stroke-miterlimit:10;}
	.st1{fill:#40A357;}
	.st2{fill:#565656;}
	.st3{fill:#F06060;}
	.st4{fill:#7DBC8E;}
	.st5{fill:#3F8CCC;}
	.st6{fill:#4C4C4C;}
	.st7{fill:url(#SVGID_1_);}
	.st8{opacity:8.000000e-02;fill:#333333;}
	.st9{fill:#FFFFFF;stroke:#000000;stroke-miterlimit:10;}
	.st10{fill:#98D86F;}
	.st11{fill:#FFA992;stroke:#F77661;stroke-miterlimit:10;}
	.st12{fill:#FFA992;}
	.st13{fill:#D61628;stroke:#000000;stroke-width:0.5;stroke-miterlimit:10;}
	.st14{fill:#FFB3DF;}
	.st15{fill:#5F6EAA;}
	.st16{fill:none;stroke:#000000;stroke-width:0.5;stroke-miterlimit:10;}
</style>
<rect x="5.3" y="8.2" class="st0" width="815.7" height="471.7"/>
<g>
	<path class="st1" d="M423,233.3c0.9,0,1.7,0.3,2.5,0.5V7.2h-4.9v226.6C421.3,233.5,422.1,233.3,423,233.3z"/>
	<path class="st1" d="M423,252.8c-0.9,0-1.7-0.3-2.5-0.5v226.6h4.9V252.3C424.6,252.5,423.9,252.8,423,252.8z"/>
</g>
<path class="st1" d="M423,213.5c-16.3,0-29.5,13.2-29.5,29.5s13.2,29.5,29.5,29.5c16.3,0,29.5-13.2,29.5-29.5S439.3,213.5,423,213.5
	z M423,252.8c-5.4,0-9.8-4.4-9.8-9.8c0-5.4,4.4-9.8,9.8-9.8c5.4,0,9.8,4.4,9.8,9.8C432.8,248.4,428.4,252.8,423,252.8z"/>
<path class="st2" d="M217.1,261.4c0,0-1.7-2.9-0.4-6.9c1.7-5.8-0.4,0-0.4,0s4-6.2-0.6-11.5c0,0-8.1-9.8-15.6-8.5
	c0,0-12.2,1-14.1,14.5c0,0-0.2,10.7,10.8,15.7c0,0,2.3,2.5,12.3-0.4c0,0,2.8-0.3,4.6,0.5L217.1,261.4z"/>
<path class="st3" d="M217.2,252.6c0.2-0.7,0.1-0.7,0-0.4c0.8-2.3,1.3-5.8-1.6-9.2c0,0-8.1-9.8-15.6-8.5c0,0-12.2,1-14.1,14.5
	c0,0-0.2,10.7,10.8,15.7c0,0,1.6,1.4,7,0.7L217.2,252.6z"/>
<path class="st4" d="M227.2,269.7c0,0-1.7,3.3-4.1,4.5l-12.7-13c0,0,0.2-2.7,2.9-2.9L227.2,269.7z"/>
<ellipse transform="matrix(0.6605 -0.7509 0.7509 0.6605 -125.6614 254.7352)" class="st3" cx="218.8" cy="266.3" rx="1.8" ry="7.4"/>
<path class="st2" d="M222.9,261.4c0,0,1.7-2.9,0.4-6.9c-1.7-5.8,0.4,0,0.4,0s-4-6.2,0.6-11.5c0,0,8.1-9.8,15.6-8.5
	c0,0,12.2,1,14.1,14.5c0,0,0.2,10.7-10.8,15.7c0,0-2.3,2.5-12.3-0.4c0,0-2.8-0.3-4.6,0.5L222.9,261.4z"/>
<path class="st5" d="M222.7,252.6c-0.2-0.7-0.1-0.7,0-0.4c-0.8-2.3-1.3-5.8,1.6-9.2c0,0,8.1-9.8,15.6-8.5c0,0,12.2,1,14.1,14.5
	c0,0,0.2,10.7-10.8,15.7c0,0-1.6,1.4-7,0.7L222.7,252.6z"/>
<path class="st4" d="M212.8,269.8c0,0,1.7,3.3,4.1,4.5l12.7-13c0,0-0.2-2.7-2.9-2.9L212.8,269.8z"/>
<g>
	<path class="st6" d="M131.6,220v12.8h-5.1V220h-5.7v-5.1h16.7v5.1H131.6z"/>
	<path class="st6" d="M143.9,227.7h10.3v5.1h-15.4v-18h15.4v5.1h-10.3V227.7z M145.2,221.3h5.1v5.1h-5.1V221.3z"/>
	<path class="st6" d="M170.8,230.2c-1.8,1.8-3.9,2.6-6.4,2.6c-2.5,0-4.6-0.9-6.4-2.6c-1.8-1.8-2.6-3.9-2.6-6.4
		c0-2.5,0.9-4.6,2.6-6.4c1.8-1.8,3.9-2.6,6.4-2.6c2.5,0,4.6,0.9,6.4,2.6c0.9,0.9,1.5,1.9,2,2.9l-4.7,2.2c-0.2-0.5-0.5-1-0.9-1.5
		c-0.8-0.8-1.7-1.1-2.7-1.1c-1.1,0-2,0.4-2.7,1.1c-0.8,0.8-1.1,1.7-1.1,2.7c0,1.1,0.4,2,1.1,2.7c0.7,0.8,1.7,1.1,2.7,1.1
		c1.1,0,2-0.4,2.7-1.1c0.4-0.4,0.7-0.9,0.9-1.4l4.7,2.1C172.4,228.4,171.7,229.3,170.8,230.2z"/>
	<path class="st6" d="M174.1,214.9h5.1v5.1h6.4v-5.1h5.1v18h-5.1v-7.7h-6.4v7.7h-5.1V214.9z"/>
	<path class="st6" d="M207.4,230.2c-1.8,1.8-3.9,2.6-6.4,2.6s-4.6-0.9-6.4-2.6c-1.8-1.8-2.6-3.9-2.6-6.4c0-2.5,0.9-4.6,2.6-6.4
		c1.8-1.8,3.9-2.6,6.4-2.6s4.6,0.9,6.4,2.6c0.9,0.9,1.6,1.9,2,2.9l-4.7,2.2c-0.2-0.5-0.5-1-0.9-1.5c-0.8-0.8-1.7-1.1-2.7-1.1
		c-1.1,0-2,0.4-2.7,1.1s-1.1,1.7-1.1,2.7c0,1.1,0.4,2,1.1,2.7c0.7,0.8,1.7,1.1,2.7,1.1c1.1,0,2-0.4,2.7-1.1c0.4-0.4,0.7-0.9,0.9-1.4
		l4.7,2.1C209,228.4,208.3,229.3,207.4,230.2z"/>
	<path class="st6" d="M230.3,214.9h5.1v12.9h5.1v5.1h-10.3V214.9z"/>
	<path class="st6" d="M241.9,214.9h5.1v12.9h5.1v5.1h-10.3V214.9z"/>
	<path class="st6" d="M258.5,227.7h10.3v5.1h-15.4v-18h15.4v5.1h-10.3V227.7z M259.8,221.3h5.1v5.1h-5.1V221.3z"/>
	<path class="st6" d="M279.1,220c-1.1,0-2,0.4-2.7,1.1c-0.8,0.8-1.1,1.7-1.1,2.7c0,1.1,0.4,2,1.1,2.7c0.7,0.8,1.7,1.1,2.7,1.1
		c1.1,0,2-0.4,2.7-1.1c0,0,0.1-0.1,0.1-0.1h-1.6v-5.1l7.7,0v2.6c0,2.5-0.9,4.6-2.6,6.4c-1.8,1.8-3.9,2.6-6.4,2.6
		c-2.5,0-4.6-0.9-6.4-2.6c-1.8-1.8-2.6-3.9-2.6-6.4c0-2.5,0.9-4.6,2.6-6.4c1.8-1.8,3.9-2.6,6.4-2.6h6.4v5.1H279.1z"/>
	<path class="st6" d="M294.5,227.7h10.3v5.1h-15.4v-18h15.4v5.1h-10.3V227.7z M295.8,221.3h5.1v5.1h-5.1V221.3z"/>
</g>
<ellipse transform="matrix(0.7509 -0.6605 0.6605 0.7509 -120.9261 212.1326)" class="st5" cx="220.7" cy="266.4" rx="7.4" ry="1.8"/>
<g>

		<radialGradient id="SVGID_1_" cx="218.2229" cy="226.4845" r="9.0919" gradientTransform="matrix(0.98 0 0 1 4.2141 6.371085e-03)" gradientUnits="userSpaceOnUse">
		<stop  offset="0" style="stop-color:#FFFFFF"/>
		<stop  offset="8.510864e-02" style="stop-color:#FFEDD8"/>
		<stop  offset="0.2082" style="stop-color:#FFD5A7"/>
		<stop  offset="0.3345" style="stop-color:#FFC17D"/>
		<stop  offset="0.462" style="stop-color:#FFB05B"/>
		<stop  offset="0.591" style="stop-color:#FFA340"/>
		<stop  offset="0.7222" style="stop-color:#FF9A2D"/>
		<stop  offset="0.8568" style="stop-color:#FF9522"/>
		<stop  offset="1" style="stop-color:#FF931E"/>
	</radialGradient>
	<ellipse class="st7" cx="219.3" cy="224" rx="8.9" ry="9.1"/>
	<ellipse class="st8" cx="219.3" cy="224" rx="8.9" ry="9.1"/>
</g>
<path class="st9" d="M341.3,447.1"/>
<path class="st10" d="M550.4,219.7c0,0,35,42.3,80.8,1.8c0,0,4.5,18.1-11.2,30.6l0.4,11.4c0,0-16.3,10.3-27.7,0l-0.4-4.6
	c0,0-6.4,2.8-14.6-1.8v4.6c0,0-9.2,8.2-24.9-6l2-8.9C554.8,246.7,549.7,239.2,550.4,219.7z"/>
<g>
	<path class="st11" d="M568.1,188.5c0,0-12.6,23.6-16.5,23.3c0,0-18.1-26.3-19.5-34.1c0,0-11-23.1,8.9-11.4
		C541,166.3,557.5,177.8,568.1,188.5z"/>
	<path class="st12" d="M571.6,192.3c0,0-12.6,23.6-16.5,23.3c0,0-18.1-26.3-19.5-34.1c0,0-11-23.1,8.9-11.4
		C544.5,170.1,561,181.6,571.6,192.3z"/>
		<animateTransform id="lines"
		attributeName="transform"
		attributeType="XML"
		type="translate"
		begin=".1"
		dur="1.1s"
		values="0,2;0,-2;0,2"
		repeatCount="indefinite"/>
</g>
<path class="st11" d="M616.4,181.5c0,0-9.5-35.7-3.9-48.7c0,0,13-35.8-8.5-15.3c0,0-13.7,16.2-15.5,22c0,0-2.4,4.2-15.1,35.5
	c0,0-15.3,32.7-22.4,35.5c0,0-2.1,4.3,0,9.9c0,0,29.5,40.1,79.9,2.8C631,223.4,635.2,219.1,616.4,181.5z"/>
<ellipse transform="matrix(0.2597 -0.9657 0.9657 0.2597 275.0898 681.2911)" class="st9" cx="581.9" cy="161.2" rx="10.7" ry="8.3"/>
<ellipse transform="matrix(0.2597 -0.9657 0.9657 0.2597 284.5112 693.5805)" class="st9" cx="594.6" cy="161.2" rx="10.7" ry="8.3"/>
<path class="st13" d="M576.6,178c0,0,6.4,7.1,29.5-3.2c0,0,1,10.2-9.1,18.3c0,0-14.3,9.7-22.9,0C574.1,193.1,585.5,183.3,576.6,178z
	"/>
<path class="st12" d="M597.5,266.5c0,0,6.5,3.7,20.3-1.6c0,0-2.6,16.7-8.3,16.3C609.5,281.2,602.8,283.5,597.5,266.5z"/>
<path class="st12" d="M556.8,258.8c0,0,0.7,12.4,9.9,15.1c0,0,5.3,2.6,6-10.2C572.8,263.7,566.5,265,556.8,258.8z"/>
<path class="st14" d="M598.9,190.8c-0.9,1.7-14.5,10.8-23,3.4c0,0,14.4-11.2,11.1-2.9C587,191.3,596.4,182.6,598.9,190.8z"/>
<g>
	<path class="st11" d="M622.5,214.1l33.6-46.5c0,0,2.7-12.4-8.3-7.1c0,0-24.9,13.9-39.4,28.4L622.5,214.1z"/>
	<path class="st12" d="M620.2,216.8l33.6-46.5c0,0,2.7-12.4-8.3-7.1c0,0-24.9,13.9-39.4,28.4L620.2,216.8z"/>
	<animateTransform id="lines"
	attributeName="transform"
	attributeType="XML"
	type="translate"
	begin=".1"
	dur="1.1s"
	values="0,2;0,-2;0,2"
	repeatCount="indefinite"/>
</g>
<ellipse transform="matrix(0.1187 -0.9929 0.9929 0.1187 353.6458 720.9157)" cx="583" cy="161.2" rx="2.9" ry="1.8"/>
<ellipse transform="matrix(0.1187 -0.9929 0.9929 0.1187 361.8824 731.2778)" cx="592.9" cy="161.8" rx="2.9" ry="1.8"/>
<path class="st15" d="M556.7,228.7c0,0-6.3,7.7,6,6.3c0,0,3.5,0.1,0,3.1c0,0-6.1,5.3,1.5,7.6c0,0,2.5,1.6,9.3,2.1
	c0,0,4.7,0.1,2.1-5.6c0,0-0.2-4.7,4,2.8c0,0-0.6,8.4,2.4,3.9c0,0,6.6-8.3,5-9.4c0,0-16.1-0.4-29.6-11.9"/>
<path class="st15" d="M611.2,256.1c0,0,8.3,3.6,3.7-2.5c0,0-6.1-3.2,0.1-6.3c0,0,3.9-4.4,7.9-3.3c0,0,3.4,0.7,2.7,2.3
	c0,0-3.7,5.1-5.7,6l0.3,11.2c0,0-3.7,2.9-12.1,4C608.3,267.4,607.6,258.1,611.2,256.1"/>
<path d="M596.4,144c0,0-1.2-2.6,1.4-1.4l4.5,2.6c0,0,3,2.2-0.7,1.2c0,0,2.3,3-1.5,1.2l-4-2.5C596.2,145.2,593.3,143.6,596.4,144z">
	<animateTransform id="lines"
	attributeName="transform"
	attributeType="XML"
	type="translate"
	begin=".1"
	dur="1.2s"
	values="0,1;2,0;0,1"
	repeatCount="indefinite"/></path>

<path d="M589.7,142.8c0,0,1.2-2.5-1.3-1.3l-4.3,2.5c0,0-1.9,1.4,0.6,1.2c0,0-1.8,3.3,1.4,1.2l3.8-2.4
	C590,144,594.3,141.4,589.7,142.8z">
	<animateTransform id="lines"
	attributeName="transform"
	attributeType="XML"
	type="translate"
	begin=".1"
	dur="1.2s"
	values="-0,1;-2,0;0,1"
	repeatCount="indefinite"/></path>
<path class="st16" d="M572.5,191.1c0.2,0.5-0.1,0.9,1.6,2"/>
</svg>
