<?xml version="1.0" encoding="utf-8"?>
<!-- Generator: Adobe Illustrator 22.1.0, SVG Export Plug-In . SVG Version: 6.00 Build 0)  -->
<svg version="1.1" id="Layer_1" xmlns="http://www.w3.org/2000/svg" xmlns:xlink="http://www.w3.org/1999/xlink" x="0px" y="0px"
	 viewBox="0 0 825 233.7" style="enable-background:new 0 0 825 233.7;" xml:space="preserve">
<style type="text/css">
	.st0{fill-rule:evenodd;clip-rule:evenodd;fill:none;stroke:#40A357;stroke-width:3;stroke-miterlimit:10;}
	.st1{fill:#40A357;}
	.st2{fill:#565656;}
	.st3{fill:#F06060;}
	.st4{fill:#7DBC8E;}
	.st5{fill:#3F8CCC;}
	.st6{fill:#4C4C4C;}
	.st7{fill:url(#SVGID_1_);}
	.st8{opacity:8.000000e-02;fill:#333333;}
	.st9{fill:#FFFFFF;stroke:#000000;stroke-miterlimit:10;}
	.st10{fill:#98D86F;}
	.st11{fill:#FFA992;stroke:#F77661;stroke-miterlimit:10;}
	.st12{fill:#FFA992;}
	.st13{fill:#D61628;stroke:#000000;stroke-width:0.5;stroke-miterlimit:10;}
	.st14{fill:#FFB3DF;}
	.st15{fill:#5F6EAA;}
	.st16{fill:none;stroke:#000000;stroke-width:0.5;stroke-miterlimit:10;}
</style>
<rect x="1.5" y="1.6" class="st0" width="823.5" height="230.6"/>
<g>
	<g>
		<path class="st1" d="M418,113.1c0.9,0,1.7,0.1,2.5,0.2V2.2h-4.9v111.2C416.4,113.2,417.1,113.1,418,113.1z"/>
		<path class="st1" d="M418,122.7c-0.9,0-1.7-0.1-2.5-0.2v111.2h4.9V122.4C419.7,122.5,418.9,122.7,418,122.7z"/>
	</g>
	<path class="st1" d="M418,105c-7,0-12.7,5.7-12.7,12.7s5.7,12.7,12.7,12.7c7,0,12.7-5.7,12.7-12.7S425,105,418,105z M418,121.9
		c-2.3,0-4.2-1.9-4.2-4.2c0-2.3,1.9-4.2,4.2-4.2c2.3,0,4.2,1.9,4.2,4.2C422.2,120,420.3,121.9,418,121.9z"/>
</g>
<path class="st2" d="M226.2,140.4c0,0-1.7-2.9-0.4-6.9c1.7-5.8-0.4,0-0.4,0s4-6.2-0.6-11.5c0,0-8.1-9.8-15.6-8.5
	c0,0-12.2,1-14.1,14.5c0,0-0.2,10.7,10.8,15.7c0,0,2.3,2.5,12.3-0.4c0,0,2.8-0.3,4.6,0.5L226.2,140.4z"/>
<path class="st3" d="M226.3,131.6c0.2-0.7,0.1-0.7,0-0.4c0.8-2.3,1.3-5.8-1.6-9.2c0,0-8.1-9.8-15.6-8.5c0,0-12.2,1-14.1,14.5
	c0,0-0.2,10.7,10.8,15.7c0,0,1.6,1.4,7,0.7L226.3,131.6z"/>
<path class="st4" d="M236.3,148.8c0,0-1.7,3.3-4.1,4.5l-12.7-13c0,0,0.2-2.7,2.9-2.9L236.3,148.8z"/>
<ellipse transform="matrix(0.6605 -0.7509 0.7509 0.6605 -31.5281 220.0817)" class="st3" cx="227.6" cy="144.9" rx="1.8" ry="7.4"/>
<path class="st2" d="M231.9,140.4c0,0,1.7-2.9,0.4-6.9c-1.7-5.8,0.4,0,0.4,0s-4-6.2,0.6-11.5c0,0,8.1-9.8,15.6-8.5
	c0,0,12.2,1,14.1,14.5c0,0,0.2,10.7-10.8,15.7c0,0-2.3,2.5-12.3-0.4c0,0-2.8-0.3-4.6,0.5L231.9,140.4z"/>
<path class="st5" d="M231.8,131.7c-0.2-0.7-0.1-0.7,0-0.4c-0.8-2.3-1.3-5.8,1.6-9.2c0,0,8.1-9.8,15.6-8.5c0,0,12.2,1,14.1,14.5
	c0,0,0.2,10.7-10.8,15.7c0,0-1.6,1.4-7,0.7L231.8,131.7z"/>
<path class="st4" d="M221.8,148.8c0,0,1.7,3.3,4.1,4.5l12.7-13c0,0-0.2-2.7-2.9-2.9L221.8,148.8z"/>
<ellipse transform="matrix(0.7509 -0.6605 0.6605 0.7509 -38.9656 187.8434)" class="st5" cx="229.5" cy="145.6" rx="7.4" ry="1.8"/>
<g>
	<path class="st6" d="M140.7,99v12.8h-5.1V99h-5.7v-5.1h16.7V99H140.7z"/>
	<path class="st6" d="M153,106.7h10.3v5.1h-15.4v-18h15.4V99H153V106.7z M154.2,100.3h5.1v5.1h-5.1V100.3z"/>
	<path class="st6" d="M179.9,109.2c-1.8,1.8-3.9,2.6-6.4,2.6c-2.5,0-4.6-0.9-6.4-2.6c-1.8-1.8-2.6-3.9-2.6-6.4
		c0-2.5,0.9-4.6,2.6-6.4c1.8-1.8,3.9-2.6,6.4-2.6c2.5,0,4.6,0.9,6.4,2.6c0.9,0.9,1.5,1.9,2,2.9l-4.7,2.2c-0.2-0.5-0.5-1-0.9-1.5
		c-0.8-0.8-1.7-1.1-2.7-1.1c-1.1,0-2,0.4-2.7,1.1c-0.8,0.8-1.1,1.7-1.1,2.7c0,1.1,0.4,2,1.1,2.7c0.7,0.8,1.7,1.1,2.7,1.1
		c1.1,0,2-0.4,2.7-1.1c0.4-0.4,0.7-0.9,0.9-1.4l4.7,2.1C181.4,107.4,180.7,108.4,179.9,109.2z"/>
	<path class="st6" d="M183.1,93.9h5.1V99h6.4v-5.1h5.1v18h-5.1v-7.7h-6.4v7.7h-5.1V93.9z"/>
	<path class="st6" d="M216.5,109.2c-1.8,1.8-3.9,2.6-6.4,2.6s-4.6-0.9-6.4-2.6c-1.8-1.8-2.6-3.9-2.6-6.4c0-2.5,0.9-4.6,2.6-6.4
		c1.8-1.8,3.9-2.6,6.4-2.6s4.6,0.9,6.4,2.6c0.9,0.9,1.6,1.9,2,2.9l-4.7,2.2c-0.2-0.5-0.5-1-0.9-1.5c-0.8-0.8-1.7-1.1-2.7-1.1
		c-1.1,0-2,0.4-2.7,1.1c-0.7,0.8-1.1,1.7-1.1,2.7c0,1.1,0.4,2,1.1,2.7c0.7,0.8,1.7,1.1,2.7,1.1c1.1,0,2-0.4,2.7-1.1
		c0.4-0.4,0.7-0.9,0.9-1.4l4.7,2.1C218,107.4,217.3,108.4,216.5,109.2z"/>
	<path class="st6" d="M239.3,93.9h5.1v12.9h5.1v5.1h-10.3V93.9z"/>
	<path class="st6" d="M250.9,93.9h5.1v12.9h5.1v5.1h-10.3V93.9z"/>
	<path class="st6" d="M267.6,106.7h10.3v5.1h-15.4v-18h15.4V99h-10.3V106.7z M268.9,100.3h5.1v5.1h-5.1V100.3z"/>
	<path class="st6" d="M288.1,99c-1.1,0-2,0.4-2.7,1.1c-0.8,0.8-1.1,1.7-1.1,2.7c0,1.1,0.4,2,1.1,2.7c0.7,0.8,1.7,1.1,2.7,1.1
		s2-0.4,2.7-1.1c0,0,0.1-0.1,0.1-0.1h-1.6v-5.1l7.7,0v2.6c0,2.5-0.9,4.6-2.6,6.4c-1.8,1.8-3.9,2.6-6.4,2.6c-2.5,0-4.6-0.9-6.4-2.6
		s-2.6-3.9-2.6-6.4c0-2.5,0.9-4.6,2.6-6.4s3.9-2.6,6.4-2.6h6.4V99H288.1z"/>
	<path class="st6" d="M303.6,106.7h10.3v5.1h-15.4v-18h15.4V99h-10.3V106.7z M304.8,100.3h5.1v5.1h-5.1V100.3z"/>
</g>
<g>

		<radialGradient id="SVGID_1_" cx="227.464" cy="105.5135" r="9.0919" gradientTransform="matrix(0.98 0 0 1 4.2141 6.371085e-03)" gradientUnits="userSpaceOnUse">
		<stop  offset="0" style="stop-color:#FFFFFF"/>
		<stop  offset="8.510864e-02" style="stop-color:#FFEDD8"/>
		<stop  offset="0.2082" style="stop-color:#FFD5A7"/>
		<stop  offset="0.3345" style="stop-color:#FFC17D"/>
		<stop  offset="0.462" style="stop-color:#FFB05B"/>
		<stop  offset="0.591" style="stop-color:#FFA340"/>
		<stop  offset="0.7222" style="stop-color:#FF9A2D"/>
		<stop  offset="0.8568" style="stop-color:#FF9522"/>
		<stop  offset="1" style="stop-color:#FF931E"/>
	</radialGradient>
	<ellipse class="st7" cx="228.4" cy="103.1" rx="8.9" ry="9.1"/>
	<ellipse class="st8" cx="228.4" cy="103.1" rx="8.9" ry="9.1"/>
</g>
<path class="st9" d="M341.3,447.1"/>
<g>
	<path class="st10" d="M571.7,131.9c0,0,21.1,25.6,48.8,1.1c0,0,2.7,11-6.8,18.5l0.2,6.9c0,0-9.9,6.2-16.8,0l-0.2-2.8
		c0,0-3.9,1.7-8.8-1.1v2.8c0,0-5.6,4.9-15-3.7l1.2-5.4C574.4,148.2,571.3,143.7,571.7,131.9z"/>
	<g>
		<path class="st11" d="M582.4,113c0,0-7.6,14.3-10,14.1c0,0-11-15.9-11.8-20.6c0,0-6.7-14,5.4-6.9C566,99.6,576,106.6,582.4,113z"
			/>
		<path class="st12" d="M584.6,115.3c0,0-7.6,14.3-10,14.1c0,0-11-15.9-11.8-20.6c0,0-6.7-14,5.4-6.9
			C568.1,101.9,578.1,108.9,584.6,115.3z"/>
			<animateTransform id="lines"
			attributeName="transform"
			attributeType="XML"
			type="translate"
			begin=".1"
			dur="1.1s"
			values="0,2;0,-2;0,2"
			repeatCount="indefinite"/>
	</g>
	<path class="st11" d="M611.6,108.8c0,0-5.8-21.6-2.4-29.4c0,0,7.9-21.6-5.2-9.2c0,0-8.3,9.8-9.3,13.3c0,0-1.4,2.6-9.1,21.5
		c0,0-9.2,19.8-13.5,21.5c0,0-1.3,2.6,0,6c0,0,17.8,24.3,48.3,1.7C620.4,134.1,623,131.6,611.6,108.8z"/>
	<ellipse transform="matrix(0.2597 -0.9657 0.9657 0.2597 344.0993 641.9672)" class="st9" cx="590.7" cy="96.6" rx="6.4" ry="5"/>
	<ellipse transform="matrix(0.2597 -0.9657 0.9657 0.2597 349.7939 649.3954)" class="st9" cx="598.4" cy="96.6" rx="6.4" ry="5"/>
	<path class="st13" d="M587.5,106.7c0,0,3.9,4.3,17.8-1.9c0,0,0.6,6.2-5.5,11.1c0,0-8.6,5.9-13.9,0
		C586,115.8,592.9,109.9,587.5,106.7z"/>
	<path class="st12" d="M600.2,160.2c0,0,3.9,2.2,12.2-1c0,0-1.6,10.1-5,9.9C607.4,169.1,603.4,170.5,600.2,160.2z"/>
	<path class="st12" d="M575.6,155.6c0,0,0.4,7.5,6,9.1c0,0,3.2,1.6,3.7-6.2C585.3,158.5,581.4,159.3,575.6,155.6z"/>
	<path class="st14" d="M601,114.4c-0.5,1-8.7,6.5-13.9,2c0,0,8.7-6.7,6.7-1.7C593.8,114.8,599.5,109.5,601,114.4z"/>
	<g>
		<path class="st11" d="M615.3,128.5l20.3-28.1c0,0,1.6-7.5-5-4.3c0,0-15,8.4-23.8,17.2L615.3,128.5z"/>
		<path class="st12" d="M613.9,130.1l20.3-28.1c0,0,1.6-7.5-5-4.3c0,0-15,8.4-23.8,17.2L613.9,130.1z"/>
		<animateTransform id="lines"
		attributeName="transform"
		attributeType="XML"
		type="translate"
		begin=".1"
		dur="1.1s"
		values="0,2;0,-2;0,2"
		repeatCount="indefinite"/>
	</g>
	<ellipse transform="matrix(0.1187 -0.9929 0.9929 0.1187 425.2929 672.3002)" cx="591.4" cy="96.6" rx="1.7" ry="1.1"/>
	<ellipse transform="matrix(0.1187 -0.9929 0.9929 0.1187 430.2714 678.5634)" cx="597.4" cy="96.9" rx="1.7" ry="1.1"/>
	<path class="st15" d="M575.5,137.3c0,0-3.8,4.7,3.7,3.8c0,0,2.1,0.1,0,1.9c0,0-3.7,3.2,0.9,4.6c0,0,1.5,1,5.6,1.3
		c0,0,2.8,0.1,1.3-3.4c0,0-0.1-2.8,2.4,1.7c0,0-0.4,5.1,1.4,2.3c0,0,4-5,3-5.7c0,0-9.7-0.2-17.9-7.2"/>
	<path class="st15" d="M608.5,153.9c0,0,5,2.2,2.3-1.5c0,0-3.7-1.9,0.1-3.8c0,0,2.3-2.7,4.8-2c0,0,2.1,0.4,1.7,1.4
		c0,0-2.2,3.1-3.4,3.6l0.2,6.7c0,0-2.3,1.7-7.3,2.4C606.7,160.8,606.3,155.1,608.5,153.9"/>
	<path d="M599.5,86.1c0,0-0.7-1.6,0.8-0.8l2.7,1.6c0,0,1.8,1.3-0.4,0.7c0,0,1.4,1.8-0.9,0.7l-2.4-1.5
		C599.4,86.9,597.7,85.9,599.5,86.1z">
		<animateTransform id="lines"
		attributeName="transform"
		attributeType="XML"
		type="translate"
		begin=".1"
		dur="1.2s"
		values="0,1;2,0;0,1"
		repeatCount="indefinite"/></path>
	<path d="M595.5,85.4c0,0,0.7-1.5-0.8-0.8l-2.6,1.5c0,0-1.1,0.8,0.4,0.7c0,0-1.1,2,0.9,0.7l2.3-1.4
		C595.6,86.1,598.2,84.6,595.5,85.4z">
		<animateTransform id="lines"
		attributeName="transform"
		attributeType="XML"
		type="translate"
		begin=".1"
		dur="1.2s"
		values="-0,1;-2,0;0,1"
		repeatCount="indefinite"/></path>
	<path class="st16" d="M585.1,114.6c0.1,0.3-0.1,0.5,0.9,1.2"/>
</g>
</svg>
