<?xml version="1.0" encoding="utf-8"?>
<!-- Generator: Adobe Illustrator 22.1.0, SVG Export Plug-In . SVG Version: 6.00 Build 0)  -->
<svg version="1.1" id="Layer_1" xmlns="http://www.w3.org/2000/svg" xmlns:xlink="http://www.w3.org/1999/xlink" x="0px" y="0px"
	 viewBox="0 0 1900 871" style="enable-background:new 0 0 1900 871;" xml:space="preserve">
<style type="text/css">
	.st0{fill:url(#SVGID_1_);}
	.st1{opacity:0.29;}
	.st2{fill:url(#SVGID_2_);}
	.st3{fill:#FFFFFF;}
	.st4{fill:url(#SVGID_3_);}
	.st5{fill:url(#SVGID_4_);}
	.st6{fill:url(#SVGID_5_);}
	.st7{fill:url(#SVGID_6_);}
	.st8{fill:url(#SVGID_7_);}
	.st9{fill:#B6E23B;}
	.st10{fill:#BDE551;}
	.st11{opacity:0.4;}
	.st12{fill:#F9A208;}
	.st13{fill:#3D60E0;stroke:#11057C;stroke-miterlimit:10;}
	.st14{fill:#11057C;}
	.st15{fill:#839FDD;}
	.st16{fill:#0037D3;stroke:#11057C;stroke-miterlimit:10;}
	.st17{fill:url(#SVGID_8_);}
	.st18{fill:url(#SVGID_9_);}
	.st19{fill:url(#SVGID_10_);}
	.st20{fill:url(#SVGID_11_);}
	.st21{fill:url(#SVGID_12_);}
	.st22{fill:url(#SVGID_13_);}
	.st23{opacity:0.75;}
	.st24{fill:#4CE03D;}
	.st25{opacity:0.6;}
	.st26{fill:#ED1C24;}
	.st27{fill:#DCF4A6;}
	.st28{fill:#FDF475;stroke:#000000;stroke-width:2;stroke-miterlimit:10;}
	.st29{fill:#FFFFFF;stroke:#000000;stroke-miterlimit:10;}
	.st30{fill:#113B8E;stroke:#000000;stroke-width:2;stroke-miterlimit:10;}
	.st31{fill:#EFED79;stroke:#000000;stroke-width:2;stroke-miterlimit:10;}
	.st32{fill:#DA8F42;stroke:#000000;stroke-miterlimit:10;}
	.st33{fill:#F64C43;}
	.st34{fill:#F64C43;stroke:#000000;stroke-miterlimit:10;}
	.st35{fill:#EDEDED;stroke:#000000;stroke-width:2;stroke-miterlimit:10;}
	.st36{fill:#55BAC5;stroke:#000000;stroke-miterlimit:10;}
	.st37{stroke:#000000;stroke-miterlimit:10;}
	.st38{fill:#0F0F0F;stroke:#000000;stroke-miterlimit:10;}
	.st39{fill:#FDF475;}
	.st40{fill:#C37427;stroke:#000000;stroke-miterlimit:10;}
	.st41{fill:#8A3729;stroke:#000000;stroke-miterlimit:10;}
	.st42{fill:#F69693;stroke:#000000;stroke-width:2;stroke-miterlimit:10;}
	.st43{fill:#0F0F0F;stroke:#000000;stroke-width:2;stroke-miterlimit:10;}
	.st44{fill:#FFFFFF;stroke:#000000;stroke-width:2;stroke-miterlimit:10;}
	.st45{fill:#D6D11D;stroke:#262626;stroke-width:0.25;stroke-miterlimit:10;}
	.st46{fill:#0C0C0C;}
	.st47{fill:#B77132;stroke:#000000;stroke-miterlimit:10;}
	.st48{fill:#EFEFEF;}
	.st49{fill:#FDF475;stroke:#212121;stroke-width:2;stroke-miterlimit:10;}
	.st50{fill:#113B8E;}
	.st51{stroke:#000000;stroke-width:2;stroke-miterlimit:10;}
	.st52{fill:#98D86F;}
	.st53{fill:#FFA992;stroke:#F77661;stroke-miterlimit:10;}
	.st54{fill:#FFA992;}
	.st55{fill:#D61628;stroke:#000000;stroke-width:0.5;stroke-miterlimit:10;}
	.st56{fill:#FFB3DF;}
	.st57{fill:#5F6EAA;}
	.st58{fill:none;stroke:#000000;stroke-width:0.5;stroke-miterlimit:10;}
	.st59{fill:url(#SVGID_14_);}
	.st60{fill:url(#SVGID_15_);}
	.st61{fill:url(#SVGID_16_);}
	.st62{fill:url(#SVGID_17_);}
	.st63{fill:url(#SVGID_18_);}
	.st64{fill:url(#SVGID_19_);}
	.st65{fill:url(#SVGID_20_);}
	.st66{fill:url(#SVGID_21_);}
	.st67{fill:url(#SVGID_22_);}
	.st68{fill:url(#SVGID_23_);}
	.st69{fill:url(#SVGID_24_);}
	.st70{fill:url(#SVGID_25_);}
</style>
<g id="Layer_1_1_">
	<g id="background">
		<g id="bluback">
			
				<linearGradient id="SVGID_1_" gradientUnits="userSpaceOnUse" x1="0" y1="-559" x2="1900" y2="-559" gradientTransform="matrix(1 0 0 1 0 994)">
				<stop  offset="0" style="stop-color:#29ABE2"/>
				<stop  offset="0.1407" style="stop-color:#2DADE3"/>
				<stop  offset="0.278" style="stop-color:#39B1E4"/>
				<stop  offset="0.414" style="stop-color:#4CB9E7"/>
				<stop  offset="0.549" style="stop-color:#68C4EB"/>
				<stop  offset="0.6836" style="stop-color:#8BD2EF"/>
				<stop  offset="0.8179" style="stop-color:#B7E3F5"/>
				<stop  offset="0.9493" style="stop-color:#E9F7FC"/>
				<stop  offset="1" style="stop-color:#FFFFFF"/>
			</linearGradient>
			<rect y="-0.5" class="st0" width="1900" height="871"/>
		</g>
		<g id="buble">
			<g class="st1">
				<g>
					
						<linearGradient id="SVGID_2_" gradientUnits="userSpaceOnUse" x1="1172.8282" y1="-297.1781" x2="1195.457" y2="-297.1781" gradientTransform="matrix(1 0 0 1 0 994)">
						<stop  offset="0" style="stop-color:#FFFFFF"/>
						<stop  offset="1" style="stop-color:#29ABE2"/>
					</linearGradient>
					<path class="st2" d="M1184.1,709.6c-3,0-5.9-1.3-8-3.7c-2.1-2.5-3.3-5.6-3.3-9.1c0-3.4,1.2-6.7,3.3-9.1c2.2-2.4,5-3.7,8-3.7
						s5.9,1.3,8,3.7c2.1,2.5,3.3,5.6,3.3,9.1c0,3.4-1.2,6.7-3.3,9.1C1190,708.3,1187.1,709.6,1184.1,709.6z					">
<animate  accumulate="none" additive="replace" attributeName="fill" begin="0s;bub25.end;bub26.end;" calcMode="linear" dur="10s" fill="remove" id="color2" restart="always" values="transparent;">
							</animate>
					</path>
					<path class="st3" d="M1184.1,684.4c1.5,0,2.9,0.4,4.3,1s2.5,1.5,3.5,2.7c1,1.1,1.8,2.5,2.4,4c0.6,1.5,0.8,3.2,0.8,4.8
						c0,1.6-0.3,3.4-0.8,4.8s-1.3,2.9-2.4,4c-1,1.1-2.2,2.1-3.5,2.7c-1.3,0.6-2.8,1-4.3,1s-2.9-0.4-4.3-1c-1.3-0.6-2.5-1.5-3.5-2.7
						c-1-1.1-1.8-2.5-2.4-4c-0.6-1.5-0.8-3.2-0.8-4.8c0-1.6,0.3-3.4,0.8-4.8c0.6-1.5,1.3-2.9,2.4-4c1-1.1,2.2-2.1,3.5-2.7
						C1181.1,684.7,1182.6,684.4,1184.1,684.4 M1184.1,683.7c-6.4,0-11.6,5.9-11.6,13.2s5.2,13.2,11.6,13.2
						c6.4,0,11.6-5.9,11.6-13.2C1195.7,689.5,1190.6,683.7,1184.1,683.7L1184.1,683.7z					">
<animate  accumulate="none" additive="replace" attributeName="fill" begin="0s;bub25.end;bub26.end;" calcMode="linear" dur="10s" fill="remove" id="color2" restart="always" values="transparent;">
							</animate>
					</path>
					
						<animateTransform  accumulate="none" additive="replace" attributeName="transform" attributeType="XML" begin="10s;bub26.end+10s;" calcMode="linear" dur="4.7s" fill="remove" id="bub25" restart="always" type="translate" values="0,0;0,-1000">
						</animateTransform>
					
						<animateTransform  accumulate="none" additive="replace" attributeName="transform" attributeType="XML" begin="bub25.end+10s" calcMode="linear" dur="4.7s" fill="remove" id="bub26" restart="always" type="translate" values="0,0;0,-1000">
						</animateTransform>
				</g>
			</g>
			<g class="st1">
				<g>
					
						<linearGradient id="SVGID_3_" gradientUnits="userSpaceOnUse" x1="1195.953" y1="-282.1869" x2="1210.028" y2="-282.1869" gradientTransform="matrix(1 0 0 1 0 994)">
						<stop  offset="0" style="stop-color:#FFFFFF"/>
						<stop  offset="1" style="stop-color:#29ABE2"/>
					</linearGradient>
					<path class="st4" d="M1203,719.8c-1.9,0-3.6-0.8-5-2.3c-1.3-1.5-2-3.5-2-5.7c0-2.2,0.8-4.1,2-5.7c1.3-1.5,3.1-2.3,5-2.3
						s3.6,0.8,5,2.3c1.3,1.5,2,3.5,2,5.7c0,2.2-0.8,4.1-2,5.7C1206.6,719,1204.8,719.8,1203,719.8z					">
<animate  accumulate="none" additive="replace" attributeName="fill" begin="0s;bub27.end;bub28.end;" calcMode="linear" dur="10s" fill="remove" id="color2" restart="always" values="transparent;">
							</animate>
					</path>
					<path class="st3" d="M1203,704c0.9,0,1.8,0.2,2.7,0.6c0.8,0.4,1.5,0.9,2.2,1.7c0.6,0.7,1.1,1.5,1.5,2.5c0.4,0.9,0.5,2,0.5,3
						s-0.1,2.1-0.5,3c-0.4,0.9-0.8,1.8-1.5,2.5c-0.6,0.7-1.3,1.3-2.2,1.7c-0.8,0.4-1.8,0.6-2.7,0.6c-0.9,0-1.8-0.2-2.7-0.6
						c-0.8-0.4-1.5-0.9-2.2-1.7c-0.6-0.7-1.1-1.5-1.5-2.5c-0.4-0.9-0.5-2-0.5-3s0.1-2.1,0.5-3c0.4-0.9,0.8-1.8,1.5-2.5
						c0.6-0.7,1.3-1.3,2.2-1.7C1201.2,704.2,1202.1,704,1203,704 M1203,703.6c-4,0-7.2,3.6-7.2,8.2c0,4.6,3.2,8.2,7.2,8.2
						c4,0,7.2-3.6,7.2-8.2C1210.2,707.3,1207,703.6,1203,703.6L1203,703.6z					">
<animate  accumulate="none" additive="replace" attributeName="fill" begin="0s;bub27.end;bub28.end;" calcMode="linear" dur="10s" fill="remove" id="color2" restart="always" values="transparent;">
							</animate>
					</path>
					
						<animateTransform  accumulate="none" additive="replace" attributeName="transform" attributeType="XML" begin="10s;bub28.end+10s;" calcMode="linear" dur="5.3s" fill="remove" id="bub27" restart="always" type="translate" values="0,0;0,-1000">
						</animateTransform>
					
						<animateTransform  accumulate="none" additive="replace" attributeName="transform" attributeType="XML" begin="bub27.end+10s" calcMode="linear" dur="5.3s" fill="remove" id="bub28" restart="always" type="translate" values="0,0;0,-1000">
						</animateTransform>
				</g>
			</g>
			<g class="st1">
				<g>
					
						<linearGradient id="SVGID_4_" gradientUnits="userSpaceOnUse" x1="1198.9927" y1="-311.9591" x2="1225.9839" y2="-311.9591" gradientTransform="matrix(1 0 0 1 0 994)">
						<stop  offset="0" style="stop-color:#FFFFFF"/>
						<stop  offset="1" style="stop-color:#29ABE2"/>
					</linearGradient>
					<path class="st5" d="M1212.4,696.4c-3.6,0-7-1.5-9.5-4.2c-2.5-2.7-3.9-6.3-3.9-10.2c0-3.9,1.4-7.5,3.9-10.2
						c2.6-2.7,6-4.2,9.5-4.2s7,1.5,9.5,4.2c2.5,2.7,3.9,6.3,3.9,10.2c0,3.9-1.4,7.5-3.9,10.2C1219.4,694.9,1216,696.4,1212.4,696.4z
											">
<animate  accumulate="none" additive="replace" attributeName="fill" begin="0s;bub29.end;bub30.end;" calcMode="linear" dur="10s" fill="remove" id="color2" restart="always" values="transparent;">
							</animate>
					</path>
					<path class="st3" d="M1212.4,668.2c1.8,0,3.5,0.4,5.1,1.1c1.6,0.7,3,1.7,4.2,3c1.2,1.3,2.2,2.7,2.9,4.4c0.7,1.7,1,3.6,1,5.4
						c0,1.8-0.4,3.7-1,5.4c-0.7,1.7-1.6,3.2-2.9,4.4c-1.2,1.3-2.6,2.3-4.2,3c-1.6,0.7-3.4,1.1-5.1,1.1c-1.8,0-3.5-0.4-5.1-1.1
						s-3-1.7-4.2-3c-1.2-1.3-2.2-2.7-2.9-4.4c-0.7-1.7-1-3.6-1-5.4s0.4-3.7,1-5.4c0.7-1.7,1.6-3.2,2.9-4.4c1.2-1.3,2.6-2.3,4.2-3
						C1208.9,668.5,1210.7,668.2,1212.4,668.2 M1212.4,667.4c-7.7,0-13.9,6.6-13.9,14.7c0,8.2,6.2,14.7,13.9,14.7
						c7.7,0,13.9-6.6,13.9-14.7S1220.1,667.4,1212.4,667.4L1212.4,667.4z					">
<animate  accumulate="none" additive="replace" attributeName="fill" begin="0s;bub29.end;bub30.end;" calcMode="linear" dur="10s" fill="remove" id="color2" restart="always" values="transparent;">
							</animate>
					</path>
					
						<animateTransform  accumulate="none" additive="replace" attributeName="transform" attributeType="XML" begin="10s;bub30.end+10s;" calcMode="linear" dur="5s" fill="remove" id="bub29" restart="always" type="translate" values="0,0;0,-1000">
						</animateTransform>
					
						<animateTransform  accumulate="none" additive="replace" attributeName="transform" attributeType="XML" begin="bub29.end+10s" calcMode="linear" dur="5s" fill="remove" id="bub30" restart="always" type="translate" values="0,0;0,-1000">
						</animateTransform>
				</g>
			</g>
			<g class="st1">
				<g>
					
						<linearGradient id="SVGID_5_" gradientUnits="userSpaceOnUse" x1="1213.5752" y1="-290.1028" x2="1224.8895" y2="-290.1028" gradientTransform="matrix(1 0 0 1 0 994)">
						<stop  offset="0" style="stop-color:#FFFFFF"/>
						<stop  offset="1" style="stop-color:#29ABE2"/>
					</linearGradient>
					<path class="st6" d="M1219.2,710.3c-1.5,0-2.9-0.7-4-1.9c-1.1-1.3-1.7-2.8-1.7-4.6c0-1.8,0.6-3.4,1.7-4.6
						c1.1-1.2,2.5-1.9,4-1.9c1.5,0,2.9,0.7,4,1.9c1.1,1.3,1.6,2.8,1.6,4.6c0,1.8-0.6,3.4-1.6,4.6
						C1222.2,709.6,1220.7,710.3,1219.2,710.3z					">
<animate  accumulate="none" additive="replace" attributeName="fill" begin="0s;bub31.end;bub32.end;" calcMode="linear" dur="10s" fill="remove" id="color2" restart="always" values="transparent;">
							</animate>
					</path>
					<path class="st3" d="M1219.2,697.7c0.7,0,1.5,0.1,2.1,0.5c0.6,0.4,1.3,0.8,1.8,1.3c0.5,0.6,0.9,1.3,1.2,2
						c0.3,0.8,0.4,1.6,0.4,2.5s-0.1,1.7-0.4,2.5c-0.3,0.8-0.7,1.4-1.2,2c-0.5,0.6-1.1,1.1-1.8,1.3c-0.7,0.4-1.4,0.5-2.1,0.5
						c-0.7,0-1.5-0.1-2.1-0.5c-0.7-0.4-1.3-0.8-1.8-1.3s-0.9-1.3-1.2-2c-0.3-0.8-0.4-1.6-0.4-2.5s0.1-1.7,0.4-2.5
						c0.3-0.8,0.7-1.4,1.2-2c0.5-0.6,1.1-1.1,1.8-1.3C1217.8,697.9,1218.5,697.7,1219.2,697.7 M1219.2,697.3c-3.2,0-5.8,2.9-5.8,6.6
						c0,3.6,2.6,6.6,5.8,6.6c3.2,0,5.8-2.9,5.8-6.6C1225.1,700.3,1222.5,697.3,1219.2,697.3L1219.2,697.3z					">
<animate  accumulate="none" additive="replace" attributeName="fill" begin="0s;bub31.end;bub32.end;" calcMode="linear" dur="10s" fill="remove" id="color2" restart="always" values="transparent;">
							</animate>
					</path>
					
						<animateTransform  accumulate="none" additive="replace" attributeName="transform" attributeType="XML" begin="10s;bub32.end+10s;" calcMode="linear" dur="5.5s" fill="remove" id="bub31" restart="always" type="translate" values="0,0;0,-1000">
						</animateTransform>
					
						<animateTransform  accumulate="none" additive="replace" attributeName="transform" attributeType="XML" begin="bub31.end+10s" calcMode="linear" dur="5.5s" fill="remove" id="bub32" restart="always" type="translate" values="0,0;0,-1000">
						</animateTransform>
				</g>
			</g>
			<g class="st1">
				<g>
					
						<linearGradient id="SVGID_6_" gradientUnits="userSpaceOnUse" x1="1181.7239" y1="-274.201" x2="1190.7095" y2="-274.201" gradientTransform="matrix(1 0 0 1 0 994)">
						<stop  offset="0" style="stop-color:#FFFFFF"/>
						<stop  offset="1" style="stop-color:#29ABE2"/>
					</linearGradient>
					<path class="st7" d="M1186.2,724.8c-1.2,0-2.3-0.6-3.2-1.5c-0.8-1-1.3-2.2-1.3-3.6c0-1.4,0.5-2.7,1.3-3.6
						c0.8-0.9,2-1.5,3.2-1.5c1.2,0,2.3,0.6,3.2,1.5c0.8,1,1.3,2.2,1.3,3.6c0,1.4-0.5,2.7-1.3,3.6
						C1188.6,724.4,1187.4,724.8,1186.2,724.8z					">
<animate  accumulate="none" additive="replace" attributeName="fill" begin="0s;bub33.end;bub34.end;" calcMode="linear" dur="10s" fill="remove" id="color2" restart="always" values="transparent;">
							</animate>
					</path>
					<path class="st3" d="M1186.2,714.8c0.6,0,1.2,0.1,1.7,0.4c0.6,0.3,1,0.6,1.4,1.1s0.7,1,1,1.6c0.3,0.6,0.4,1.3,0.4,2
						c0,0.7-0.1,1.3-0.4,2c-0.2,0.6-0.6,1.1-1,1.6c-0.4,0.4-0.8,0.8-1.4,1.1c-0.6,0.3-1.1,0.4-1.7,0.4c-0.6,0-1.2-0.1-1.7-0.4
						c-0.6-0.3-1-0.6-1.4-1.1s-0.7-1-1-1.6c-0.2-0.6-0.4-1.3-0.4-2c0-0.7,0.1-1.3,0.4-2c0.2-0.6,0.6-1.1,1-1.6
						c0.4-0.4,0.8-0.8,1.4-1.1C1185.1,715,1185.6,714.8,1186.2,714.8 M1186.2,714.5c-2.6,0-4.6,2.3-4.6,5.3s2,5.3,4.6,5.3
						c2.6,0,4.6-2.3,4.6-5.3S1188.8,714.5,1186.2,714.5L1186.2,714.5z					">
<animate  accumulate="none" additive="replace" attributeName="fill" begin="0s;bub33.end;bub34.end;" calcMode="linear" dur="10s" fill="remove" id="color2" restart="always" values="transparent;">
							</animate>
					</path>
					
						<animateTransform  accumulate="none" additive="replace" attributeName="transform" attributeType="XML" begin="10s;bub34.end+10s;" calcMode="linear" dur="4s" fill="remove" id="bub33" restart="always" type="translate" values="0,0;0,-1000">
						</animateTransform>
					
						<animateTransform  accumulate="none" additive="replace" attributeName="transform" attributeType="XML" begin="bub33.end+10s" calcMode="linear" dur="4s" fill="remove" id="bub34" restart="always" type="translate" values="0,0;0,-1000">
						</animateTransform>
				</g>
			</g>
			<g class="st1">
				<g>
					
						<linearGradient id="SVGID_7_" gradientUnits="userSpaceOnUse" x1="1202.1702" y1="-269.1572" x2="1207.566" y2="-269.1572" gradientTransform="matrix(1 0 0 1 0 994)">
						<stop  offset="0" style="stop-color:#FFFFFF"/>
						<stop  offset="1" style="stop-color:#29ABE2"/>
					</linearGradient>
					<path class="st8" d="M1204.9,728.4c-0.7,0-1.4-0.4-1.9-1.1s-0.8-1.5-0.8-2.5c0-0.9,0.3-1.8,0.8-2.5c0.5-0.6,1.2-1.1,1.9-1.1
						c0.7,0,1.4,0.4,1.9,1.1s0.8,1.5,0.8,2.5c0,0.9-0.3,1.8-0.8,2.5S1205.6,728.4,1204.9,728.4z					">
<animate  accumulate="none" additive="replace" attributeName="fill" begin="0s;bub35.end;bub36.end;" calcMode="linear" dur="10s" fill="remove" id="color2" restart="always" values="transparent;">
							</animate>
					</path>
					<path class="st3" d="M1204.9,721.5c0.4,0,0.7,0.1,1.1,0.3c0.4,0.1,0.6,0.4,0.8,0.8c0.2,0.3,0.4,0.7,0.6,1.1s0.2,0.9,0.2,1.3
						c0,0.4-0.1,0.9-0.2,1.3c-0.1,0.4-0.4,0.8-0.6,1.1c-0.2,0.3-0.5,0.6-0.8,0.8c-0.4,0.2-0.7,0.3-1.1,0.3c-0.4,0-0.7-0.1-1.1-0.3
						c-0.4-0.2-0.6-0.4-0.8-0.8c-0.2-0.3-0.4-0.7-0.6-1.1c-0.1-0.4-0.2-0.9-0.2-1.3c0-0.4,0.1-0.9,0.2-1.3c0.1-0.4,0.4-0.8,0.6-1.1
						c0.2-0.3,0.5-0.6,0.8-0.8C1204.2,721.6,1204.5,721.5,1204.9,721.5 M1204.9,721.3c-1.5,0-2.8,1.6-2.8,3.6c0,2,1.3,3.6,2.8,3.6
						s2.8-1.6,2.8-3.6C1207.6,722.9,1206.4,721.3,1204.9,721.3L1204.9,721.3z					">
<animate  accumulate="none" additive="replace" attributeName="fill" begin="0s;bub35.end;bub36.end;" calcMode="linear" dur="10s" fill="remove" id="color2" restart="always" values="transparent;">
							</animate>
					</path>
					
						<animateTransform  accumulate="none" additive="replace" attributeName="transform" attributeType="XML" begin="10s;bub36.end+10s;" calcMode="linear" dur="4.6s" fill="remove" id="bub35" restart="always" type="translate" values="0,0;0,-1000">
						</animateTransform>
					
						<animateTransform  accumulate="none" additive="replace" attributeName="transform" attributeType="XML" begin="bub35.end+10s" calcMode="linear" dur="4.6s" fill="remove" id="bub36" restart="always" type="translate" values="0,0;0,-1000">
						</animateTransform>
				</g>
			</g>
		</g>
		<g id="greenbigflower">
			<g>
				<path class="st9" d="M820.5,239.2c-0.2,0-0.5,0-0.7,0c-9.1-0.6-14.9-12.3-16.4-15.7c-3.6-2.4-5.9-5.5-6.7-9.2
					c-1.2-5.3,0.9-10.2,1.8-11.9c0.2-6.3,2.4-10.8,6.5-13.3c8.2-5,21.2,0.5,24,1.8c5.4,0.1,9.3,2,11.5,5.6c5.8,9.5-2.8,27.1-3.8,29
					v0.1C831.7,234.7,826.2,239.2,820.5,239.2z M807.8,220.9c1.5,3.6,6.5,13,12.4,13.3c4.8,0.3,9.3-5.7,12.2-10.9
					c2.4-4.7,7.7-18.1,4-24.1c-1.3-2.2-3.9-3.3-7.8-3.3l0,0H828l-0.5-0.3c-3.6-1.8-14.2-5.7-19.8-2.3c-2.6,1.6-4,4.9-4.1,9.7v0.7
					l-0.4,0.6c-0.6,1-5.5,9.6,3.6,15.3l0.7,0.4L807.8,220.9z"/>
				<path class="st9" d="M813.7,335.7c-23.5,0-41.2-34.9-42.1-36.6l-0.3-0.5l-0.1-0.5c-1.5-6.2,1-13.3,4.6-19.5
					c-8.4,5.1-16.7,7.8-18.2,8.3c-23.8,9.3-41.1-2.4-47.4-10.3c-21.6-17.3-15.3-43.3-8.5-55.5c1.8-9.8,7.2-14.5,11.4-16.8
					c14.9-7.8,37.1,2.5,39.6,3.7l0.3,0.1c9.4,5.3,15.4-1.9,16.5-3.4l0.5-0.6l0.6-0.5c0.5-0.3,0.6-0.6,0.7-0.7c0-1.2-3-4.6-6.8-7.1
					c-23.3-5-27.6-29.9-26.6-42.8c0-27.4,11-43.4,20.3-52.1c8.8-8.2,17.8-11.4,20.3-12.2c19.6-10.7,39.1,7,42.8,10.7
					c15.8,9.1,2.1,42-2.4,51.6c2.3,14.7,6,15.6,6,15.6c2.7,0.5,9.4-6.4,14-14.4c9.3-32,26.7-49.8,27.5-50.6l0.4-0.4l0.5-0.3
					c11.1-6.7,21.9-8.7,32.2-5.8c17.1,4.7,26,21.1,26.3,21.8l0.1,0.2c10.7,23,7.4,40.7,2.7,51.5c-4.4,10.2-10.7,16.3-12.6,17.9
					c-11,14.1-37.8,13.9-43.7,13.6c-4,1.5-5.1,2.8-5.4,3.2c0.5,1.3,3.7,3.8,7,5.4c18.7-1,40.8,4.7,41.8,5h0.1
					c8.2,2.4,13.9,7.1,17.1,14.1c7.3,16.2-2.4,39-4,42.5c-9.4,33.5-38.1,34.1-45.1,33.7c-4.8,1.9-9.7,1.7-14.2-0.5
					c-15.3-7.5-22.5-37.1-23.5-41.5c-3.9-12.2-7.2-12.6-7.3-12.6c-1-0.1-3.3,2.1-4.5,4.1c-6.2,14.7,12.1,33.6,12.3,33.8l0.9,0.9
					l0.4,1.2c3.4,11.5,2.7,21.4-2.2,29.3c-6.7,10.7-18.8,14-22,14.7C820.6,335,817.1,335.7,813.7,335.7z M780.9,295.1
					c2.5,4.7,21.2,37.9,39.5,28.9l0.7-0.3l0.7-0.1c0.1,0,10.8-2,15.9-10.3c3.2-5.1,3.6-11.9,1.4-20c-4.3-4.7-21.6-25.3-13.3-44.1
					l0.2-0.4c0.6-1,5.9-10.2,14.3-9.4c6.6,0.7,11.8,7.1,15.9,19.8l0.1,0.5c2.5,11.3,9.6,30.8,18.2,35c2.2,1.1,4.4,1,6.8-0.1l1.3-0.6
					l1.5,0.2c1.1,0.1,27.5,3.2,35.7-26.7l0.1-0.4l0.2-0.4c2.8-6,9-23.8,4.1-34.5c-1.9-4.3-5.4-7.1-10.7-8.6
					c-1.3-0.3-22.9-5.8-39.8-4.6l-1.2,0.1l-1.1-0.5c-3.4-1.5-14.4-7-14.1-15.5c0.3-7.9,9.8-11.4,13-12.5l1-0.4l1,0.1
					c7.7,0.5,29.3-0.4,36.4-10l0.4-0.5l0.5-0.4c1-0.8,24.7-20.7,7.6-57.6c-0.7-1.2-7.8-13.4-20.2-16.8c-7.3-2-15.3-0.5-23.7,4.4
					c-2.6,2.8-16.9,19.3-24.7,46.4l-0.2,0.6l-0.3,0.5c-2.1,3.7-13,22-24.9,19.8c-9.9-1.9-12.9-15.4-14.3-25.5l-0.2-1.5l0.7-1.4
					c6.9-14.4,13.3-36.9,6.8-40.1l-0.8-0.4l-0.6-0.6c-0.2-0.2-17.1-17.6-31.7-9.2l-0.6,0.3l-0.6,0.2c-1.4,0.4-33.9,9.8-33.8,55v0.2
					v0.2c-0.1,1.2-2,28.6,19.4,32.5l0.9,0.2l0.8,0.5c2,1.2,11.9,7.8,12.2,15.8c0.1,3.3-1.3,6.3-4.1,8.5c-4.4,5.6-15.4,13.2-28.9,5.7
					c-5.6-2.7-21.7-8.4-30.5-3.8c-3.5,1.8-5.5,5.2-6.3,10.4l-0.1,0.9l-0.5,0.8c-0.6,1.1-15.4,27.1,6,43.7l0.5,0.4l0.4,0.5
					c0.5,0.7,13,16.6,36.3,7.4l0.4-0.1c7.9-2.4,28.8-11.5,31-23.9l0.9-5.3l5.2,1.3c0.7,0.2,6.5,1.7,8.4,7c0.9,2.4,1.1,6.3-2.6,11.1
					l-0.2,0.3l-0.3,0.3C789.5,275.2,779.8,288.1,780.9,295.1z"/>
				
					<animateTransform  accumulate="none" additive="replace" attributeName="transform" attributeType="XML" calcMode="linear" dur="80s" fill="remove" from="360 820 239" repeatCount="indefinite" restart="always" to="0 820 239" type="rotate">
					</animateTransform>
			</g>
		</g>
		<g id="mellemback">
			<path class="st10" d="M610.5,635.8c0,0,99-204,150.9-8.9L610.5,635.8z"/>
			<path class="st10" d="M1230,595.1c0,0,151-332.1,200.3-29L1230,595.1z"/>
			<path class="st10" d="M79.1,580.3c0,0,175-323.9,320.1,11.7L79.1,580.3z"/>
			<path class="st10" d="M1612,619.5c0,0,112.4-257.4,134.2-29.3L1612,619.5z"/>
			<path class="st10" d="M833,594.1c0,0,147.3-339.3,367.4-13.6L833,594.1z"/>
		</g>
		<g id="goldflower">
			<g class="st11">
				<g>
					<path class="st12" d="M322.7,160.3c-2.8,0-5-0.9-6.4-2.6c-3-3.6-1.1-9.6-0.2-11.7c-0.7-5.5,3.1-8.5,6.3-9.4
						c3.1-2.5,5.7-2.5,7.4-2c4.7,1.3,7.1,7.5,7.7,9.5c2.2,2.7,2.2,5.2,1.7,6.8c-1.6,5.5-10.1,8.2-11.8,8.7h-0.1
						C325.7,160.1,324.1,160.3,322.7,160.3z M321,147.4c-1,2.2-1.8,5.9-0.8,7.1c0.7,0.9,2.9,1,5.9,0.3c3-0.9,7.7-3.2,8.3-5.3
						c0.1-0.3,0.3-1-1-2.5l-0.4-0.4l-0.2-0.6c-0.5-1.9-2.4-6-4.4-6.6c-0.9-0.2-1.9,0.2-3.2,1.4l-0.5,0.5l-0.7,0.1
						c-1.1,0.2-3.5,1.1-2.9,4.5l0.1,0.8L321,147.4z"/>
					<path class="st12" d="M330.5,209.7c-7.9,0-13.8-4.4-16.8-8.2c-2.4-1.4-4.1-3.5-5-6.3c-0.6-2.2-0.6-4.5-0.3-6.9
						c-2.6,2.9-5.7,4.6-9.1,5.3c-6.4,1.2-11.7-2-13.5-3.3c-12-5.5-9.4-22.7-5.9-32.1l0.2-0.5l0.3-0.5c0.8-1.3,1.9-2.3,3.1-3.1
						c-1.2-0.6-2.1-1.1-2.6-1.4c-11.5-5.9-13.3-16.5-12.6-22c-0.8-14.2,10.6-20.9,17.6-22.8c4.6-2.8,8.5-2.3,11.1-1.4
						c8.4,3,12.1,14.4,12.8,16.6l0.1,0.3c0.1,0.6,0.5,2.3,2.4,2.5c0-0.3,0-0.7-0.1-1c-5.9-10.9,1.8-21.3,6.9-25.5
						c14.9-14.1,30.4-10.7,37-6.7c9.2,3.4,11.3,14,11.2,20.3c1.8,9.7-12.5,15.7-19,18c-1,1.3-1.6,2.3-1.9,3c1.4,0.1,3.3-0.1,5.1-0.5
						c14.1-7.1,25.9-6.7,26.4-6.7h0.6l0.6,0.2c6.3,1.9,10.9,5.4,13.4,10.4c4.2,8.2,1.4,17.2,1.1,18.1l-0.1,0.3
						c-7.2,17.9-21.7,21.1-28.9,20.2c-4.3,0.2-8.5-1.7-12-4.2c3.1,4.5,5.2,8.5,5.4,8.8l0.1,0.1c2.1,4.3,2.3,8.6,0.5,12.7
						c-3.6,8.3-14.2,12.5-16.8,13.3C337.7,208.9,333.9,209.7,330.5,209.7z M318.4,159c2.6,0,5.5,0.8,7.3,3.2
						c3.9,5-0.1,12.3-1.4,14.7l-0.2,0.4c-3.4,5.1-6.5,12.3-5.7,15.1c0.1,0.2,0.1,0.4,0.6,0.6l1.4,0.6l0.8,1.2c1,1.4,6.5,8.2,16.4,3
						l0.4-0.2l0.4-0.1c2.3-0.8,9.4-3.8,11.1-7.9c0.4-0.9,0.7-2.2-0.3-4.3c-0.4-0.7-5-9.4-10.2-14.4l-1-0.9l-0.4-1.2
						c-0.9-2.6-2.5-9.1,1.7-12.7c2.8-2.3,6.5-2.3,11.2,0.3l0.9,0.5l0.6,0.8c2.8,3.6,8.7,8.7,12.1,8.4l0.7-0.1l0.7,0.1
						c1.2,0.2,12.5,1.2,18.6-13.8c0.2-0.7,1.7-6.1-0.5-10.3c-1.2-2.4-3.4-4.1-6.7-5.2c-2.3,0-11.2,0.6-21.4,5.8l-0.5,0.3l-0.6,0.1
						c-3.9,0.9-13.4,2.5-17.2-3.4c-3.8-6,2-13.3,4.2-16.1l1-1.2l1.5-0.5c6.2-1.9,12.6-5.5,13.6-7.4l-0.1-0.5l0.1-0.9
						c0-0.1,0.4-9.4-4.9-11.1l-0.6-0.2l-0.6-0.4c-0.4-0.3-12-7.3-25.4,5.4l-0.3,0.3c-0.3,0.3-8.3,6.9-4.3,13.5l0.5,0.8l0.2,0.9
						c0.4,2.4,1.1,8.3-2.3,11.6c-1.6,1.6-3.8,2.3-6.1,2c-4.6,0.2-11.5-2.2-13.4-10.1c-1.1-3.5-3.8-9-6.5-9.9
						c-0.3-0.1-1.1-0.4-2.9,0.8l-0.8,0.5l-0.9,0.2c-1.2,0.3-11.5,3-10.6,13.1l0.1,0.7l-0.1,0.7c-0.1,0.7-1,7.9,7.3,12l0.3,0.2
						c4.1,2.5,11.6,5.2,14.6,3.2l4.6-3l2.6,4.8c1,1.9,1.7,5,0.2,7.6c-0.7,1.3-2.5,3.6-6.7,4h-0.4h-0.4c-5-0.3-10.1,0.7-11.4,1.7
						c-1.4,4.4-4.4,16.7,1.2,18.9l0.7,0.3l0.6,0.5c0.8,0.6,3.6,2.2,6.1,1.7c1.8-0.4,3.5-1.7,5-4.1c0.4-4.3,2.5-16.8,12.4-20.2
						l0.5-0.1C316.3,159.2,317.3,159,318.4,159z M316.6,170c-1.2,1.1-2.1,2.9-2.8,4.8c0.8-1.3,1.4-2.4,1.8-3S316.3,170.5,316.6,170z
						 M344,164.5L344,164.5z"/>
					
						<animateTransform  accumulate="none" additive="replace" attributeName="transform" attributeType="XML" calcMode="linear" dur="50s" fill="remove" from="0 322 160" repeatCount="indefinite" restart="always" to="360 322 160" type="rotate">
						</animateTransform>
				</g>
			</g>
		</g>
		<g id="homes">
			<g>
				<path class="st13" d="M584.7,555.6c0,0-3.5,3.4-4.5,2.3c-1-1.1-2.3-13.4-1.2-16.4c1-3-4.2-0.6-4.2,0s-3.3,3.6-2.8,4.9
					c0.5,1.3,3.5,8.1,2.9,11.7s1.2,8.3,3.4,8.1s4.6-3,5.5-3S584.7,555.6,584.7,555.6z"/>
				<path class="st13" d="M606.3,527c0,0-4.3-2.1-5.4-1.5c-1,0.6,1.6-4,0-7.4c0,0-6.1,3.8-5.2-1.7c0.9-5.5,1.6-14,1.6-14
					s2.9-5.5,7.1-3.4c0,0-3.6,12.5-2.1,13.8c0,0,0-2.5,5.5-2.1c0,0,2.1-1.7,0.9,5.1C608.8,515.7,605.3,524.8,606.3,527z"/>
				<path class="st13" d="M608.8,602.5c0,0,0.3-7,0-9.6s0.2-3,0-4c-0.2-1.1-0.1-2.1-0.1-3.4c-0.1-1.3-0.2-1.9,0.1-3.6
					s-0.1-2.8,0-4.7c0-1.9-0.7-3,0.2-4s0.2-4.3,0-5.3c-0.2-1.1-1.4-1.7-0.4-3s2.4-4,2-7.9c0,0,0.2-4,1.4-7s1.2-4.7,1.7-6.2
					s0.7-4,1.9-5.7s1.2-3,0-5.1s-6.2-5.1-6.2-5.1s-2.4-0.4-3.1-1.7c-0.7-1.3-3.3-1.5-5.5-1.3c-2.3,0.2-3.1,0.5-5.9-0.1
					c-2.8-0.6-8.7,1.1-9.2,3.3s0.5,2.6,0,5.7s-1.6,3.2-1.2,7.7s0.4,7-0.1,9.4c-0.5,2.3-0.4,0.4,0,6.4s-1.4,6.4-0.3,10.6
					c1.1,4.3,2.5,7,2.6,10.6c0.2,3.6,0.7,4.7,1.2,7.9s-0.9,6.2,0.5,10.8c1.4,4.7,1.4,4.7,1.4,4.7L608.8,602.5z"/>
				<path class="st14" d="M585.9,531.3c0,0,1,0,2.9-1s2.4,0,2.4,0s1.9,0.5,2.4,0.5s1.9,0,1.9,0h1.9h1.5c0,0,0,0.5,1,0s1-0.5,1.9,0
					c1,0.5,1.9,0.5,2.4,0.5s1-0.5,1.9-0.5s1-0.5,1.9,0s0-0.5,1.5,0.5s1.9,1,2.9,0.5s1-1.5,1.9-0.5c0,0,0.5,0.5,0,0.5l-0.5-0.5
					c0,0-0.5,0-1,0.5s-1,0.5-1,0.5s-1,0.5-1.5,0c0,0-1.5-1-1.9-1c0,0-0.7-0.4-1.2-0.1c-0.4,0.2-1-0.1-1.3,0c0,0-1.3,0.1-1.6,0.5
					c0,0-2.7,0-2.8-0.3c0,0-0.8-0.8-1.1-0.6s-0.9,0.9-1.4,0.7s-1.1-0.3-1.5-0.3s-4.5,0.4-5.1,0.1c-0.6-0.2-1-0.2-1.4-0.6
					c-0.5-0.4-0.5-0.6-1.2-0.4c-0.7,0.1-0.4,0.6-1.4,0.8s-1.3,0.5-2.1,0.5S585.5,531.4,585.9,531.3z"/>
				<ellipse class="st15" cx="603.3" cy="544.1" rx="4.1" ry="6.6"/>
				<ellipse class="st15" cx="602" cy="574.2" rx="2.9" ry="3.3"/>
				<path class="st16" d="M607.4,540.3c-1.4-1.7-2.7-5.3-4.1-4.7c-1.4,0.6-3.7,0-4,2.3s-0.3,2.3-0.3,2.3s-1,6.8,0,7.7s0.2,2.8,3.1,3
					c2.9,0.2,4.9,0.2,5.4-2.6C607.9,545.6,608.8,542,607.4,540.3z M606.1,547.1c-0.3,1.7-1.5,1.7-3.4,1.6c-1.8-0.1-1.3-1.3-2-1.9
					s0-4.8,0-4.8s0,0,0.2-1.5s1.6-1.1,2.5-1.5s1.7,1.9,2.6,2.9S606.4,545.4,606.1,547.1z"/>
				<path class="st16" d="M605.3,572.4c0,0-3.6-6-6.6,0c0,0-1.2,6.9,3.8,5.8C607.4,577.2,605.3,572.4,605.3,572.4z M602.3,577.4
					c-3.8,0.8-2.9-4.5-2.9-4.5c2.3-4.6,5.1,0,5.1,0S606.1,576.5,602.3,577.4z"/>
				
					<animateTransform  accumulate="none" additive="replace" attributeName="transform" attributeType="XML" begin=".1" calcMode="linear" dur="1s" fill="remove" id="lines" repeatCount="indefinite" restart="always" type="translate" values="0,1;0,-1;0,1;0,1;-1,0;1,0,0,1;0,-1;0,1;0,1;-1,0;1,0">
					</animateTransform>
			</g>
			<g id="Layer_13">
			</g>
			<g id="Layer_14">
				<g>
					<path class="st13" d="M698.6,550.8c0,0-5.9,5.8-7.7,4s-3.8-22.9-2.1-28c1.8-5.1-7.1-1.1-7.1,0s-5.6,6.2-4.7,8.4
						c0.9,2.2,5.9,13.8,5,20s2,14.2,5.7,13.8s7.9-5.1,9.4-5.1S698.6,550.8,698.6,550.8z"/>
					<path class="st13" d="M735.6,501.8c0,0-7.4-3.6-9.2-2.5s2.7-6.9,0-12.7c0,0-10.4,6.5-8.9-2.9c1.5-9.5,2.7-24,2.7-24
						s5-9.5,12.1-5.8c0,0-6.2,21.4-3.5,23.6c0,0,0-4.3,9.5-3.6c0,0,3.5-2.9,1.5,8.7C739.7,482.5,733.8,498.1,735.6,501.8z"/>
					<path class="st13" d="M739.8,630.9c0,0,0.6-12,0-16.4s0.3-5.1,0-6.9c-0.3-1.8-0.1-3.6-0.2-5.8s-0.3-3.3,0.2-6.2s-0.1-4.7-0.1-8
						s-1.2-5.1,0.3-6.9c1.5-1.8,0.3-7.3,0-9.1s-2.4-2.9-0.7-5.1c1.7-2.2,4-6.9,3.4-13.5c0,0,0.3-6.9,2.4-12s2.1-8,3-10.6
						c0.9-2.5,1.2-6.9,3.3-9.8c2.1-2.9,2.1-5.1,0-8.7c-2.1-3.6-10.6-8.7-10.6-8.7s-4.1-0.7-5.3-2.9s-5.6-2.5-9.5-2.2
						c-3.8,0.4-5.3,0.8-10.1-0.1s-14.8,1.9-15.7,5.6s0.9,4.4,0,9.8c-0.9,5.5-2.7,5.5-2.1,13.1c0.6,7.6,0.7,12-0.1,16
						s-0.7,0.7,0,10.9s-2.4,10.9-0.6,18.2s4.2,12,4.5,18.2s1.2,8,2.1,13.5s-1.5,10.6,0.9,18.6s2.4,8,2.4,8L739.8,630.9z"/>
					<path class="st14" d="M700.6,509.3c0,0,1.7,0,5-1.7s4.2,0,4.2,0s3.3,0.9,4.2,0.9s3.3,0,3.3,0h3.3h2.5c0,0,0,0.9,1.7,0
						s1.7-0.9,3.3,0s3.3,0.9,4.2,0.9s1.7-0.9,3.3-0.9s1.7-0.9,3.3,0s0-0.9,2.5,0.9c2.5,1.7,3.3,1.7,5,0.9s1.7-2.6,3.3-0.9
						c0,0,0.8,0.9,0,0.9l-0.8-0.9c0,0-0.8,0-1.7,0.9s-1.7,0.9-1.7,0.9s-1.7,0.9-2.5,0c0,0-2.5-1.7-3.3-1.7c0,0-1.2-0.6-2-0.2
						c-0.7,0.4-1.7-0.2-2.2,0c0,0-2.3,0.1-2.8,0.8c0,0-4.6,0.1-4.7-0.6c0,0-1.3-1.4-1.9-1c-0.6,0.3-1.5,1.5-2.4,1.1
						c-0.9-0.3-1.9-0.6-2.5-0.6s-7.7,0.6-8.7,0.2s-1.7-0.3-2.4-0.9c-0.8-0.6-0.9-1-2.1-0.8s-0.7,1-2.4,1.4c-1.7,0.3-2.2,0.9-3.5,0.9
						C700.6,509.7,700.1,509.4,700.6,509.3z"/>
					<ellipse class="st15" cx="730.3" cy="531" rx="7" ry="11.3"/>
					<ellipse class="st15" cx="728.2" cy="582.5" rx="4.9" ry="5.6"/>
					<path class="st16" d="M737.4,524.5c-2.4-2.9-4.5-9.1-7-8s-6.3,0-6.9,4c-0.6,4-0.6,4-0.6,4s-1.8,11.6,0,13.1s0.3,4.7,5.3,5.1
						c5,0.4,8.3,0.4,9.2-4.4C738.3,533.6,739.7,527.4,737.4,524.5z M735.2,536.2c-0.6,3-2.6,3-5.7,2.7c-3.1-0.2-2.2-2.3-3.3-3.2
						s0-8.2,0-8.2s0,0,0.4-2.5s2.8-1.8,4.3-2.5s2.9,3.2,4.4,5C736.7,529.4,735.7,533.2,735.2,536.2z"/>
					<path class="st16" d="M733.8,579.5c0,0-6.2-10.2-11.3,0c0,0-2.1,11.8,6.4,9.9C737.4,587.6,733.8,579.5,733.8,579.5z M728.6,588
						c-6.5,1.4-4.9-7.6-4.9-7.6c3.9-7.8,8.7,0,8.7,0S735.1,586.6,728.6,588z"/>
					
						<animateTransform  accumulate="none" additive="replace" attributeName="transform" attributeType="XML" begin=".1" calcMode="linear" dur="0.5s" fill="remove" id="lines" repeatCount="indefinite" restart="always" type="translate" values="0,1;0,-2;0,1;0,1;-1,0;2,0,0,1;0,-2;0,1;0,1;-1,0;2,0">
						</animateTransform>
				</g>
			</g>
			<g id="Layer_15">
				<g>
					<path class="st13" d="M1157.2,465.1c0,0-12.1,8-15.7,5.5s-7.9-31.5-4.2-38.5c3.6-7-14.5-1.5-14.5,0s-11.5,8.6-9.7,11.5
						c1.8,3,12.1,18.9,10.3,27.4c-1.8,8.5,4,19.5,11.7,19s16.1-7,19.1-7C1157.2,483.1,1157.2,465.1,1157.2,465.1z"/>
					<path class="st13" d="M1232.9,397.8c0,0-15.1-5-18.7-3.5s5.4-9.5,0-17.5c0,0-21.2,9-18.1-4c3-13,5.4-33,5.4-33s10.3-13,24.8-8
						c0,0-12.7,29.3-7.3,32.4c0,0,0-5.9,19.3-4.9c0,0,7.3-4,3,12C1241.3,371.3,1229.3,392.8,1232.9,397.8z"/>
					<path class="st13" d="M1241.5,575.1c0,0,1.2-16.5,0-22.5s0.6-7,0-9.5s-0.2-5-0.4-8c-0.2-3-0.7-4.5,0.5-8.5s-0.2-6.5-0.1-11
						s-2.5-7,0.6-9.5s0.5-10,0-12.5s-4.9-4-1.5-7s8.2-9.5,7-18.5c0,0,0.6-9.5,4.8-16.5c4.2-7,4.2-11,6-14.5s2.4-9.5,6.6-13.5
						s4.2-7,0-12s-21.8-12-21.8-12s-8.5-1-10.9-4s-11.5-3.5-19.3-3c-7.9,0.5-10.9,1.2-20.6-0.2s-30.2,2.7-32,7.7s1.8,6,0,13.5
						s-5.4,7.5-4.2,18c1.2,10.5,1.3,16.5-0.2,22c-1.6,5.5-1.5,1,0,15s-4.9,15-1.1,25s8.6,16.5,9.2,25s2.4,11,4.2,18.5
						c1.8,7.5-3,14.5,1.8,25.5s4.8,11,4.8,11L1241.5,575.1z"/>
					<path class="st14" d="M1161.5,408.1c0,0,3.4,0,10.2-2.4c6.8-2.4,8.5,0,8.5,0s6.8,1.2,8.5,1.2s6.8,0,6.8,0h6.8h5.1
						c0,0,0,1.2,3.4,0s3.4-1.2,6.8,0s6.8,1.2,8.5,1.2s3.4-1.2,6.8-1.2s3.4-1.2,6.8,0s0-1.2,5.1,1.2c5.1,2.4,6.8,2.4,10.2,1.2
						c3.4-1.2,3.4-3.6,6.8-1.2c0,0,1.7,1.2,0,1.2l-1.7-1.2c0,0-1.7,0-3.4,1.2c-1.7,1.2-3.4,1.2-3.4,1.2s-3.4,1.2-5.1,0
						c0,0-5.1-2.4-6.8-2.4c0,0-2.5-0.8-4-0.3c-1.5,0.6-3.4-0.3-4.6,0c0,0-4.7,0.2-5.6,1.2c0,0-9.3,0.1-9.7-0.8c0,0-2.7-1.9-3.8-1.4
						c-1.2,0.4-3,2-4.9,1.6s-3.8-0.8-5.2-0.8s-15.8,0.9-17.8,0.3s-3.4-0.4-5-1.3s-1.9-1.3-4.4-1s-1.5,1.4-5,1.9
						c-3.5,0.4-4.6,1.2-7.2,1.3C1161.5,408.7,1160.3,408.3,1161.5,408.1z"/>
					<ellipse class="st15" cx="1222.2" cy="437.9" rx="14.4" ry="15.5"/>
					<ellipse class="st15" cx="1217.9" cy="508.7" rx="10.1" ry="7.7"/>
					<path class="st16" d="M1236.6,429c-4.8-4-9.3-12.5-14.3-11s-12.9,0-14.1,5.5s-1.2,5.5-1.2,5.5s-3.6,16,0,18s0.6,6.5,10.9,7
						s16.9,0.5,18.7-6C1238.4,441.5,1241.4,433,1236.6,429z M1232.1,445c-1.1,4.1-5.3,4.1-11.7,3.8c-6.4-0.3-4.5-3.1-6.8-4.4
						s0-11.3,0-11.3s0,0,0.8-3.4s5.7-2.5,8.8-3.4c3.2-0.9,5.9,4.4,9,6.9C1235.1,435.7,1233.2,441,1232.1,445z"/>
					<path class="st16" d="M1229.3,504.5c0,0-12.6-14-23.1,0c0,0-4.2,16.1,13.1,13.6C1236.6,515.7,1229.3,504.5,1229.3,504.5z
						 M1218.7,516.1c-13.3,1.9-10.1-10.5-10.1-10.5c8.1-10.8,17.7,0,17.7,0S1232,514.2,1218.7,516.1z"/>
					
						<animateTransform  accumulate="none" additive="replace" attributeName="transform" attributeType="XML" begin=".1" calcMode="linear" dur="0.2s" fill="remove" id="lines" repeatCount="indefinite" restart="always" type="translate" values="0,1;0,-1;0,1.5;0,1;-1,0;2,0,0,1;0,-1.5;0,1;0,1;-2,0;1,0">
						</animateTransform>
				</g>
			</g>
			<g id="buble3">
				<g class="st1">
					<g>
						
							<linearGradient id="SVGID_8_" gradientUnits="userSpaceOnUse" x1="265.9648" y1="-340.0911" x2="280.5392" y2="-340.0911" gradientTransform="matrix(1 0 0 1 0 994)">
							<stop  offset="0" style="stop-color:#FFFFFF"/>
							<stop  offset="1" style="stop-color:#29ABE2"/>
						</linearGradient>
						<path class="st17" d="M273.2,660.7c-1.9,0-3.8-0.7-5.2-2c-1.3-1.3-2.1-3-2.1-4.8c0-1.9,0.8-3.5,2.1-4.8c1.4-1.3,3.2-2,5.2-2
							s3.8,0.7,5.2,2c1.3,1.3,2.1,3,2.1,4.8c0,1.9-0.8,3.5-2.1,4.8C277,660,275.1,660.7,273.2,660.7z						">
<animate  accumulate="none" additive="replace" attributeName="fill" begin="0s;bub13.end;bub14.end;" calcMode="linear" dur="10s" fill="remove" id="color2" restart="always" values="transparent;">
								</animate>
						</path>
						<path class="st3" d="M273.2,647.3c0.9,0,1.9,0.2,2.7,0.5c0.9,0.3,1.6,0.8,2.3,1.5c0.6,0.6,1.2,1.3,1.5,2.1
							c0.3,0.8,0.5,1.7,0.5,2.6c0,0.9-0.2,1.8-0.5,2.6c-0.3,0.8-0.9,1.5-1.5,2.1c-0.6,0.6-1.4,1.1-2.3,1.5s-1.8,0.5-2.7,0.5
							s-1.9-0.2-2.7-0.5c-0.9-0.3-1.6-0.8-2.3-1.5c-0.6-0.6-1.2-1.3-1.5-2.1c-0.3-0.8-0.5-1.7-0.5-2.6c0-0.9,0.2-1.8,0.5-2.6
							c0.3-0.8,0.9-1.5,1.5-2.1c0.6-0.6,1.4-1.1,2.3-1.5C271.3,647.4,272.3,647.3,273.2,647.3 M273.2,646.9c-4.1,0-7.5,3.1-7.5,7
							c0,3.9,3.3,7,7.5,7c4.1,0,7.5-3.1,7.5-7C280.7,650,277.4,646.9,273.2,646.9L273.2,646.9z						">
<animate  accumulate="none" additive="replace" attributeName="fill" begin="0s;bub13.end;bub14.end;" calcMode="linear" dur="10s" fill="remove" id="color2" restart="always" values="transparent;">
								</animate>
						</path>
						
							<animateTransform  accumulate="none" additive="replace" attributeName="transform" attributeType="XML" begin="10s;bub14.end+10s;" calcMode="linear" dur="4.1s" fill="remove" id="bub13" restart="always" type="translate" values="0,0;0,-1000">
							</animateTransform>
						
							<animateTransform  accumulate="none" additive="replace" attributeName="transform" attributeType="XML" begin="bub13.end+10s" calcMode="linear" dur="4.1s" fill="remove" id="bub14" restart="always" type="translate" values="0,0;0,-1000">
							</animateTransform>
					</g>
				</g>
				<g class="st1">
					<g>
						
							<linearGradient id="SVGID_9_" gradientUnits="userSpaceOnUse" x1="254.5096" y1="-329.1163" x2="266.0069" y2="-329.1163" gradientTransform="matrix(1 0 0 1 0 994)">
							<stop  offset="0" style="stop-color:#FFFFFF"/>
							<stop  offset="1" style="stop-color:#29ABE2"/>
						</linearGradient>
						<path class="st18" d="M260.2,671.2c-1.5,0-3-0.6-4.1-1.9c-1-1.2-1.7-2.7-1.7-4.5s0.6-3.3,1.7-4.5c1.1-1.2,2.6-1.9,4.1-1.9
							c1.5,0,3,0.6,4.1,1.9c1,1.2,1.7,2.7,1.7,4.5s-0.6,3.3-1.7,4.5C263.2,670.6,261.8,671.2,260.2,671.2z						">
<animate  accumulate="none" additive="replace" attributeName="fill" begin="0s;bub15.end;bub16.end;" calcMode="linear" dur="10s" fill="remove" id="color2" restart="always" values="transparent;">
								</animate>
						</path>
						<path class="st3" d="M260.2,658.8c0.8,0,1.5,0.2,2.1,0.5c0.7,0.3,1.3,0.8,1.8,1.3c0.5,0.5,0.9,1.2,1.2,2
							c0.3,0.8,0.4,1.6,0.4,2.4s-0.1,1.6-0.4,2.4c-0.3,0.8-0.7,1.4-1.2,2c-0.5,0.5-1.1,1-1.8,1.3c-0.7,0.3-1.5,0.5-2.1,0.5
							c-0.8,0-1.5-0.2-2.1-0.5c-0.7-0.3-1.3-0.8-1.8-1.3c-0.5-0.5-0.9-1.2-1.2-2c-0.3-0.8-0.4-1.6-0.4-2.4s0.1-1.6,0.4-2.4
							c0.3-0.8,0.7-1.4,1.2-2c0.5-0.5,1.1-1,1.8-1.3C258.8,659,259.5,658.8,260.2,658.8 M260.2,658.5c-3.3,0-5.9,2.9-5.9,6.4
							c0,3.5,2.6,6.4,5.9,6.4c3.3,0,5.9-2.9,5.9-6.4C266.1,661.3,263.5,658.5,260.2,658.5L260.2,658.5z						">
<animate  accumulate="none" additive="replace" attributeName="fill" begin="0s;bub15.end;bub16.end;" calcMode="linear" dur="10s" fill="remove" id="color2" restart="always" values="transparent;">
								</animate>
						</path>
						
							<animateTransform  accumulate="none" additive="replace" attributeName="transform" attributeType="XML" begin="10s;bub16.end+10s;" calcMode="linear" dur="5.4s" fill="remove" id="bub15" restart="always" type="translate" values="0,0;0,-1000">
							</animateTransform>
						
							<animateTransform  accumulate="none" additive="replace" attributeName="transform" attributeType="XML" begin="bub15.end+10s" calcMode="linear" dur="5.4s" fill="remove" id="bub16" restart="always" type="translate" values="0,0;0,-1000">
							</animateTransform>
					</g>
				</g>
				<g class="st1">
					<g>
						
							<linearGradient id="SVGID_10_" gradientUnits="userSpaceOnUse" x1="287.3983" y1="-348.3366" x2="309.4408" y2="-348.3366" gradientTransform="matrix(1 0 0 1 0 994)">
							<stop  offset="0" style="stop-color:#FFFFFF"/>
							<stop  offset="1" style="stop-color:#29ABE2"/>
						</linearGradient>
						<path class="st19" d="M298.4,656.9c-3,0-5.7-1.2-7.8-3.3c-2-2.1-3.2-4.9-3.2-8c0-3,1.2-5.9,3.2-8c2.1-2.1,4.8-3.3,7.8-3.3
							c3,0,5.7,1.2,7.8,3.3c2,2.1,3.2,4.9,3.2,8c0,3-1.2,5.9-3.2,8C304.1,655.7,301.3,656.9,298.4,656.9z						">
<animate  accumulate="none" additive="replace" attributeName="fill" begin="0s;bub17.end;bub18.end;" calcMode="linear" dur="10s" fill="remove" id="color2" restart="always" values="transparent;">
								</animate>
						</path>
						<path class="st3" d="M298.4,634.7c1.5,0,2.8,0.3,4.2,0.9c1.3,0.6,2.4,1.3,3.4,2.4c0.9,1,1.8,2.1,2.3,3.5
							c0.5,1.3,0.8,2.8,0.8,4.2c0,1.5-0.3,3-0.8,4.2c-0.5,1.3-1.3,2.5-2.3,3.5c-0.9,1-2.1,1.9-3.4,2.4c-1.3,0.6-2.7,0.9-4.2,0.9
							c-1.5,0-2.8-0.3-4.2-0.9c-1.3-0.6-2.4-1.3-3.4-2.4c-0.9-1-1.8-2.1-2.3-3.5c-0.5-1.3-0.8-2.8-0.8-4.2c0-1.5,0.3-3,0.8-4.2
							c0.5-1.3,1.3-2.5,2.3-3.5c0.9-1,2.1-1.9,3.4-2.4C295.5,635,296.9,634.7,298.4,634.7 M298.4,634c-6.3,0-11.3,5.2-11.3,11.6
							c0,6.4,5.1,11.6,11.3,11.6c6.3,0,11.3-5.2,11.3-11.6C309.7,639.2,304.6,634,298.4,634L298.4,634z						">
<animate  accumulate="none" additive="replace" attributeName="fill" begin="0s;bub17.end;bub18.end;" calcMode="linear" dur="10s" fill="remove" id="color2" restart="always" values="transparent;">
								</animate>
						</path>
						
							<animateTransform  accumulate="none" additive="replace" attributeName="transform" attributeType="XML" begin="10s;bub18.end+10s;" calcMode="linear" dur="5s" fill="remove" id="bub17" restart="always" type="translate" values="0,0;0,-1000">
							</animateTransform>
						
							<animateTransform  accumulate="none" additive="replace" attributeName="transform" attributeType="XML" begin="bub17.end+10s" calcMode="linear" dur="5s" fill="remove" id="bub18" restart="always" type="translate" values="0,0;0,-1000">
							</animateTransform>
					</g>
				</g>
				<g class="st1">
					<g>
						
							<linearGradient id="SVGID_11_" gradientUnits="userSpaceOnUse" x1="314.0119" y1="-325.9807" x2="323.2519" y2="-325.9807" gradientTransform="matrix(1 0 0 1 0 994)">
							<stop  offset="0" style="stop-color:#FFFFFF"/>
							<stop  offset="1" style="stop-color:#29ABE2"/>
						</linearGradient>
						<path class="st20" d="M318.6,673.1c-1.2,0-2.4-0.5-3.3-1.5c-0.9-1-1.3-2.2-1.3-3.6s0.5-2.6,1.3-3.6c0.9-0.9,2-1.5,3.3-1.5
							s2.4,0.5,3.3,1.5c0.9,1,1.3,2.2,1.3,3.6s-0.5,2.6-1.3,3.6C321,672.5,319.9,673.1,318.6,673.1z						">
<animate  accumulate="none" additive="replace" attributeName="fill" begin="0s;bub19.end;bub20.end;" calcMode="linear" dur="10s" fill="remove" id="color2" restart="always" values="transparent;">
								</animate>
						</path>
						<path class="st3" d="M318.6,663.1c0.6,0,1.2,0.1,1.7,0.4c0.5,0.3,1,0.6,1.5,1c0.4,0.5,0.8,1,1,1.6c0.2,0.6,0.3,1.3,0.3,1.9
							c0,0.6-0.1,1.3-0.3,1.9c-0.2,0.6-0.5,1.1-1,1.6c-0.4,0.5-0.9,0.8-1.5,1c-0.5,0.2-1.2,0.4-1.7,0.4c-0.6,0-1.2-0.1-1.7-0.4
							c-0.5-0.2-1-0.6-1.5-1c-0.4-0.5-0.8-1-1-1.6c-0.2-0.6-0.3-1.3-0.3-1.9c0-0.6,0.1-1.3,0.3-1.9c0.2-0.6,0.5-1.1,1-1.6
							c0.4-0.5,0.9-0.8,1.5-1C317.4,663.3,318,663.1,318.6,663.1 M318.6,662.9c-2.6,0-4.8,2.3-4.8,5.2c0,2.9,2.1,5.2,4.8,5.2
							c2.6,0,4.8-2.3,4.8-5.2C323.4,665.2,321.3,662.9,318.6,662.9L318.6,662.9z						">
<animate  accumulate="none" additive="replace" attributeName="fill" begin="0s;bub19.end;bub20.end;" calcMode="linear" dur="10s" fill="remove" id="color2" restart="always" values="transparent;">
								</animate>
						</path>
						
							<animateTransform  accumulate="none" additive="replace" attributeName="transform" attributeType="XML" begin="10s;bub20.end+10s;" calcMode="linear" dur="4.2s" fill="remove" id="bub19" restart="always" type="translate" values="0,0;0,-1000">
							</animateTransform>
						
							<animateTransform  accumulate="none" additive="replace" attributeName="transform" attributeType="XML" begin="bub19.end+10s" calcMode="linear" dur="4.2s" fill="remove" id="bub20" restart="always" type="translate" values="0,0;0,-1000">
							</animateTransform>
					</g>
				</g>
				<g class="st1">
					<g>
						
							<linearGradient id="SVGID_12_" gradientUnits="userSpaceOnUse" x1="273.288" y1="-318.6642" x2="280.6262" y2="-318.6642" gradientTransform="matrix(1 0 0 1 0 994)">
							<stop  offset="0" style="stop-color:#FFFFFF"/>
							<stop  offset="1" style="stop-color:#29ABE2"/>
						</linearGradient>
						<path class="st21" d="M276.9,679.3c-1,0-1.9-0.4-2.6-1.2c-0.7-0.8-1-1.7-1-2.8s0.4-2.1,1-2.8c0.7-0.8,1.6-1.2,2.6-1.2
							c1,0,1.9,0.4,2.6,1.2c0.7,0.8,1,1.7,1,2.8s-0.4,2.1-1,2.8C278.9,678.9,277.9,679.3,276.9,679.3z						">
<animate  accumulate="none" additive="replace" attributeName="fill" begin="0s;bub21.end;bub22.end;" calcMode="linear" dur="10s" fill="remove" id="color2" restart="always" values="transparent;">
								</animate>
						</path>
						<path class="st3" d="M276.9,671.4c0.5,0,0.9,0.1,1.4,0.3c0.4,0.2,0.8,0.5,1.2,0.9c0.3,0.3,0.6,0.8,0.8,1.2
							c0.2,0.5,0.3,1,0.3,1.5s-0.1,1-0.3,1.5c-0.2,0.5-0.4,0.9-0.8,1.2c-0.3,0.3-0.7,0.6-1.2,0.9s-0.9,0.3-1.4,0.3s-0.9-0.1-1.4-0.3
							c-0.4-0.2-0.8-0.5-1.2-0.9c-0.3-0.3-0.6-0.8-0.8-1.2c-0.2-0.5-0.3-1-0.3-1.5c0-0.5,0.1-1,0.3-1.5c0.2-0.5,0.4-0.9,0.8-1.2
							c0.3-0.3,0.7-0.6,1.2-0.9C276,671.5,276.5,671.4,276.9,671.4 M276.9,671.2c-2.1,0-3.8,1.9-3.8,4.1s1.7,4.1,3.8,4.1
							s3.8-1.9,3.8-4.1S279,671.2,276.9,671.2L276.9,671.2z						">
<animate  accumulate="none" additive="replace" attributeName="fill" begin="0s;bub21.end;bub22.end;" calcMode="linear" dur="10s" fill="remove" id="color2" restart="always" values="transparent;">
								</animate>
						</path>
						
							<animateTransform  accumulate="none" additive="replace" attributeName="transform" attributeType="XML" begin="10s;bub22.end+10s;" calcMode="linear" dur="4.8s" fill="remove" id="bub21" restart="always" type="translate" values="0,0;0,-1000">
							</animateTransform>
						
							<animateTransform  accumulate="none" additive="replace" attributeName="transform" attributeType="XML" begin="bub21.end+10s" calcMode="linear" dur="4.8s" fill="remove" id="bub22" restart="always" type="translate" values="0,0;0,-1000">
							</animateTransform>
					</g>
				</g>
				<g class="st1">
					<g>
						
							<linearGradient id="SVGID_13_" gradientUnits="userSpaceOnUse" x1="289.9876" y1="-314.6576" x2="294.3942" y2="-314.6576" gradientTransform="matrix(1 0 0 1 0 994)">
							<stop  offset="0" style="stop-color:#FFFFFF"/>
							<stop  offset="1" style="stop-color:#29ABE2"/>
						</linearGradient>
						<path class="st22" d="M292.2,682.1c-0.6,0-1.2-0.3-1.6-0.8c-0.4-0.5-0.6-1.2-0.6-2c0-0.8,0.2-1.5,0.6-2c0.4-0.5,1-0.8,1.6-0.8
							c0.6,0,1.2,0.3,1.6,0.8c0.4,0.5,0.6,1.2,0.6,2c0,0.8-0.2,1.5-0.6,2C293.3,681.8,292.8,682.1,292.2,682.1z						">
<animate  accumulate="none" additive="replace" attributeName="fill" begin="0s;bub23.end;bub24.end;" calcMode="linear" dur="10s" fill="remove" id="color2" restart="always" values="transparent;">
								</animate>
						</path>
						<path class="st3" d="M292.2,676.7c0.3,0,0.6,0.1,0.8,0.2c0.2,0.1,0.5,0.3,0.7,0.6c0.2,0.2,0.3,0.5,0.5,0.9
							c0.1,0.3,0.2,0.7,0.2,1s-0.1,0.7-0.2,1c-0.1,0.3-0.2,0.6-0.5,0.9c-0.2,0.2-0.4,0.5-0.7,0.6c-0.2,0.1-0.5,0.2-0.8,0.2
							c-0.3,0-0.6-0.1-0.8-0.2c-0.2-0.1-0.5-0.3-0.7-0.6c-0.2-0.2-0.3-0.5-0.5-0.9c-0.1-0.3-0.2-0.7-0.2-1s0.1-0.7,0.2-1
							c0.1-0.3,0.2-0.6,0.5-0.9c0.2-0.2,0.4-0.5,0.7-0.6C291.6,676.7,291.9,676.7,292.2,676.7 M292.2,676.5c-1.3,0-2.3,1.3-2.3,2.8
							s1,2.8,2.3,2.8c1.3,0,2.3-1.3,2.3-2.8S293.4,676.5,292.2,676.5L292.2,676.5z						">
<animate  accumulate="none" additive="replace" attributeName="fill" begin="0s;bub23.end;bub24.end;" calcMode="linear" dur="10s" fill="remove" id="color2" restart="always" values="transparent;">
								</animate>
						</path>
						
							<animateTransform  accumulate="none" additive="replace" attributeName="transform" attributeType="XML" begin="10s;bub24.end+10s;" calcMode="linear" dur="5s" fill="remove" id="bub23" restart="always" type="translate" values="0,0;0,-1000">
							</animateTransform>
						
							<animateTransform  accumulate="none" additive="replace" attributeName="transform" attributeType="XML" begin="bub23.end+10s" calcMode="linear" dur="5s" fill="remove" id="bub24" restart="always" type="translate" values="0,0;0,-1000">
							</animateTransform>
					</g>
				</g>
			</g>
		</g>
		<g id="greenflower">
			<g class="st23">
				<g>
					<path class="st24" d="M1703.5,207c-4.6,0-8.1-1.3-10.2-4c-4.9-6.1-1-16.3,0.3-19.4c-0.6-3.7,0.1-6.9,1.9-9.6
						c2.6-3.8,6.9-5.3,8.5-5.8c4.1-3.5,8.2-4.7,12.2-3.6c8,2.3,11.9,13.3,12.9,16.1c3.1,3.5,4.1,7.1,3.1,10.6
						c-2.6,9.2-18.6,13.9-20.4,14.4h-0.1C1708.6,206.6,1705.9,207,1703.5,207z M1698.4,185c-1.3,2.7-4.2,11.2-1.2,14.8
						c2.4,3,8.6,2.3,13.3,1.2c3.9-1.1,15.3-5.5,16.9-11c0.2-0.7,0.8-2.9-2.3-6.3l-0.4-0.4l-0.2-0.6c-0.9-3.2-4.5-11.8-9.6-13.3
						c-2.4-0.7-5,0.3-8,2.9l-0.5,0.5l-0.7,0.1c-0.9,0.2-8.7,2-7,10.4l0.2,0.8L1698.4,185z"/>
					<path class="st24" d="M1718,294c-13.5,0-23.5-7.6-28.3-13.8c-4-2-6.7-5.3-8-9.5c-4.2-14.1,10.1-35.5,12.4-38.8
						c4.7-8.4,3.7-10.8,3.7-10.8c-0.4-0.3-2.5-0.5-4.2-0.1c-10,3.6-13,20.1-13.3,26.1l-0.1,1.2l-0.6,1.1c-5.3,8.9-12,14.2-19.9,15.7
						c-10.6,2-19.7-3.7-22.2-5.4c-25-10.6-9.8-51.3-9.1-53l0.2-0.5l0.3-0.5c2.6-4,7.3-6.4,12.3-7.9c-6.4-2.2-11.4-5-12.8-5.8
						c-19.6-9.7-22.4-27.3-21.1-35.9c-1.6-23.6,18.3-34.7,29.9-37.5c7.3-4.5,13.5-3.9,17.4-2.5c13.7,4.9,20.1,24.9,20.8,27.2
						l0.1,0.3c2,8.5,9.8,7.8,10.7,7.7l0.8-0.1l0.8,0.2c0.1,0,0.1,0,0.2,0c0.5-1.2,0.6-4.4,0.2-7.2c-10.3-17.7,2.8-34.8,11.5-41.7
						c17.1-15.8,33.6-18.1,44.4-17.2c10.1,0.8,17.3,4.5,19.4,5.7c18.1,6.2,18.4,28.5,18.3,33.2c3.4,15.4-24.7,25.8-33.6,28.6
						c-6.9,8.7-6,11.5-6,11.5c0.9,1.5,8.5,1.8,16,0.2c25.2-12.5,46.3-11.8,47.2-11.8h0.6l0.6,0.2c10.7,3.1,18.3,8.9,22.5,17.1
						c7,13.6,1.8,28.7,1.6,29.3l-0.1,0.3c-8.2,20-21.3,28.1-30.7,31.4c-8.8,3.1-16.3,2.7-18.5,2.4c-15.3,1.1-30.1-15.1-33.8-19.5
						c-2.1-1-3.3-1.3-4-1.4c-0.2,1.3,0.1,3.9,0.8,6.2c11.3,11.1,20.4,28,20.8,28.8l0.1,0.1c3.3,6.6,3.7,13.1,1,19.3
						c-5.9,14-25.7,21-28.9,22.1C1730.2,292.6,1723.7,294,1718,294z M1695.6,210.7c3.3,0,7.5,0.8,10.2,4.3c5.3,7.1-1,18.3-3.1,21.9
						l-0.3,0.4c-5.5,7.8-13.3,23.1-11.1,30.5c0.5,1.8,1.6,2.9,3.5,3.7l1.4,0.6l0.8,1.2c0.5,0.7,13.3,18.3,35.9,6.7l0.4-0.2l0.4-0.1
						c5.2-1.6,19.4-7.8,23.1-16.6c1.4-3.4,1.2-6.9-0.7-10.9c-0.6-1-9.5-17.4-19.7-27.1l-0.9-0.8l-0.4-1.2c-1.1-3.1-4-13.4,1.7-18.4
						c5.5-4.7,13.4-0.5,16.1,0.8l0.9,0.5l0.7,0.8c4,5,16.6,17.6,26.3,16.6l0.6-0.1l0.6,0.1c1,0.2,26.2,3.4,39.1-27.5
						c0.4-1.1,3.7-12.2-1.1-21.4c-2.8-5.5-8.1-9.4-15.7-11.8c-3.4,0-21.5,0.6-42.3,11l-0.5,0.3l-0.6,0.1c-5,1.2-21.8,4.3-27.3-4.5
						c-4.7-7.6,2.1-17.5,7.7-24.3l1-1.2l1.4-0.4c14.4-4.4,29.5-12.9,28.2-17.6l-0.3-0.8l0.1-0.9c0-0.2,1-20-11.9-24.1l-0.6-0.2
						l-0.6-0.4c-1-0.6-24.9-15.1-52.3,10.2l-0.3,0.3c-0.7,0.6-18.2,14.6-8.8,29.5l0.5,0.8l0.2,0.9c0.5,2.8,1.9,12.4-3,17.3
						c-2.1,2.1-5,3-8.2,2.5c-6.3,0.4-17.6-2.2-20.8-15.2c-1.5-4.9-7-17.9-14.6-20.6c-2.8-1-5.9-0.4-9.3,1.9l-0.8,0.5l-0.9,0.2
						c-1,0.2-24.8,5.7-23,27.8l0.1,0.7l-0.1,0.7c-0.1,0.7-2.7,16.9,15.7,25.9l0.3,0.2c5.9,3.4,23.1,11.1,31.6,5.6l4.5-2.9l2.6,4.7
						c0.5,0.9,2.8,5.5,0.5,10c-1.1,2.1-3.5,4.6-9,5.1h-0.4h-0.4c-8.2-0.5-21.6,0.8-25.2,5.1c-1.6,4.5-10.9,33.9,4.3,39.8l0.7,0.3
						l0.6,0.4c0.1,0,7.2,5.4,14.9,3.9c4.7-0.9,8.9-4.3,12.5-10c0.5-5.8,3.6-28.2,20.2-33.9l0.4-0.1
						C1691.4,211.1,1693.2,210.7,1695.6,210.7z M1688.2,151.3L1688.2,151.3L1688.2,151.3z"/>
					
						<animateTransform  accumulate="none" additive="replace" attributeName="transform" attributeType="XML" calcMode="linear" dur="60s" fill="remove" from="0 1703 207" repeatCount="indefinite" restart="always" to="360 1703 207" type="rotate">
						</animateTransform>
				</g>
			</g>
		</g>
		<g id="redflower">
			<g>
				<g class="st25">
					<path class="st26" d="M1306.3,136.4c-3.7,0-7.4-1.5-8.4-1.9h-0.1c-4.6-2.2-6.9-5-7-8.2c-0.1-4.5,4.4-7.8,6.2-9
						c1.3-2.4,3-3.4,4.3-3.8c3.1-1,6,0.5,6.3,0.6l0.2,0.1c5.8,3.9,6.1,12.7,6.1,13.9c0.3,3.9-1.3,5.9-2.7,6.9
						C1309.9,136.1,1308.1,136.4,1306.3,136.4z M1300,129.9c2.6,1.1,7,2.1,8.5,1c0.5-0.4,0.7-1.2,0.6-2.5v-0.2c0-2-0.7-7.6-3.8-9.8
						c-0.4-0.2-1.5-0.5-2.3-0.2c-0.7,0.2-1.2,0.9-1.7,1.9l-0.3,0.7l-0.7,0.4c-1.8,1-4.4,3.3-4.3,4.9
						C1295.9,127.3,1297.4,128.7,1300,129.9z"/>
					<path class="st26" d="M1307,194.6c-1.6,0-3-0.1-4.4-0.2h-0.5l-0.5-0.1c-6.9-2-9.8-6.2-10.9-9.5c-3.9-10.7,5.4-24.8,6.6-26.6
						c3-4.6,4.1-8.4,3.2-10.6c-1-2.2-4.4-3.3-5.5-3.5l-0.7-0.1l-0.7-0.3c-2.3-1.1-3.6-0.8-4.4-0.3c-3.4,1.7-5.9,8-6.9,11.8
						c1.7,7-3.9,13.4-7.8,16.4c-5.8,4.8-11,6.3-15.6,4.4c-6.5-2.7-8.1-10.9-8.4-13.8c-2.3-6.2-2.3-11.8,0.1-16.6
						c3.9-7.9,12.5-10.3,13.4-10.6l1.8-0.5l1.7,0.8c1.9,0.9,4.6,1.9,6.6,1c2.3-1.1,3.3-4.4,3.4-4.4l0.2-0.8l0.5-0.7
						c0.3-0.5,0.5-0.8,0.6-1c-1.8-1.2-7.7-2-12.8-1.8h-0.2c-10.8,0-18.5-3.1-22.9-9.1c-6.2-8.5-2.8-19.3-2.6-19.8l0.3-1l0.7-0.8
						c9.2-10.4,17-14.7,23.7-13.2c6.9,1.5,9,8.2,9.2,9l0.3,0.9l-0.1,1c-0.4,3.7,7.3,9.9,13.3,13.4c3-0.2,6.5-1,7.8-3.3
						c2.4-4-0.7-12-2-14.4l-0.3-0.6L1293,89c-1.6-7.4-0.5-13.9,3.1-19.5c6.7-10.3,19.9-13.1,20.5-13.2l0.5-0.1
						c24.7-2.7,29,11.9,29.2,12.6l0.3,1l-0.2,1.1c-0.4,2.5-4.1,24.5-17.9,26c-6.4,0.7-7,5.1-7,5.1l-0.1,0.9l-0.4,0.8
						c-2.4,4.7-3.1,8.4-1.9,10.4c1.5,2.3,6.2,3,8.3,3h1.1l1.1,0.5c7.5,3.4,16.5-5.5,16.6-5.6l0.4-0.4l0.5-0.3
						c15.5-9.7,25.7-3.5,29.3,1.6c5.4,5.4,5.9,10.9,5.4,14.5c-1.7,12.3-17.4,21.3-19.8,22.6c-14.6,8.8-28.7-5.5-30.4-7.2
						c-0.5-0.4-3.1,0-5.1,1l-0.7,0.3l-0.8,0.1c-3.5,0.5-4.8,1.3-5.2,1.6c0.2,1,1.7,3.2,3.2,4.6l0.2,0.2c10,10.1,14.4,18,13.7,24.3
						c-0.2,1.8-0.9,3.3-1.7,4.4C1332.4,191.3,1317.9,194.6,1307,194.6z M1304,184.5c3.1,0.2,20.4,0.6,21.6-8.6l0.3-2.3l1-0.6
						c-0.1-1.3-1.3-5.9-10.8-15.6c-1-0.9-3.8-3.7-5.3-7.3c-0.2,4.1-1.9,8.7-5.2,13.7l-0.1,0.1c-2.5,3.7-7.2,12.9-5.5,17.6
						C1300.5,182.3,1301.3,183.6,1304,184.5z M1265.2,145.2c-1.7,0.7-4.3,2.3-5.6,4.9c-1.2,2.4-1,5.4,0.5,9.1l0.3,0.7l0.1,0.8
						c0.2,2.7,1.4,5.8,2.4,6.2c0.4,0.1,2.1-0.1,5.5-2.9l0.3-0.2c1.8-1.4,4.8-4.7,4.1-6.3l-0.6-1.4l0.3-1.5c0.1-0.7,0.9-4.1,2.6-8
						C1272.3,146.9,1269.1,146.7,1265.2,145.2z M1297.4,134.4c2.4,0.5,9.4,2.6,12.3,9.1c0.1,0.2,0.2,0.4,0.2,0.6
						c0.1-0.6,0.2-1.1,0.4-1.7c1.4-4.4,5.6-7.2,12.6-8.3c2.6-1.1,10.6-3.9,15.8,1.3l0.2,0.2c0.1,0.1,9.8,10.5,18.1,5.5l0.2-0.1
						c3.5-1.9,13.8-8.8,14.7-15.2c0.2-1.4,0.1-3.5-2.9-6.3l-0.5-0.5l-0.2-0.4c-0.6-0.8-4.9-5.7-15.5,0.7
						c-2.5,2.4-14.2,12.5-26.4,7.7c-3.2-0.1-11.7-1.1-15.8-7.7c-3.2-5-2.8-11.6,1.1-19.6c1-4.4,5.2-11.7,15.7-12.8
						c4.3-0.5,7.6-10,8.8-16.1c-1.2-1.8-5.3-6-17.8-4.7c-1.4,0.3-9.9,2.6-13.9,8.9c-2,3.2-2.6,6.9-1.8,11.3
						c1.5,3.2,6.5,14.8,1.4,23.5c-3.1,5.3-9,8.1-17.5,8.3h-1.3l-1.1-0.6c-3.4-1.8-19.8-10.9-19.8-22.5c-0.3-0.5-0.8-1.3-1.6-1.5
						c-0.4-0.1-4.4-0.6-13.2,9.2c-0.4,1.9-1,6.6,1.4,10c3,4,9.6,4.9,14.6,4.9c4.3-0.2,18-0.2,22.1,7c1.1,1.9,1.9,4.9,0.2,8.8
						C1290.4,132.8,1293.6,132.8,1297.4,134.4z M1278.9,128.9L1278.9,128.9L1278.9,128.9z"/>
				</g>
				
					<animateTransform  accumulate="none" additive="replace" attributeName="transform" attributeType="XML" calcMode="linear" dur="40s" fill="remove" from="0 1306 136" repeatCount="indefinite" restart="always" to="360 1306 136" type="rotate">
					</animateTransform>
			</g>
		</g>
		<g id="underback">
			<path class="st27" d="M0,556.5c0,0,25.5-65.5,122.5-28.5s111,60,192,28s157-37,197-12s98,80,199,76s197-93,239-80s36,56,81,44
				s43-65,88-48s27,52,144,32s203-57,296-20s159,52,208,20s75-45,104-32s29,32.4,29,32.4V871H-0.5L0,556.5z"/>
		</g>
	</g>
	<g id="bob">
		<g>
			<path class="st28" d="M574.5,457.5l34.2-20c0,0-3.8-4.1,1-10.1c0,0,2.4-6.7-3.4-8.1c0,0-5-0.2-1.2-6.5s9.8,2,9.8,2
				s-0.3,8.1,2.5,9c0,0,5,3.9,5.8-2.6c0,0,3.6-12.8,9.8-10.7c0,0,7-0.1,2.5,6.1c0,0-8.4,5.3-7,9.8c0,0,0.8,2.5,5.3,0.7
				c0,0,10.2-3.4,9.9,3c0,0,1,3.7-1,4.9c-2,1.3-8.8-1.1-10.4,0.5c0,0-4.6,3.4,1.4,5.3c0,0,11,6.2,7.6,11.9c0,0-2.5,3-6.5-0.3
				c0,0-3-7.1-8.1-7.6c0,0-2.4-0.2-7.6,3.2c0,0-0.8,1.4-6.5-2.6c0,0-34.1,18.1-36.7,22.1L574.5,457.5z"/>
			
				<animateTransform  accumulate="none" additive="replace" attributeName="transform" begin="0s;four4.end" calcMode="linear" dur="0.2s" fill="remove" from="0 574 457" id="one1" restart="always" to="20 574 457" type="rotate">
				</animateTransform>
			
				<animateTransform  accumulate="none" additive="replace" attributeName="transform" begin="one1.end" calcMode="linear" dur="0.2s" fill="remove" from="20 574 457" id="two2" restart="always" to="0 574 457" type="rotate">
				</animateTransform>
			
				<animateTransform  accumulate="none" additive="replace" attributeName="transform" begin="two2.end" calcMode="linear" dur="0.2s" fill="remove" from="0 574 457" id="three3" restart="always" to="-10 574 457" type="rotate">
				</animateTransform>
			
				<animateTransform  accumulate="none" additive="replace" attributeName="transform" begin="three3.end" calcMode="linear" dur="0.2s" fill="remove" from="-10 574 457" id="four4" restart="always" to="0 574 457" type="rotate">
				</animateTransform>
		</g>
		<polygon class="st29" points="419.9,524.8 423.9,563.3 389.4,555.3 384.9,515.8 		"/>
		<polygon class="st29" points="564.2,504 564.2,542.4 423.8,563.3 419.8,521.4 		"/>
		<path class="st30" d="M567.7,479.7c0,0,17.8,0,17.2-12.5c0,0-0.8-18.9-11-19.1c0,0-8.2-2-9.1,2c0,0-1.3,7.3,0,10.6
			C564.7,460.8,571.5,471.6,567.7,479.7z"/>
		<path class="st31" d="M421.8,527.8c0,0-2.5-5.1-2.5-6.8s1.5-8.9,1.9-15.7c0,0-6.5-12.5-7-15.3c0,0,1.7-15.3,0-17.6
			c0,0-11.3-12.5-10.2-15.9c0,0,4.5-9.6-0.1-17c0,0-10.1-10.2-9.5-15.9c0,0-0.6-17-4-19.8c0,0-10.2-6.2-7.9-17
			c0,0-0.6-11.3-5.7-14.7c0,0-12.5-10.4-10-16.8c0,0-4.7-1.9-5.8,9.5c0,0-1.1,5.1-7.4,5.7c0,0-8.5,2.3-7.9,11.3c0,0,1.1,4-10.8,6.8
			c0,0-9.1,9.6,12.5,21.5c0,0,5.1,11.7,3.4,16.1c-0.8,2,1.2,4.3,2.5,6.1c1.4,1.8,3.7,3.6,7.6,4.4c0,0-1.7,17.6,6.8,23.7
			c0,0,11.3,7.4,4.5,9.6l11.9,36.7c0,0-4,15.9,9.6,13c0,0,4.8,11.3,18,5.3L421.8,527.8z"/>
		<path class="st30" d="M370,469.4c0,0,29.1,18.9,26,27.1c0,0-2,13.3-40.1,0c0,0-9.6-3.4-4.5-20.3C351.4,476.2,355,464.6,370,469.4z
			"/>
		<polygon class="st32" points="563.7,518.5 563.8,542.1 423,563.4 421.2,538.7 		"/>
		<g id="Layer_15_1_">
			<polygon class="st29" points="521,507.8 516.4,519.7 506.2,512.1 502,522.3 496.9,522.3 489.6,516.2 476.3,526.5 455.1,516 			
				"/>
			<polygon class="st33" points="506.4,510.6 501.7,522 497,522 485.2,512.7 			"/>
		</g>
		<g id="Layer_14_1_">
			<polygon class="st34" points="497,522.6 501.5,522.6 508.6,536.4 499.5,546.4 491.6,538.5 			"/>
		</g>
		<path class="st28" d="M423.3,527.8c0,0,13.6-9.1,30.5-4c0,0,10.7,1,15.1-4.3c0,0,0.8-5.9,23.1-1.4c1.1,0.3,1.1,0.3,1.1,0.3
			s7.6,1.8,8.9-1.9c1.3-3.6,3.2-4.7,3.2-4.7s0.6-3.7,20.1,3.5c0,0,8.9,1.3,14.4-5.5c0,0,4.7-4.7,16.5,0c0,0,10.2-0.4,10.2-4.7
			c0,0,3.8-7.6,0-10.2c0,0-5.1-12.3,1.7-15.3c0,0,2.1-13.1-2.1-15.3c0,0-3.4-5.9-1.3-14c0,0,5.4-7.1,3.9-13.1
			c-0.5-2.1-7.3-14.4-1.8-21.6c0,0,2.1-9.8-4.2-19.9c0,0-5.5-12.3,1.3-22c0,0,0.4-8.9-7.2-16.5c0,0-8.9-14,1.7-18.7
			c0,0,4.2-14-17.4-7.6c0,0-5.5,1.3-6.6,3.8c0,0-0.8,3.6-13.3-2c0,0-6.8-2-13,6.8c0,0-2.3,4.2-18.7,0.3c0,0-12.1-2.3-16.4,1.7
			c0,0-4.5,7.2-23.1,2.1c0,0-9.3-3.4-18.7,7.2c0,0-6.4,2.1-25-4.7c0,0-5.1-4.2-20.3,5.5c0,0-4.7,2.1-13.1,0.8c0,0-15.3,0.4,0,16.1
			c0,0,9.8,13.1,8.9,19.5c0,0-2.5,9.3,5.5,14.8c0,0,7.6,4.2,5.9,18.2c0,0,2.5,10.2,7.2,16.5c0,0,6.4,4.7,3.4,13.1
			c0,0-2.5,9.8,5.9,16.1c0,0,5.9,9.3,2.5,17.4c0,0-0.4,10.6,5.1,14c0,0,3.8,3.4,1.7,16.1C418.8,514.4,418.8,531.2,423.3,527.8z"/>
		
			<ellipse onclick="circle_click(evt)" transform="matrix(0.4641 -0.8858 0.8858 0.4641 -81.3848 659.4555)" class="st35" cx="504.3" cy="397" rx="31.6" ry="31.6"/>
		<circle class="st35" cx="453.4" cy="403.7" r="31.6"/>
		<circle class="st36" cx="454.1" cy="404" r="11"/>
		<circle class="st36" cx="507.5" cy="393" r="11"/>
		<circle class="st37" cx="454.1" cy="403.1" r="5.1"/>
		
			<ellipse transform="matrix(0.4641 -0.8858 0.8858 0.4641 -76.1266 660.146)" class="st37" cx="507.5" cy="393" rx="5.1" ry="5.1"/>
		<polygon class="st38" points="429.5,382.9 432.5,380 425.2,369.2 420.5,373.2 		"/>
		<polygon class="st38" points="460.5,372.8 465.8,374.7 468.8,361.8 464.8,360.4 		"/>
		
			<rect x="444.4" y="360" transform="matrix(0.9917 -0.1289 0.1289 0.9917 -43.5236 60.6116)" class="st38" width="4.2" height="13.1"/>
		
			<rect x="502.2" y="352.5" transform="matrix(0.9917 -0.1289 0.1289 0.9917 -42.0747 67.9995)" class="st38" width="4.2" height="13.1"/>
		<polygon class="st38" points="486.9,370.7 490.4,368.3 484.8,356.5 479.6,359.8 		"/>
		<polygon class="st38" points="514.3,367.4 519.6,369.2 522.7,356.3 518.7,355 		"/>
		<g>
			<path class="st28" d="M493,436c0,0,48.9,0,53.5-27.2c0,0-0.8-15-16.2-6.2c0,0-29.4,23.1-42.4,25.4L493,436z"/>
			<polygon class="st39" points="489,426.6 488,425.1 485.3,425.5 492.9,439.6 498.2,438.2 			"/>
		</g>
		<path class="st39" d="M420.5,448.3c0,0-9.4-4.1-8-10.3c0,0,7.9-18.7,24.8-13c0,0,15.6,4.1,7.5,16L420.5,448.3z"/>
		<path class="st40" d="M422.4,449c0,0-15.7-5.5-4.7-17.6c0,0,8.3-8.9,19.3-5.5c0,0,13,3.4,7.9,15.1c0,0,4.7-4.7,2.4-10.6
			c0,0-5.1-7.2-14.4-7.5c0,0-8.1-0.8-17.8,7C415,429.9,404.4,445.5,422.4,449z"/>
		<circle class="st40" cx="420.7" cy="434.5" r="1.5"/>
		<ellipse class="st40" cx="432" cy="430.9" rx="2.2" ry="1.4"/>
		<circle class="st40" cx="428.1" cy="437" r="1.6"/>
		<path class="st41" d="M429.8,442.6c0,0,0.8,5.3,4.1,11.5c3.4,6.3,16.5,29.2,21.4,30.9c4.8,1.7,17.5,14.2,35.9,10.3
			c0,0,18.1-0.8,19.8-19l-5.1-24.8c0,0-28.5,2.6-29.9,2.4c0,0-27-3.2-28.7-5.3c0,0-12.8-4.4-13.3-6.4l-1.4-1.1L429.8,442.6z"/>
		<g>
			<path class="st42" d="M502.2,490.6c0,0-10.9,6.2-18.7,5.2c0,0-17.8,1.1-28.6-11.6c0,0-0.3-4.1,14.7-1.9c0,0,9.6,2.6,13.1,5.5
				c0,0-10.7-7.7,1.8-6.7C484.5,481.1,498.7,481.9,502.2,490.6z"/>
			<path class="st43" d="M517.1,433h-1c0,0,5.1,6.2,15.3,8.3c0,0-9.6,9.3-40.4,10.8c0,0-23.1,5.5-56.8-9.6c0,0-0.5-2.8,3.4-2
				c0,0-6.4-2.8-11.3,3.4c0,0,1.2-1.1,3.3-0.9c0,0-0.5,7.9,19.4,35.9c0,0,4.2,10.2,25.4,16.5c0,0,20.9,4,32.1-7.2
				c0,0,7.3-4.2,3.8-21l-3.4-14.7h-2l3.4,14.8c0,0,4.6,11.9-2.5,20c0,0-10.5,10.3-30.9,7.1c0,0-20.4-7.6-25.2-16.3
				c0,0-21.9-31.1-18.9-35.5c0,0,1.1-1.6,2.3-1c0,0,0.4,1,0.8,1.4c0,0,26.9,14.6,57.2,10c0,0,26,1,42.1-11.7l0.7-1
				C533.8,440.6,527.5,441,517.1,433z"/>
			<polygon class="st44" points="515,449.4 516.7,462.9 500.6,466.3 497.7,452.5 			"/>
		</g>
		<polygon class="st44" points="472.9,454.1 490.3,453.5 490.8,465.4 474.7,468.4 		"/>
		<polygon class="st32" points="387.2,532 421.5,539.1 423.4,563.5 389.8,555.8 		"/>
		<g id="Layer_17">
			<g>
				<g>
					<path class="st29" d="M523.1,568.9l0.5,43.3c0,0,1.3,9.8,10.2,0v-44.5C533.8,567.7,530.4,568.9,523.1,568.9z"/>
					<polygon class="st45" points="523.8,568.4 523.8,585.4 533.3,585.4 533.3,565.9 					"/>
				</g>
				<path class="st46" d="M523.4,610.5c0,0,4.5,9.5,10.2,1c0,0,10,1.3,11.7,7.5c0,0,17-4.8,20.1,6.8c0,0,5.1,10.2-9.9,13.8
					c0,0-6.5,4-18.9-6.2c0,0-0.8,2.8-6.2,2.3c0,0-9.6-0.8-11.3-4.5v-5.7C519,625.4,511.5,618.3,523.4,610.5z"/>
			</g>
			<path class="st47" d="M542.6,545.6l3.6,13.1c0,0-17.4,20.3-35.2,3.8v-12.4L542.6,545.6z"/>
			<path class="st47" d="M455.9,558.6c0,0,4.4,10.9,4,13.9c0,0-22.9,19.1-36.5,3c0,0-1.7-7.2,0-11.9L455.9,558.6z"/>
			<path class="st48" d="M555.6,622.6c0,0-9,4-2.7,4.2C552.9,626.8,564.2,621.5,555.6,622.6z"/>
		</g>
		<g id="Layer_18">
			<g>
				<g>
					<path class="st29" d="M436.1,582v42.4c0,0,1.3,9.8,10.2,0l1.2-44.5C447.4,579.8,443.3,580.9,436.1,582z"/>
					<polygon class="st45" points="436.1,582 436.1,600.1 446.5,600 447.4,579.8 					"/>
				</g>
				<path class="st46" d="M436.1,621.9c0,0,4.5,9.5,10.2,1c0,0,10,1.3,11.7,7.5c0,0,17-4.8,20.1,6.8c0,0,5.1,10.2-9.9,13.8
					c0,0-6.5,4-18.9-6.2c0,0-0.8,2.8-6.2,2.3c0,0-9.6-0.8-11.3-4.5v-5.7C431.7,636.8,424.2,629.8,436.1,621.9z"/>
			</g>
		</g>
		<g>
			<path class="st49" d="M376.7,486.7c0,0,3.6,3.2,0,5.4L320,473.4c0,0-4.8,10.9-23.3,6.2c0,0-4.4-1.2-7,5.3c0,0-4.8,7-9.2,4.2
				c0,0-6-2.6,0-7.8c0,0,9.4-6.4,9.8-7.8c0,0,5-4.7-0.6-4.8c0,0-6-0.8-14.2,5.6c0,0-4.7,2.2-6.6-3.4c0,0-3.1-6.2,5.3-7.5
				c0,0,5.9-1.6,9.4-0.8c0,0,11.6-4.2,1-10.4c0,0-8.2,1-11-5.3c0,0-2.4-9.1,10.9-4.8c0,0,12,5.6,12.6,7.6c0,0,8.5,5,7.8-4.2
				c0,0-4-10.9,6.6-10.4c0,0,12.9-1.8,7.5,7.2c0,0-7.5-1.4-7.5,3.8c0,0-1,3.8,3.4,5.4c0,0,11.3,9.1,10.7,13.7L376.7,486.7z"/>
			
				<animateTransform  accumulate="none" additive="replace" attributeName="transform" begin="0s;four.end" calcMode="linear" dur="0.2s" fill="remove" from="0 376 486" id="one" restart="always" to="20 376 486" type="rotate">
				</animateTransform>
			
				<animateTransform  accumulate="none" additive="replace" attributeName="transform" begin="one.end" calcMode="linear" dur="0.2s" fill="remove" from="20 376 486" id="two" restart="always" to="0 376 486" type="rotate">
				</animateTransform>
			
				<animateTransform  accumulate="none" additive="replace" attributeName="transform" begin="two.end" calcMode="linear" dur="0.2s" fill="remove" from="0 376 486" id="three" restart="always" to="-20 376 486" type="rotate">
				</animateTransform>
			
				<animateTransform  accumulate="none" additive="replace" attributeName="transform" begin="three.end" calcMode="linear" dur="0.2s" fill="remove" from="-20 376 486" id="four" restart="always" to="0 376 486" type="rotate">
				</animateTransform>
		</g>
		<g>
			<path class="st50" d="M383.3,482.8c0,0,16.3,15.7-4,14.4l-22.8-3.6c0,0,18.7-2.8,6.1-22.7L383.3,482.8z"/>
			<path class="st51" d="M365.3,476.7c0,0,8.8,15.1-5.7,16.1C359.6,492.9,369,488.3,365.3,476.7z"/>
		</g>
	</g>
	<g id="patrik">
		<path class="st52" d="M1375.8,534.9c0,0,69.7,84.5,161.1,3.7c0,0,8.9,36.3-22.4,61.1l0.6,22.8c0,0-32.6,20.5-55.5,0l-0.6-9.3
			c0,0-12.9,5.6-29.1-3.7v9.3c0,0-18.5,16.2-49.5-12.2l4-17.9C1384.7,588.7,1374.5,573.9,1375.8,534.9z"/>
		<g>
			<path class="st53" d="M1411.1,472.5c0,0-25.1,47.2-33,46.5c0,0-36.3-52.4-39-68c0,0-22.1-46.2,17.9-22.8
				C1356.9,428.3,1390,451.4,1411.1,472.5z"/>
			<path class="st54" d="M1418.3,480.1c0,0-25.1,47.2-33,46.5c0,0-36.3-52.4-39-68c0,0-22.1-46.2,17.9-22.8
				C1363.8,435.8,1396.9,459,1418.3,480.1z"/>
			
				<animateTransform  accumulate="none" additive="replace" attributeName="transform" attributeType="XML" begin=".1" calcMode="linear" dur="1.1s" fill="remove" id="lines" repeatCount="indefinite" restart="always" type="translate" values="0,6;0,-6;0,6">
				</animateTransform>
		</g>
		<path class="st53" d="M1507.5,458.7c0,0-19.2-71.3-8-97c0,0,26.1-71.3-17.1-30.4c0,0-27.4,32.3-30.7,43.9c0,0-4.6,8.6-30,71
			c0,0-30.4,65.4-44.6,71c0,0-4.3,8.6,0,19.8c0,0,58.8,80.2,159.5,5.6C1536.5,542.1,1545,533.9,1507.5,458.7z"/>
		
			<ellipse transform="matrix(0.2597 -0.9657 0.9657 0.2597 661.3774 1699.1196)" class="st29" cx="1438.9" cy="418.2" rx="21.1" ry="16.5"/>
		
			<ellipse transform="matrix(0.2597 -0.9657 0.9657 0.2597 680.2453 1723.6323)" class="st29" cx="1464.3" cy="418.1" rx="21.1" ry="16.5"/>
		<path class="st55" d="M1427.9,451.7c0,0,12.9,14.2,58.8-6.3c0,0,1.9,20.5-18.2,36.6c0,0-28.4,19.5-45.9,0
			C1422.9,481.7,1445.8,462.2,1427.9,451.7z"/>
		<path class="st54" d="M1469.8,628.3c0,0,12.9,7.2,40.3-3.3c0,0-5.3,33.4-16.5,32.6C1493.6,657.7,1480.4,662.3,1469.8,628.3z"/>
		<path class="st54" d="M1388.6,613.1c0,0,1.3,24.8,19.8,30c0,0,10.6,5.3,12.2-20.5C1420.7,622.7,1407.8,625.3,1388.6,613.1z"/>
		<path class="st56" d="M1472.5,477.1c-1.6,3.3-28.7,21.4-45.9,6.6c0,0,28.7-22.1,22.1-5.6C1448.7,478.5,1467.5,460.9,1472.5,477.1z
			"/>
		<g>
			<path class="st53" d="M1519.6,523.7l67-92.7c0,0,5.3-24.8-16.5-14.2c0,0-49.5,27.7-78.6,56.8L1519.6,523.7z"/>
			<path class="st54" d="M1515,529l67-92.7c0,0,5.3-24.8-16.5-14.2c0,0-49.5,27.7-78.6,56.8L1515,529z"/>
			
				<animateTransform  accumulate="none" additive="replace" attributeName="transform" attributeType="XML" begin=".1" calcMode="linear" dur="1.1s" fill="remove" id="lines" repeatCount="indefinite" restart="always" type="translate" values="0,6;0,-6;0,6">
				</animateTransform>
		</g>
		<ellipse transform="matrix(0.1187 -0.9929 0.9929 0.1187 854.0446 1799.7264)" cx="1440.9" cy="418.8" rx="5.6" ry="3.7"/>
		<ellipse transform="matrix(0.1187 -0.9929 0.9929 0.1187 870.2537 1819.9764)" cx="1460.4" cy="419.7" rx="5.6" ry="3.7"/>
		<path class="st57" d="M1388.3,552.7c0,0-12.5,15.5,12.2,12.5c0,0,6.9,0.3,0,6.3c0,0-12.2,10.6,3,15.2c0,0,5,3.3,18.5,4.3
			c0,0,9.3,0.3,4.3-11.2c0,0-0.3-9.3,8,5.6c0,0-1.3,16.8,4.6,7.6c0,0,13.2-16.5,9.9-18.8c0,0-32-0.6-59.1-23.8"/>
		<path class="st57" d="M1497.2,607.5c0,0,16.5,7.2,7.6-5c0,0-12.2-6.3,0.3-12.5c0,0,7.6-8.9,15.8-6.6c0,0,6.9,1.3,5.6,4.6
			c0,0-7.2,10.2-11.2,11.9l0.6,22.1c0,0-7.6,5.6-24.1,8C1491.3,630.3,1489.9,611.5,1497.2,607.5"/>
		<path d="M1467.5,383.7c0,0-2.3-5.3,2.7-2.7l8.9,5.3c0,0,5.9,4.3-1.3,2.3c0,0,4.6,5.9-3,2.3l-8-5
			C1467.2,386.3,1461.6,383.1,1467.5,383.7z		">
<animateTransform  accumulate="none" additive="replace" attributeName="transform" attributeType="XML" begin=".1" calcMode="linear" dur="1.2s" fill="remove" id="lines" repeatCount="indefinite" restart="always" type="translate" values="0,1;2,0;0,1">
				</animateTransform>
		</path>
		<path d="M1454.3,381.4c0,0,2.3-5-2.7-2.7l-8.6,5c0,0-3.7,2.7,1.3,2.3c0,0-3.7,6.6,3,2.3l7.6-4.6
			C1454.6,383.7,1463.2,378.8,1454.3,381.4z		">
<animateTransform  accumulate="none" additive="replace" attributeName="transform" attributeType="XML" begin=".1" calcMode="linear" dur="1.2s" fill="remove" id="lines" repeatCount="indefinite" restart="always" type="translate" values="-0,1;-2,0;0,1">
				</animateTransform>
		</path>
		<path class="st58" d="M1420,477.8c0.3,1-0.3,1.6,3,4"/>
	</g>
</g>
<g id="buble4">
	<g class="st1">
		<g>
			
				<linearGradient id="SVGID_14_" gradientUnits="userSpaceOnUse" x1="747.252" y1="-265.15" x2="779.5549" y2="-265.15" gradientTransform="matrix(1 0 0 1 0 994)">
				<stop  offset="0" style="stop-color:#FFFFFF"/>
				<stop  offset="1" style="stop-color:#29ABE2"/>
			</linearGradient>
			<path class="st59" d="M763.3,747.2c-4.3,0-8.4-1.9-11.4-5.3c-3-3.5-4.7-8-4.7-13c0-4.9,1.7-9.6,4.7-13c3.1-3.4,7.1-5.3,11.4-5.3
				s8.4,1.9,11.4,5.3c3,3.5,4.7,8,4.7,13c0,4.9-1.7,9.6-4.7,13C771.7,745.2,767.6,747.2,763.3,747.2z			">
<animate  accumulate="none" additive="replace" attributeName="fill" begin="0s;bub1.end;bub2.end;" calcMode="linear" dur="10s" fill="remove" id="color2" restart="always" values="transparent;">
					</animate>
			</path>
			<path class="st3" d="M763.3,711.1c2.1,0,4.2,0.5,6.1,1.4c1.9,0.9,3.6,2.1,5,3.9c1.4,1.6,2.6,3.5,3.4,5.7c0.8,2.1,1.2,4.6,1.2,6.9
				s-0.4,4.8-1.2,6.9s-1.9,4.1-3.4,5.7c-1.4,1.6-3.1,3-5,3.9s-4,1.4-6.1,1.4s-4.2-0.5-6.1-1.4c-1.9-0.9-3.6-2.1-5-3.9
				c-1.4-1.6-2.6-3.5-3.4-5.7c-0.8-2.1-1.2-4.6-1.2-6.9s0.4-4.8,1.2-6.9s1.9-4.1,3.4-5.7c1.4-1.6,3.1-3,5-3.9
				C759.1,711.5,761.2,711.1,763.3,711.1 M763.3,710c-9.2,0-16.6,8.4-16.6,18.9s7.4,18.8,16.6,18.8c9.2,0,16.6-8.4,16.6-18.8
				C779.9,718.4,772.6,710,763.3,710L763.3,710z			">
<animate  accumulate="none" additive="replace" attributeName="fill" begin="0s;bub1.end;bub2.end;" calcMode="linear" dur="10s" fill="remove" id="color2" restart="always" values="transparent;">
					</animate>
			</path>
			
				<animateTransform  accumulate="none" additive="replace" attributeName="transform" attributeType="XML" begin="10s;bub2.end+10s;" calcMode="linear" dur="5.4s" fill="remove" id="bub1" restart="always" type="translate" values="0,0;0,-1000">
				</animateTransform>
			
				<animateTransform  accumulate="none" additive="replace" attributeName="transform" attributeType="XML" begin="bub1.end+10s" calcMode="linear" dur="5.4s" fill="remove" id="bub2" restart="always" type="translate" values="0,0;0,-1000">
				</animateTransform>
		</g>
	</g>
	<g class="st1">
		<g>
			
				<linearGradient id="SVGID_15_" gradientUnits="userSpaceOnUse" x1="675.3379" y1="-269.0499" x2="695.43" y2="-269.0499" gradientTransform="matrix(1 0 0 1 0 994)">
				<stop  offset="0" style="stop-color:#FFFFFF"/>
				<stop  offset="1" style="stop-color:#29ABE2"/>
			</linearGradient>
			<path class="st60" d="M685.3,736.4c-2.7,0-5.2-1.2-7.1-3.3c-1.9-2.2-2.9-5-2.9-8.1s1.1-5.9,2.9-8.1c1.9-2.1,4.4-3.3,7.1-3.3
				s5.2,1.2,7.1,3.3c1.9,2.2,2.9,5,2.9,8.1s-1.1,5.9-2.9,8.1C690.6,735.2,688,736.4,685.3,736.4z			">
<animate  accumulate="none" additive="replace" attributeName="fill" begin="0s;bub3.end;bub4.end;" calcMode="linear" dur="10s" fill="remove" id="color2" restart="always" values="transparent;">
					</animate>
			</path>
			<path class="st3" d="M685.3,713.9c1.3,0,2.6,0.3,3.8,0.9s2.2,1.3,3.1,2.4c0.9,1,1.6,2.2,2.1,3.5s0.7,2.8,0.7,4.3s-0.2,3-0.7,4.3
				s-1.2,2.5-2.1,3.5c-0.9,1-1.9,1.9-3.1,2.4c-1.2,0.6-2.5,0.9-3.8,0.9s-2.6-0.3-3.8-0.9c-1.2-0.6-2.2-1.3-3.1-2.4
				c-0.9-1-1.6-2.2-2.1-3.5s-0.7-2.8-0.7-4.3s0.2-3,0.7-4.3s1.2-2.5,2.1-3.5c0.9-1,1.9-1.9,3.1-2.4
				C682.7,714.2,684,713.9,685.3,713.9 M685.3,713.3c-5.7,0-10.3,5.2-10.3,11.7s4.6,11.7,10.3,11.7s10.3-5.2,10.3-11.7
				S691.1,713.3,685.3,713.3L685.3,713.3z			">
<animate  accumulate="none" additive="replace" attributeName="fill" begin="0s;bub3.end;bub4.end;" calcMode="linear" dur="10s" fill="remove" id="color2" restart="always" values="transparent;">
					</animate>
			</path>
			
				<animateTransform  accumulate="none" additive="replace" attributeName="transform" attributeType="XML" begin="10s;bub4.end+10s;" calcMode="linear" dur="5.5s" fill="remove" id="bub3" restart="always" type="translate" values="0,0;0,-1000">
				</animateTransform>
			
				<animateTransform  accumulate="none" additive="replace" attributeName="transform" attributeType="XML" begin="bub3.end+10s" calcMode="linear" dur="5.5s" fill="remove" id="bub4" restart="always" type="translate" values="0,0;0,-1000">
				</animateTransform>
		</g>
	</g>
	<g class="st1">
		<g>
			
				<linearGradient id="SVGID_16_" gradientUnits="userSpaceOnUse" x1="679.8333" y1="-314.85" x2="728.7013" y2="-314.85" gradientTransform="matrix(1 0 0 1 0 994)">
				<stop  offset="0" style="stop-color:#FFFFFF"/>
				<stop  offset="1" style="stop-color:#29ABE2"/>
			</linearGradient>
			<path class="st61" d="M704.2,702.9c-6.5,0-12.7-2.5-17.2-6.9c-4.5-4.6-7.1-10.4-7.1-16.8s2.6-12.4,7.1-16.8
				c4.7-4.4,10.7-6.9,17.2-6.9s12.7,2.5,17.2,6.9c4.5,4.6,7.1,10.4,7.1,16.8s-2.6,12.4-7.1,16.8
				C716.9,700.4,710.7,702.9,704.2,702.9z			">
<animate  accumulate="none" additive="replace" attributeName="fill" begin="0s;bub5.end;bub6.end;" calcMode="linear" dur="10s" fill="remove" id="color2" restart="always" values="transparent;">
					</animate>
			</path>
			<path class="st3" d="M704.2,656.2c3.2,0,6.4,0.6,9.2,1.8c2.9,1.2,5.4,2.8,7.6,5c2.1,2.1,3.9,4.6,5.1,7.3c1.2,2.8,1.8,5.9,1.8,9
				c0,3-0.6,6.2-1.8,9s-2.9,5.3-5.1,7.3c-2.1,2.1-4.7,3.9-7.6,5c-2.9,1.2-6.1,1.8-9.2,1.8s-6.4-0.6-9.2-1.8s-5.4-2.8-7.6-5
				c-2.1-2.1-3.9-4.6-5.1-7.3c-1.2-2.8-1.8-5.9-1.8-9c0-3,0.6-6.2,1.8-9s2.9-5.3,5.1-7.3c2.1-2.1,4.7-3.9,7.6-5
				C697.8,656.8,701,656.2,704.2,656.2 M704.2,654.9c-13.9,0-25.1,10.8-25.1,24.4c0,13.5,11.2,24.4,25.1,24.4
				c13.9,0,25.1-10.8,25.1-24.4S718.1,654.9,704.2,654.9L704.2,654.9z			">
<animate  accumulate="none" additive="replace" attributeName="fill" begin="0s;bub5.end;bub6.end;" calcMode="linear" dur="10s" fill="remove" id="color2" restart="always" values="transparent;">
					</animate>
			</path>
			
				<animateTransform  accumulate="none" additive="replace" attributeName="transform" attributeType="XML" begin="10s;bub6.end+10s;" calcMode="linear" dur="5s" fill="remove" id="bub5" restart="always" type="translate" values="0,0;0,-1000">
				</animateTransform>
			
				<animateTransform  accumulate="none" additive="replace" attributeName="transform" attributeType="XML" begin="bub5.end+10s" calcMode="linear" dur="5s" fill="remove" id="bub6" restart="always" type="translate" values="0,0;0,-1000">
				</animateTransform>
		</g>
	</g>
	<g class="st1">
		<g>
			
				<linearGradient id="SVGID_17_" gradientUnits="userSpaceOnUse" x1="700.4937" y1="-280.35" x2="716.6451" y2="-280.35" gradientTransform="matrix(1 0 0 1 0 994)">
				<stop  offset="0" style="stop-color:#FFFFFF"/>
				<stop  offset="1" style="stop-color:#29ABE2"/>
			</linearGradient>
			<path class="st62" d="M708.5,722.9c-2.2,0-4.2-1-5.7-2.7c-1.5-1.8-2.4-4-2.4-6.5s0.9-4.8,2.4-6.5s3.5-2.7,5.7-2.7s4.2,1,5.7,2.7
				c1.5,1.8,2.3,4,2.3,6.5s-0.8,4.8-2.3,6.5S710.7,722.9,708.5,722.9z			">
<animate  accumulate="none" additive="replace" attributeName="fill" begin="0s;bub7.end;bub8.end;" calcMode="linear" dur="10s" fill="remove" id="color2" restart="always" values="transparent;">
					</animate>
			</path>
			<path class="st3" d="M708.5,704.8c1,0,2.1,0.2,3,0.7c1,0.5,1.8,1.1,2.5,1.9c0.7,0.8,1.3,1.8,1.7,2.8c0.4,1.1,0.6,2.3,0.6,3.5
				s-0.2,2.4-0.6,3.5c-0.4,1.1-1,2-1.7,2.8s-1.5,1.5-2.5,1.9c-1,0.5-2,0.7-3,0.7s-2.1-0.2-3-0.7c-1-0.5-1.8-1.1-2.5-1.9
				c-0.7-0.8-1.3-1.8-1.7-2.8s-0.6-2.3-0.6-3.5s0.2-2.4,0.6-3.5c0.4-1.1,1-2,1.7-2.8s1.5-1.5,2.5-1.9
				C706.4,705.1,707.5,704.8,708.5,704.8 M708.5,704.3c-4.6,0-8.3,4.2-8.3,9.4s3.7,9.4,8.3,9.4s8.3-4.2,8.3-9.4
				C716.8,708.5,713.1,704.3,708.5,704.3L708.5,704.3z			">
<animate  accumulate="none" additive="replace" attributeName="fill" begin="0s;bub7.end;bub8.end;" calcMode="linear" dur="10s" fill="remove" id="color2" restart="always" values="transparent;">
					</animate>
			</path>
			
				<animateTransform  accumulate="none" additive="replace" attributeName="transform" attributeType="XML" begin="10s;bub8.end+10s;" calcMode="linear" dur="4.2s" fill="remove" id="bub7" restart="always" type="translate" values="0,0;0,-1000">
				</animateTransform>
			
				<animateTransform  accumulate="none" additive="replace" attributeName="transform" attributeType="XML" begin="bub7.end+10s" calcMode="linear" dur="4.2s" fill="remove" id="bub8" restart="always" type="translate" values="0,0;0,-1000">
				</animateTransform>
		</g>
	</g>
	<g class="st1">
		<g>
			
				<linearGradient id="SVGID_18_" gradientUnits="userSpaceOnUse" x1="655.0256" y1="-257.6499" x2="667.8527" y2="-257.6499" gradientTransform="matrix(1 0 0 1 0 994)">
				<stop  offset="0" style="stop-color:#FFFFFF"/>
				<stop  offset="1" style="stop-color:#29ABE2"/>
			</linearGradient>
			<path class="st63" d="M661.4,743.6c-1.7,0-3.3-0.8-4.5-2.1c-1.2-1.4-1.9-3.2-1.9-5.1c0-2,0.7-3.8,1.9-5.1s2.8-2.1,4.5-2.1
				s3.3,0.8,4.5,2.1c1.2,1.4,1.9,3.2,1.9,5.1c0,2-0.7,3.8-1.9,5.1S663.1,743.6,661.4,743.6z			">
<animate  accumulate="none" additive="replace" attributeName="fill" begin="0s;bub9.end;bub10.end;" calcMode="linear" dur="10s" fill="remove" id="color2" restart="always" values="transparent;">
					</animate>
			</path>
			<path class="st3" d="M661.4,729.3c0.8,0,1.7,0.2,2.4,0.6c0.8,0.4,1.4,0.9,2,1.5s1,1.4,1.4,2.3c0.3,0.9,0.5,1.8,0.5,2.8
				c0,0.9-0.2,1.9-0.5,2.8s-0.8,1.6-1.4,2.3c-0.6,0.6-1.2,1.2-2,1.5c-0.8,0.4-1.6,0.6-2.4,0.6c-0.8,0-1.7-0.2-2.4-0.6
				s-1.4-0.9-2-1.5s-1-1.4-1.4-2.3c-0.3-0.9-0.5-1.8-0.5-2.8c0-0.9,0.2-1.9,0.5-2.8c0.3-0.9,0.8-1.6,1.4-2.3c0.6-0.6,1.2-1.2,2-1.5
				C659.7,729.5,660.6,729.3,661.4,729.3 M661.4,728.9c-3.7,0-6.6,3.3-6.6,7.5s2.9,7.5,6.6,7.5s6.6-3.3,6.6-7.5
				C668,732.2,665.1,728.9,661.4,728.9L661.4,728.9z			">
<animate  accumulate="none" additive="replace" attributeName="fill" begin="0s;bub9.end;bub10.end;" calcMode="linear" dur="10s" fill="remove" id="color2" restart="always" values="transparent;">
					</animate>
			</path>
			
				<animateTransform  accumulate="none" additive="replace" attributeName="transform" attributeType="XML" begin="10s;bub10.end+10s;" calcMode="linear" dur="5s" fill="remove" id="bub9" restart="always" type="translate" values="0,0;0,-1000">
				</animateTransform>
			
				<animateTransform  accumulate="none" additive="replace" attributeName="transform" attributeType="XML" begin="bub9.end+10s" calcMode="linear" dur="5s" fill="remove" id="bub10" restart="always" type="translate" values="0,0;0,-1000">
				</animateTransform>
		</g>
	</g>
	<g class="st1">
		<g>
			
				<linearGradient id="SVGID_19_" gradientUnits="userSpaceOnUse" x1="684.2129" y1="-250.45" x2="691.9156" y2="-250.45" gradientTransform="matrix(1 0 0 1 0 994)">
				<stop  offset="0" style="stop-color:#FFFFFF"/>
				<stop  offset="1" style="stop-color:#29ABE2"/>
			</linearGradient>
			<path class="st64" d="M688.1,748.7c-1,0-2-0.5-2.7-1.5s-1.1-2.2-1.1-3.6s0.4-2.6,1.1-3.6c0.7-0.9,1.7-1.5,2.7-1.5s2,0.5,2.7,1.5
				s1.1,2.2,1.1,3.6s-0.4,2.6-1.1,3.6C690.1,748.1,689.1,748.7,688.1,748.7z			">
<animate  accumulate="none" additive="replace" attributeName="fill" begin="0s;bub11.end;bub12.end;" calcMode="linear" dur="10s" fill="remove" id="color2" restart="always" values="transparent;">
					</animate>
			</path>
			<path class="st3" d="M688.1,738.8c0.5,0,1,0.1,1.5,0.4s0.9,0.6,1.2,1.1c0.3,0.4,0.6,1,0.8,1.6s0.3,1.3,0.3,1.9
				c0,0.6-0.1,1.3-0.3,1.9c-0.2,0.6-0.5,1.1-0.8,1.6c-0.3,0.4-0.7,0.8-1.2,1.1c-0.5,0.2-1,0.4-1.5,0.4s-1-0.1-1.5-0.4
				c-0.5-0.2-0.9-0.6-1.2-1.1c-0.3-0.4-0.6-1-0.8-1.6s-0.3-1.3-0.3-1.9c0-0.6,0.1-1.3,0.3-1.9c0.2-0.6,0.5-1.1,0.8-1.6
				c0.3-0.4,0.7-0.8,1.2-1.1C687,738.9,687.5,738.8,688.1,738.8 M688.1,738.5c-2.2,0-4,2.3-4,5.2s1.8,5.2,4,5.2s4-2.3,4-5.2
				S690.2,738.5,688.1,738.5L688.1,738.5z			">
<animate  accumulate="none" additive="replace" attributeName="fill" begin="0s;bub11.end;bub12.end;" calcMode="linear" dur="10s" fill="remove" id="color2" restart="always" values="transparent;">
					</animate>
			</path>
			
				<animateTransform  accumulate="none" additive="replace" attributeName="transform" attributeType="XML" begin="10s;bub12.end+10s;" calcMode="linear" dur="4.8s" fill="remove" id="bub11" restart="always" type="translate" values="0,0;0,-1000">
				</animateTransform>
			
				<animateTransform  accumulate="none" additive="replace" attributeName="transform" attributeType="XML" begin="bub11.end+10s" calcMode="linear" dur="4.8s" fill="remove" id="bub12" restart="always" type="translate" values="0,0;0,-1000">
				</animateTransform>
		</g>
	</g>
</g>
<g id="buble2">
	<g class="st1">
		<g>
			
				<linearGradient id="SVGID_20_" gradientUnits="userSpaceOnUse" x1="1605.4481" y1="-300.1604" x2="1633.5513" y2="-300.1604" gradientTransform="matrix(1 0 0 1 0 994)">
				<stop  offset="0" style="stop-color:#FFFFFF"/>
				<stop  offset="1" style="stop-color:#29ABE2"/>
			</linearGradient>
			<path class="st65" d="M1619.5,709.8c-3.7,0-7.3-1.7-9.9-4.6c-2.6-3-4.1-7-4.1-11.3s1.5-8.4,4.1-11.3c2.7-3,6.2-4.6,9.9-4.6
				c3.7,0,7.3,1.7,9.9,4.6c2.6,3,4.1,7,4.1,11.3s-1.5,8.4-4.1,11.3C1626.8,708.1,1623.2,709.8,1619.5,709.8z			">
<animate  accumulate="none" additive="replace" attributeName="fill" begin="0s;bub37.end;bub38.end;" calcMode="linear" dur="10s" fill="remove" id="color2" restart="always" values="transparent;">
					</animate>
			</path>
			<path class="st3" d="M1619.5,678.4c1.8,0,3.7,0.4,5.3,1.2c1.7,0.8,3.1,1.8,4.3,3.4c1.2,1.4,2.3,3,3,5c0.7,1.8,1,4,1,6
				s-0.3,4.2-1,6c-0.7,1.8-1.7,3.6-3,5c-1.2,1.4-2.7,2.6-4.3,3.4c-1.7,0.8-3.5,1.2-5.3,1.2c-1.8,0-3.7-0.4-5.3-1.2
				c-1.7-0.8-3.1-1.8-4.3-3.4c-1.2-1.4-2.3-3-3-5c-0.7-1.8-1-4-1-6s0.3-4.2,1-6c0.7-1.8,1.7-3.6,3-5c1.2-1.4,2.7-2.6,4.3-3.4
				S1617.6,678.4,1619.5,678.4 M1619.5,677.5c-8,0-14.4,7.3-14.4,16.4c0,9.1,6.4,16.4,14.4,16.4c8,0,14.4-7.3,14.4-16.4
				S1627.5,677.5,1619.5,677.5L1619.5,677.5z			">
<animate  accumulate="none" additive="replace" attributeName="fill" begin="0s;bub37.end;bub38.end;" calcMode="linear" dur="10s" fill="remove" id="color2" restart="always" values="transparent;">
					</animate>
			</path>
			
				<animateTransform  accumulate="none" additive="replace" attributeName="transform" attributeType="XML" begin="10s;bub38.end+10s;" calcMode="linear" dur="5s" fill="remove" id="bub37" restart="always" type="translate" values="0,0;0,-1000">
				</animateTransform>
			
				<animateTransform  accumulate="none" additive="replace" attributeName="transform" attributeType="XML" begin="bub37.end+10s" calcMode="linear" dur="5s" fill="remove" id="bub38" restart="always" type="translate" values="0,0;0,-1000">
				</animateTransform>
		</g>
	</g>
	<g class="st1">
		<g>
			
				<linearGradient id="SVGID_21_" gradientUnits="userSpaceOnUse" x1="1634.1576" y1="-281.5426" x2="1651.6375" y2="-281.5426" gradientTransform="matrix(1 0 0 1 0 994)">
				<stop  offset="0" style="stop-color:#FFFFFF"/>
				<stop  offset="1" style="stop-color:#29ABE2"/>
			</linearGradient>
			<path class="st66" d="M1642.9,722.4c-2.3,0-4.5-1-6.2-2.9c-1.7-1.9-2.5-4.3-2.5-7c0-2.7,1-5.1,2.5-7c1.7-1.8,3.8-2.9,6.2-2.9
				c2.3,0,4.5,1,6.2,2.9c1.7,1.9,2.5,4.3,2.5,7c0,2.7-1,5.1-2.5,7C1647.4,721.3,1645.2,722.4,1642.9,722.4z			">
<animate  accumulate="none" additive="replace" attributeName="fill" begin="0s;bub39.end;bub40.end;" calcMode="linear" dur="10s" fill="remove" id="color2" restart="always" values="transparent;">
					</animate>
			</path>
			<path class="st3" d="M1642.9,702.8c1.1,0,2.3,0.3,3.3,0.8s1.9,1.1,2.7,2.1c0.8,0.9,1.4,1.9,1.8,3c0.4,1.1,0.6,2.4,0.6,3.7
				c0,1.3-0.2,2.6-0.6,3.7c-0.4,1.1-1,2.2-1.8,3c-0.8,0.9-1.7,1.7-2.7,2.1s-2.2,0.8-3.3,0.8c-1.1,0-2.3-0.3-3.3-0.8
				c-1-0.5-1.9-1.1-2.7-2.1c-0.8-0.9-1.4-1.9-1.8-3c-0.4-1.1-0.6-2.4-0.6-3.7c0-1.3,0.2-2.6,0.6-3.7c0.4-1.1,1-2.2,1.8-3
				c0.8-0.9,1.7-1.7,2.7-2.1C1640.6,703.1,1641.7,702.8,1642.9,702.8 M1642.9,702.3c-5,0-9,4.5-9,10.2c0,5.7,4,10.2,9,10.2
				c5,0,9-4.5,9-10.2C1651.8,706.8,1647.8,702.3,1642.9,702.3L1642.9,702.3z			">
<animate  accumulate="none" additive="replace" attributeName="fill" begin="0s;bub39.end;bub40.end;" calcMode="linear" dur="10s" fill="remove" id="color2" restart="always" values="transparent;">
					</animate>
			</path>
			
				<animateTransform  accumulate="none" additive="replace" attributeName="transform" attributeType="XML" begin="10s;bub40.end+10s;" calcMode="linear" dur="5.7s" fill="remove" id="bub39" restart="always" type="translate" values="0,0;0,-1000">
				</animateTransform>
			
				<animateTransform  accumulate="none" additive="replace" attributeName="transform" attributeType="XML" begin="bub39.end+10s" calcMode="linear" dur="5.7s" fill="remove" id="bub40" restart="always" type="translate" values="0,0;0,-1000">
				</animateTransform>
		</g>
	</g>
	<g class="st1">
		<g>
			
				<linearGradient id="SVGID_22_" gradientUnits="userSpaceOnUse" x1="1637.8986" y1="-318.5171" x2="1671.4192" y2="-318.5171" gradientTransform="matrix(1 0 0 1 0 994)">
				<stop  offset="0" style="stop-color:#FFFFFF"/>
				<stop  offset="1" style="stop-color:#29ABE2"/>
			</linearGradient>
			<path class="st67" d="M1654.6,693.3c-4.4,0-8.7-1.9-11.8-5.2c-3.1-3.4-4.9-7.8-4.9-12.6c0-4.8,1.7-9.3,4.9-12.6
				c3.2-3.3,7.4-5.2,11.8-5.2s8.7,1.9,11.8,5.2c3.1,3.4,4.9,7.8,4.9,12.6c0,4.8-1.7,9.3-4.9,12.6
				C1663.3,691.4,1659.1,693.3,1654.6,693.3z			">
<animate  accumulate="none" additive="replace" attributeName="fill" begin="0s;bub41.end;bub42.end;" calcMode="linear" dur="10s" fill="remove" id="color2" restart="always" values="transparent;">
					</animate>
			</path>
			<path class="st3" d="M1654.6,658.3c2.2,0,4.3,0.4,6.4,1.3s3.7,2.1,5.2,3.7c1.5,1.6,2.7,3.4,3.6,5.5s1.2,4.4,1.2,6.7
				c0,2.3-0.4,4.6-1.2,6.7c-0.9,2.1-2,4-3.6,5.5c-1.5,1.6-3.2,2.9-5.2,3.7c-2,0.9-4.2,1.3-6.4,1.3s-4.3-0.4-6.4-1.3
				c-2-0.9-3.7-2.1-5.2-3.7c-1.5-1.6-2.7-3.4-3.6-5.5c-0.9-2.1-1.2-4.4-1.2-6.7s0.4-4.6,1.2-6.7c0.9-2.1,2-4,3.6-5.5
				c1.5-1.6,3.2-2.9,5.2-3.7C1650.3,658.7,1652.4,658.3,1654.6,658.3 M1654.6,657.3c-9.6,0-17.2,8.2-17.2,18.3
				c0,10.2,7.7,18.3,17.2,18.3s17.2-8.2,17.2-18.3C1671.8,665.5,1664.2,657.3,1654.6,657.3L1654.6,657.3z			">
<animate  accumulate="none" additive="replace" attributeName="fill" begin="0s;bub41.end;bub42.end;" calcMode="linear" dur="10s" fill="remove" id="color2" restart="always" values="transparent;">
					</animate>
			</path>
			
				<animateTransform  accumulate="none" additive="replace" attributeName="transform" attributeType="XML" begin="10s;bub42.end+10s;" calcMode="linear" dur="5s" fill="remove" id="bub41" restart="always" type="translate" values="0,0;0,-1000">
				</animateTransform>
			
				<animateTransform  accumulate="none" additive="replace" attributeName="transform" attributeType="XML" begin="bub41.end+10s" calcMode="linear" dur="5s" fill="remove" id="bub42" restart="always" type="translate" values="0,0;0,-1000">
				</animateTransform>
		</g>
	</g>
	<g class="st1">
		<g>
			
				<linearGradient id="SVGID_23_" gradientUnits="userSpaceOnUse" x1="1582.7849" y1="-307.9903" x2="1596.8364" y2="-307.9903" gradientTransform="matrix(1 0 0 1 0 994)">
				<stop  offset="0" style="stop-color:#FFFFFF"/>
				<stop  offset="1" style="stop-color:#29ABE2"/>
			</linearGradient>
			<path class="st68" d="M1589.8,694c-1.8,0-3.7-0.9-5-2.3c-1.3-1.6-2-3.5-2-5.7c0-2.2,0.7-4.2,2-5.7c1.4-1.5,3.1-2.3,5-2.3
				c1.9,0,3.7,0.9,5,2.3c1.3,1.6,2,3.5,2,5.7c0,2.2-0.7,4.2-2,5.7C1593.4,693.1,1591.6,694,1589.8,694z			">
<animate  accumulate="none" additive="replace" attributeName="fill" begin="0s;bub43.end;bub44.end;" calcMode="linear" dur="10s" fill="remove" id="color2" restart="always" values="transparent;">
					</animate>
			</path>
			<path class="st3" d="M1589.8,678.3c1,0,1.8,0.2,2.7,0.6c0.8,0.4,1.6,1,2.2,1.7c0.6,0.7,1.1,1.6,1.5,2.4c0.3,1,0.5,2,0.5,3
				s-0.2,2.1-0.5,3s-0.8,1.7-1.5,2.4c-0.6,0.7-1.4,1.3-2.2,1.7c-0.8,0.4-1.7,0.6-2.7,0.6c-0.9,0-1.8-0.2-2.6-0.6
				c-0.9-0.4-1.6-1-2.2-1.7c-0.6-0.7-1.1-1.6-1.5-2.4c-0.3-1-0.5-2-0.5-3s0.2-2.1,0.5-3s0.9-1.7,1.5-2.4c0.6-0.7,1.3-1.3,2.2-1.7
				C1588,678.4,1588.9,678.3,1589.8,678.3 M1589.8,677.8c-4,0-7.2,3.7-7.2,8.2s3.2,8.2,7.2,8.2s7.2-3.7,7.2-8.2
				C1597,681.5,1593.8,677.8,1589.8,677.8L1589.8,677.8z			">
<animate  accumulate="none" additive="replace" attributeName="fill" begin="0s;bub43.end;bub44.end;" calcMode="linear" dur="10s" fill="remove" id="color2" restart="always" values="transparent;">
					</animate>
			</path>
			
				<animateTransform  accumulate="none" additive="replace" attributeName="transform" attributeType="XML" begin="10s;bub44.end+10s;" calcMode="linear" dur="4.4s" fill="remove" id="bub43" restart="always" type="translate" values="0,0;0,-1000">
				</animateTransform>
			
				<animateTransform  accumulate="none" additive="replace" attributeName="transform" attributeType="XML" begin="bub43.end+10s" calcMode="linear" dur="4.4s" fill="remove" id="bub44" restart="always" type="translate" values="0,0;0,-1000">
				</animateTransform>
		</g>
	</g>
	<g class="st1">
		<g>
			
				<linearGradient id="SVGID_24_" gradientUnits="userSpaceOnUse" x1="1616.4969" y1="-271.6248" x2="1627.6564" y2="-271.6248" gradientTransform="matrix(1 0 0 1 0 994)">
				<stop  offset="0" style="stop-color:#FFFFFF"/>
				<stop  offset="1" style="stop-color:#29ABE2"/>
			</linearGradient>
			<path class="st69" d="M1622.1,728.6c-1.5,0-2.9-0.7-3.9-1.8c-1-1.2-1.7-2.8-1.7-4.4s0.6-3.3,1.7-4.4c1-1.1,2.4-1.8,3.9-1.8
				c1.5,0,2.9,0.7,3.9,1.8c1,1.2,1.7,2.8,1.7,4.4s-0.6,3.3-1.7,4.4C1624.9,728,1623.5,728.6,1622.1,728.6z			">
<animate  accumulate="none" additive="replace" attributeName="fill" begin="0s;bub45.end;bub46.end;" calcMode="linear" dur="10s" fill="remove" id="color2" restart="always" values="transparent;">
					</animate>
			</path>
			<path class="st3" d="M1622.1,716.2c0.7,0,1.5,0.2,2.1,0.5c0.7,0.3,1.2,0.8,1.7,1.3s0.9,1.2,1.2,2c0.3,0.8,0.4,1.6,0.4,2.4
				c0,0.8-0.2,1.7-0.4,2.4c-0.3,0.8-0.7,1.4-1.2,2c-0.5,0.5-1,1-1.7,1.3c-0.7,0.3-1.4,0.5-2.1,0.5s-1.5-0.2-2.1-0.5
				c-0.7-0.3-1.2-0.8-1.7-1.3c-0.5-0.5-0.9-1.2-1.2-2c-0.3-0.8-0.4-1.6-0.4-2.4c0-0.8,0.2-1.7,0.4-2.4c0.3-0.8,0.7-1.4,1.2-2
				c0.5-0.5,1-1,1.7-1.3C1620.6,716.4,1621.3,716.2,1622.1,716.2 M1622.1,715.9c-3.2,0-5.7,2.9-5.7,6.5s2.5,6.5,5.7,6.5
				c3.2,0,5.7-2.9,5.7-6.5S1625.2,715.9,1622.1,715.9L1622.1,715.9z			">
<animate  accumulate="none" additive="replace" attributeName="fill" begin="0s;bub45.end;bub46.end;" calcMode="linear" dur="10s" fill="remove" id="color2" restart="always" values="transparent;">
					</animate>
			</path>
			
				<animateTransform  accumulate="none" additive="replace" attributeName="transform" attributeType="XML" begin="10s;bub46.end+10s;" calcMode="linear" dur="5.6s" fill="remove" id="bub45" restart="always" type="translate" values="0,0;0,-1000">
				</animateTransform>
			
				<animateTransform  accumulate="none" additive="replace" attributeName="transform" attributeType="XML" begin="bub45.end+10s" calcMode="linear" dur="5.6s" fill="remove" id="bub46" restart="always" type="translate" values="0,0;0,-1000">
				</animateTransform>
		</g>
	</g>
	<g class="st1">
		<g>
			
				<linearGradient id="SVGID_25_" gradientUnits="userSpaceOnUse" x1="1602.449" y1="-277.1057" x2="1609.1504" y2="-277.1057" gradientTransform="matrix(1 0 0 1 0 994)">
				<stop  offset="0" style="stop-color:#FFFFFF"/>
				<stop  offset="1" style="stop-color:#29ABE2"/>
			</linearGradient>
			<path class="st70" d="M1605.8,721.3c-0.9,0-1.7-0.4-2.3-1.3c-0.6-0.9-1-1.9-1-3.1s0.3-2.3,1-3.1c0.6-0.8,1.5-1.3,2.3-1.3
				s1.7,0.4,2.3,1.3c0.6,0.9,1,1.9,1,3.1s-0.3,2.3-1,3.1C1607.5,720.9,1606.7,721.3,1605.8,721.3z			">
<animate  accumulate="none" additive="replace" attributeName="fill" begin="0s;bub47.end;bub48.end;" calcMode="linear" dur="10s" fill="remove" id="color2" restart="always" values="transparent;">
					</animate>
			</path>
			<path class="st3" d="M1605.8,712.7c0.4,0,0.9,0.1,1.3,0.3c0.4,0.2,0.8,0.5,1,1c0.3,0.3,0.5,0.9,0.7,1.4c0.2,0.5,0.3,1.1,0.3,1.7
				c0,0.5-0.1,1.1-0.3,1.7c-0.2,0.5-0.4,1-0.7,1.4c-0.3,0.3-0.6,0.7-1,1c-0.4,0.2-0.9,0.3-1.3,0.3c-0.4,0-0.9-0.1-1.3-0.3
				c-0.4-0.2-0.8-0.5-1-1c-0.3-0.3-0.5-0.9-0.7-1.4s-0.3-1.1-0.3-1.7c0-0.5,0.1-1.1,0.3-1.7c0.2-0.5,0.4-1,0.7-1.4
				c0.3-0.3,0.6-0.7,1-1C1604.9,712.8,1605.4,712.7,1605.8,712.7 M1605.8,712.5c-1.9,0-3.5,2-3.5,4.5c0,2.5,1.6,4.5,3.5,4.5
				s3.5-2,3.5-4.5C1609.3,714.5,1607.7,712.5,1605.8,712.5L1605.8,712.5z			">
<animate  accumulate="none" additive="replace" attributeName="fill" begin="0s;bub47.end;bub48.end;" calcMode="linear" dur="10s" fill="remove" id="color2" restart="always" values="transparent;">
					</animate>
			</path>
			
				<animateTransform  accumulate="none" additive="replace" attributeName="transform" attributeType="XML" begin="10s;bub48.end+10s;" calcMode="linear" dur="4.3s" fill="remove" id="bub47" restart="always" type="translate" values="0,0;0,-1000">
				</animateTransform>
			
				<animateTransform  accumulate="none" additive="replace" attributeName="transform" attributeType="XML" begin="bub47.end+10s" calcMode="linear" dur="4.3s" fill="remove" id="bub48" restart="always" type="translate" values="0,0;0,-1000">
				</animateTransform>
		</g>
	</g>
</g>
</svg>
