<?xml version="1.0" encoding="utf-8"?>
<!-- Generator: Adobe Illustrator 22.1.0, SVG Export Plug-In . SVG Version: 6.00 Build 0)  -->
<svg version="1.1" id="Layer_1" xmlns="http://www.w3.org/2000/svg" xmlns:xlink="http://www.w3.org/1999/xlink" x="0px" y="0px"
	 viewBox="0 0 65.8 209.6" style="enable-background:new 0 0 65.8 209.6;" xml:space="preserve">
<style type="text/css">
	.st0{fill:#95845D;stroke:#262626;stroke-miterlimit:10;}
	.st1{opacity:0.3;fill:#FFD997;}
	.st2{opacity:0.4;fill:#FFD997;}
</style>
<path class="st0" d="M43.3,208.9c0,0,5.8,1,6.6-1.2c0.8-2.2,2.1-6-0.4-8.3c0,0-4.8-8.7-3.6-11c0,0-1.9-3.7-1.5-4.3
	c0,0-5.1,4-6.5,2.8c0,0-2,3.6,2.2,11.6C40.2,198.6,44.9,206.9,43.3,208.9z"/>
<path class="st0" d="M28.3,134.2c0,0-4.2-7.5-1.4-15.5c0.7-2,1.7-13.4-0.4-16.3c0,0-8.2-2.2-5-3.2c0,0,8.1-6.4,15.8-1.1
	c0,0,4,5.1-1.9,10.4c0,0-1.4,10.1,0.5,12c0,0,2.8,10.2,1.5,12.7C37.3,133.2,29.4,131.5,28.3,134.2z"/>
<path class="st1" d="M22.5,98.2c0,0,4-4.8,13.6-1.4c0,0,15.2-9.3,14.5-36.5c0,0,0.5-10.8-0.4-22.3c0,0-3-12.8-1.4-18
	c0,0,0.5-4.9-0.4-11.9c0,0-1.5-7.3-11.7-6.8c0,0-7.3-0.3-12.3,0.9c0,0-17.9,1.3-18.9,5.4c0,0-8-0.3-0.5,45.9c0,0,6.5,22.9,6.1,28.2
	C11,81.7,17,94.1,22.5,98.2z"/>
<path class="st2" d="M46.8,7.7c0,0-1,9,0,10c0,0-2,7,1,14c0,0,3,7,2,12c0,0-1,20,0,22c0,0-2,13-3,16c0,0-3,8-4,10
	C42.8,91.7,91.8,38.7,46.8,7.7z"/>
<path class="st0" d="M50.1,38.1c0,0-3-13.1-1.5-18.4c0,0,0.6-5-0.4-12.2c0,0-1.6-7.4-12-7c0,0-7.5-0.3-12.6,0.9
	c0,0-18.3,1.3-19.3,5.5c0,0-8.1-0.3-0.5,47c0,0,6.6,23.4,6.2,28.9c0,0,5.7,13.2,11.3,17.4c0,0,6.2-5.6,16-2c0,0,14-9.4,13.2-37.2
	C50.5,60.9,50.9,49.9,50.1,38.1z M34.4,93.5c-8.9-3.2-12.7,1.3-12.7,1.3C16.6,91,11,79.4,11,79.4c0.4-5-5.7-26.3-5.7-26.3
	c-7-43,0.5-42.8,0.5-42.8c0.9-3.8,17.6-5,17.6-5c4.7-1.2,11.5-0.9,11.5-0.9c9.5-0.4,10.9,6.3,10.9,6.3c0.9,6.6,0.4,11.1,0.4,11.1
	c-1.4,4.9,1.3,16.8,1.3,16.8c0.8,10.7,0.4,20.8,0.4,20.8C48.6,84.9,34.4,93.5,34.4,93.5z"/>
<path class="st0" d="M44.3,183.2c0,0-4.5,4.8-6.1,3.4c0,0-8.5-43-9.3-48.8c0,0-1.5-1.9-2.6-1.7c0,0,4.7-7.7,11.5-2.6
	c0,0,3.1,3.3,0.4,6.9c-2.7,3.6-1.3,8.5-0.1,14.5c0,0,2.9,20.3,2.7,23.3c-0.1,3,0.1-3,0.1-3s0.2,4.4,1.9,5.5
	C42.9,180.8,45.3,182.1,44.3,183.2z"/>
</svg>
