<?xml version="1.0" encoding="utf-8"?>
<!-- Generator: Adobe Illustrator 22.1.0, SVG Export Plug-In . SVG Version: 6.00 Build 0)  -->
<svg version="1.1" xmlns="http://www.w3.org/2000/svg" xmlns:xlink="http://www.w3.org/1999/xlink" x="0px" y="0px"
	 viewBox="0 0 500 500" style="enable-background:new 0 0 500 500;" xml:space="preserve">
<style type="text/css">
	.st0{fill:#FDF475;stroke:#000000;stroke-width:2;stroke-miterlimit:10;}
	.st1{fill:#FFFFFF;stroke:#000000;stroke-miterlimit:10;}
	.st2{fill:#113B8E;stroke:#000000;stroke-width:2;stroke-miterlimit:10;}
	.st3{fill:#EFED79;stroke:#000000;stroke-width:2;stroke-miterlimit:10;}
	.st4{fill:#DA8F42;stroke:#000000;stroke-miterlimit:10;}
	.st5{fill:#F64C43;}
	.st6{fill:#F64C43;stroke:#000000;stroke-miterlimit:10;}
	.st7{fill:#EDEDED;stroke:#000000;stroke-width:2;stroke-miterlimit:10;}
	.st8{fill:#55BAC5;stroke:#000000;stroke-miterlimit:10;}
	.st9{stroke:#000000;stroke-miterlimit:10;}
	.st10{fill:#0F0F0F;stroke:#000000;stroke-miterlimit:10;}
	.st11{fill:#FDF475;}
	.st12{fill:#C37427;stroke:#000000;stroke-miterlimit:10;}
	.st13{fill:#8A3729;stroke:#000000;stroke-miterlimit:10;}
	.st14{fill:#F69693;stroke:#000000;stroke-width:2;stroke-miterlimit:10;}
	.st15{fill:#0F0F0F;stroke:#000000;stroke-width:2;stroke-miterlimit:10;}
	.st16{fill:#FFFFFF;stroke:#000000;stroke-width:2;stroke-miterlimit:10;}
	.st17{fill:#D6D11D;stroke:#262626;stroke-width:0.25;stroke-miterlimit:10;}
	.st18{fill:#0C0C0C;}
	.st19{fill:#B77132;stroke:#000000;stroke-miterlimit:10;}
	.st20{fill:#EFEFEF;}
	.st21{fill:#FFFFFF;}
	.st22{fill:#FDF475;stroke:#212121;stroke-width:2;stroke-miterlimit:10;}
	.st23{fill:#113B8E;}
	.st24{stroke:#000000;stroke-width:2;stroke-miterlimit:10;transform-origin: bottom right;}
</style>
<g id="Layer_5">
	<path class="st0" id="one1; two2; three3; four4" d="M390.1,182.9l40.3-23.6c0,0-4.5-4.8,1.2-11.9c0,0,2.8-7.9-4-9.6c0,0-5.9-0.2-1.4-7.7
		c4.5-7.5,11.5,2.3,11.5,2.3s-0.3,9.6,3,10.6c0,0,5.9,4.6,6.8-3.1c0,0,4.3-15.1,11.5-12.6c0,0,8.3-0.1,3,7.2c0,0-9.9,6.3-8.3,11.5
		c0,0,0.9,2.9,6.3,0.8c0,0,12-4,11.7,3.5c0,0,1.2,4.4-1.2,5.8s-10.4-1.3-12.3,0.6c0,0-5.4,4,1.6,6.3c0,0,13,7.3,9,14
		c0,0-3,3.5-7.7-0.4c0,0-3.5-8.4-9.6-9c0,0-2.8-0.2-9,3.8c0,0-0.9,1.7-7.7-3.1c0,0-40.2,21.3-43.3,26.1L390.1,182.9z"/>
		<animateTransform
		 id="one1"
		 attributeName="transform"
		 dur="0.2s"
		 type="rotate"
		 from="0 390 182"
		 to="20 390 182"
		 begin="0s;four4.end"
			/>
		 <animateTransform
			id="two2"
			attributeName="transform"
			dur="0.2s"
			type="rotate"
			from="20 390 182"
 	 	  to="0 390 182"
			begin="one1.end"
		 />
			<animateTransform
			 id="three3"
			 attributeName="transform"
			 dur="0.2s"
			 type="rotate"
			 from="0 390 182"
			 to="-10 390 182"
			 begin="two2.end"
				/>
		 <animateTransform
			id="four4"
			attributeName="transform"
			dur="0.2s"
			type="rotate"
			from="-10 390 182"
 		  to="0 390 182"
			begin="three3.end"
			 />
</g>
<g id="Layer_1">
	<g id="Layer_12">
	</g>
	<g id="Layer_11">
	</g>
	<g id="Layer_10">
	</g>
	<g id="Layer_1_1_">
	</g>
	<g id="Layer_9">
	</g>
	<g id="Layer_2_1_">
	</g>
	<g id="Layer_7">
	</g>
	<g id="Layer_6">
	</g>
	<g id="Layer_8">
	</g>
	<g id="Layer_3">
	</g>
	<g id="Layer_4">
	</g>
	<polygon class="st1" points="207.7,262.3 212.4,307.7 171.7,298.3 166.4,251.7 	"/>
	<polygon class="st1" points="377.9,237.7 377.9,283 212.3,307.7 207.6,258.3 	"/>
	<path class="st2" d="M382,209.1c0,0,21,0,20.3-14.8c0,0-1-22.3-13-22.5c0,0-9.7-2.3-10.7,2.4c0,0-1.5,8.6,0,12.5
		C378.5,186.8,386.5,199.5,382,209.1z"/>
	<path class="st3" d="M210,265.8c0,0-3-6-3-8s1.8-10.5,2.2-18.5c0,0-7.7-14.7-8.3-18c0,0,2-18,0-20.7c0,0-13.3-14.7-12-18.7
		c0,0,5.3-11.3-0.1-20c0,0-11.9-12-11.2-18.7c0,0-0.7-20-4.7-23.3c0,0-12-7.3-9.3-20c0,0-0.7-13.3-6.7-17.3c0,0-14.7-12.3-11.8-19.8
		c0,0-5.5-2.2-6.8,11.2c0,0-1.3,6-8.7,6.7c0,0-10,2.7-9.3,13.3c0,0,1.3,4.7-12.7,8c0,0-10.7,11.3,14.7,25.3c0,0,6,13.8,4,19
		c-0.9,2.4,1.4,5.1,3,7.2c1.6,2.1,4.4,4.3,9,5.2c0,0-2,20.7,8,28c0,0,13.3,8.7,5.3,11.3l14,43.3c0,0-4.7,18.7,11.3,15.3
		c0,0,5.7,13.3,21.2,6.2L210,265.8z"/>
	<path class="st2" d="M148.9,196.9c0,0,34.3,22.3,30.7,32c0,0-2.3,15.7-47.3,0c0,0-11.3-4-5.3-24
		C126.9,204.9,131.2,191.3,148.9,196.9z"/>
	<g id="Layer_13">
	</g>
	<polygon class="st4" points="377.3,254.8 377.4,282.7 211.4,307.8 209.2,278.7 	"/>
	<g id="Layer_15">
		<polygon class="st1" points="326.9,242.2 321.5,256.3 309.5,247.3 304.5,259.3 298.5,259.3 289.9,252.1 274.2,264.3 249.2,251.9
					"/>
		<polygon class="st5" points="309.7,245.5 304.2,259 298.7,259 284.7,248 		"/>
	</g>
	<g id="Layer_14">
		<polygon class="st6" points="298.6,259.7 304,259.7 312.3,276 301.6,287.7 292.3,278.4 		"/>
	</g>
	<g id="Layer_16">
	</g>
	<path class="st0" d="M211.7,265.8c0,0,16-10.7,36-4.7c0,0,12.6,1.2,17.8-5.1c0,0,1-7,27.3-1.7c1.3,0.3,1.3,0.3,1.3,0.3
		s9,2.1,10.5-2.2s3.8-5.6,3.8-5.6s0.7-4.4,23.7,4.1c0,0,10.5,1.5,17-6.5c0,0,5.5-5.5,19.5,0c0,0,12-0.5,12-5.5c0,0,4.5-9,0-12
		c0,0-6-14.5,2-18c0,0,2.5-15.5-2.5-18c0,0-4-7-1.5-16.5c0,0,6.4-8.4,4.6-15.5c-0.6-2.5-8.6-17-2.1-25.5c0,0,2.5-11.5-5-23.5
		c0,0-6.5-14.5,1.5-26c0,0,0.5-10.5-8.5-19.5c0,0-10.5-16.5,2-22c0,0,5-16.5-20.5-9c0,0-6.5,1.5-7.8,4.5c0,0-1,4.3-15.7-2.3
		c0,0-8-2.3-15.3,8c0,0-2.7,5-22,0.3c0,0-14.3-2.7-19.3,2c0,0-5.3,8.5-27.3,2.5c0,0-11-4-22,8.5c0,0-7.5,2.5-29.5-5.5
		c0,0-6-5-24,6.5c0,0-5.5,2.5-15.5,1c0,0-18,0.5,0,19c0,0,11.5,15.5,10.5,23c0,0-3,11,6.5,17.5c0,0,9,5,7,21.5c0,0,3,12,8.5,19.5
		c0,0,7.5,5.5,4,15.5c0,0-3,11.5,7,19c0,0,7,11,3,20.5c0,0-0.5,12.5,6,16.5c0,0,4.5,4,2,19C206.4,250,206.4,269.8,211.7,265.8z"/>
	<circle onclick="circle_click(evt)" class="st7" cx="307.2" cy="111.5" r="37.3"/>
	<circle class="st7" cx="247.2" cy="119.5" r="37.3"/>
	<circle class="st8" cx="248" cy="119.8" r="13"/>
	<circle class="st8" cx="311" cy="106.8" r="13"/>
	<circle class="st9" cx="248" cy="118.8" r="6"/>
	<circle class="st9" cx="311" cy="106.8" r="6"/>
	<polygon class="st10" points="219,94.9 222.6,91.5 214,78.8 208.4,83.5 	"/>
	<polygon class="st10" points="255.6,83 261.8,85.2 265.4,70 260.7,68.4 	"/>

		<rect x="236.6" y="67.9" transform="matrix(0.9917 -0.1289 0.1289 0.9917 -7.7566 31.4505)" class="st10" width="5" height="15.5"/>

		<rect x="304.7" y="59.1" transform="matrix(0.9917 -0.1289 0.1289 0.9917 -6.0532 40.1557)" class="st10" width="5" height="15.5"/>
	<polygon class="st10" points="286.7,80.5 290.9,77.7 284.3,63.8 278.1,67.7 	"/>
	<polygon class="st10" points="319.1,76.6 325.3,78.8 328.9,63.6 324.2,62 	"/>
	<g>
		<path class="st0" d="M293.9,157.5c0,0,57.7,0,63.1-32.1c0,0-1-17.7-19.1-7.3c0,0-34.7,27.3-50,30L293.9,157.5z"/>
		<polygon class="st11" points="289.2,146.5 288,144.7 284.8,145.2 293.8,161.8 300.1,160.1 		"/>
	</g>
	<path class="st11" d="M208.4,172c0,0-11.1-4.8-9.4-12.2c0,0,9.3-22,29.3-15.3c0,0,18.4,4.8,8.8,18.9L208.4,172z"/>
	<path class="st12" d="M210.6,172.9c0,0-18.5-6.5-5.5-20.8c0,0,9.8-10.5,22.8-6.5c0,0,15.3,4,9.3,17.8c0,0,5.5-5.5,2.8-12.5
		c0,0-6-8.5-17-8.8c0,0-9.5-1-21,8.3C201.9,150.4,189.4,168.7,210.6,172.9z"/>
	<circle class="st12" cx="208.6" cy="155.8" r="1.8"/>
	<ellipse class="st12" cx="222" cy="151.5" rx="2.6" ry="1.7"/>
	<circle class="st12" cx="217.4" cy="158.7" r="1.9"/>
	<path class="st13" d="M219.4,165.3c0,0,0.9,6.3,4.8,13.6c4,7.4,19.5,34.4,25.2,36.4s20.6,16.7,42.4,12.1c0,0,21.3-0.9,23.3-22.4
		l-6-29.2c0,0-33.6,3.1-35.3,2.8c0,0-31.8-3.8-33.8-6.3c0,0-15.1-5.2-15.7-7.5l-1.6-1.3L219.4,165.3z"/>
	<g>
		<path class="st14" d="M304.8,221.9c0,0-12.8,7.3-22.1,6.1c0,0-21,1.3-33.7-13.7c0,0-0.4-4.8,17.3-2.2c0,0,11.3,3.1,15.5,6.5
			c0,0-12.6-9.1,2.1-7.9C283.9,210.7,300.7,211.7,304.8,221.9z"/>
		<path class="st15" d="M322.3,154h-1.2c0,0,6,7.3,18,9.8c0,0-11.3,11-47.7,12.7c0,0-27.3,6.5-67-11.3c0,0-0.6-3.3,4-2.3
			c0,0-7.6-3.3-13.3,4c0,0,1.4-1.3,3.9-1.1c0,0-0.6,9.3,22.9,42.3c0,0,4.9,12,29.9,19.5c0,0,24.6,4.7,37.9-8.5c0,0,8.6-4.9,4.5-24.8
			l-4-17.3h-2.3l4,17.5c0,0,5.4,14-3,23.6c0,0-12.4,12.2-36.5,8.4c0,0-24.1-9-29.7-19.2c0,0-25.8-36.7-22.3-41.9
			c0,0,1.3-1.9,2.7-1.2c0,0,0.5,1.2,1,1.7c0,0,31.7,17.2,67.5,11.8c0,0,30.7,1.2,49.7-13.8l0.8-1.2C342.1,163,334.6,163.4,322.3,154
			z"/>
		<polygon class="st16" points="319.9,173.3 321.9,189.3 302.9,193.3 299.5,177 		"/>
	</g>
	<polygon class="st16" points="270.2,178.9 290.8,178.2 291.3,192.2 272.4,195.8 	"/>
	<polygon class="st4" points="169.1,270.8 209.6,279.1 211.8,307.9 172.2,298.8 	"/>
	<g id="Layer_17">
		<g>
			<g>
				<path class="st1" d="M329.4,314.3l0.6,51.1c0,0,1.5,11.5,12,0v-52.5C342,312.9,338,314.3,329.4,314.3z"/>
				<polygon class="st17" points="330.3,313.7 330.3,333.8 341.5,333.7 341.5,310.7 				"/>
			</g>
			<path class="st18" d="M329.8,363.3c0,0,5.3,11.2,12,1.2c0,0,11.8,1.5,13.8,8.8c0,0,20-5.7,23.7,8c0,0,6,12-11.7,16.3
				c0,0-7.7,4.7-22.3-7.3c0,0-1,3.3-7.3,2.7c0,0-11.3-1-13.3-5.3V381C324.6,380.9,315.8,372.6,329.8,363.3z"/>
		</g>
		<path class="st19" d="M352.4,286.8l4.3,15.4c0,0-20.5,24-41.5,4.5v-14.6L352.4,286.8z"/>
		<path class="st19" d="M250.2,302.2c0,0,5.2,12.9,4.7,16.4c0,0-27,22.5-43,3.5c0,0-2-8.5,0-14L250.2,302.2z"/>
		<path class="st20" d="M367.8,377.6c0,0-10.6,4.7-3.2,5C364.6,382.6,377.9,376.3,367.8,377.6z"/>
	</g>
	<g id="Layer_18">
		<g>
			<g>
				<path class="st1" d="M226.8,329.7v50c0,0,1.5,11.5,12,0l1.4-52.5C240.2,327.1,235.3,328.5,226.8,329.7z"/>
				<polygon class="st17" points="226.8,329.7 226.8,351.1 239.1,351 240.2,327.1 				"/>
			</g>
			<path class="st18" d="M226.8,376.8c0,0,5.3,11.2,12,1.2c0,0,11.8,1.5,13.8,8.8c0,0,20-5.7,23.7,8c0,0,6,12-11.7,16.3
				c0,0-7.7,4.7-22.3-7.3c0,0-1,3.3-7.3,2.7c0,0-11.3-1-13.3-5.3v-6.7C221.6,394.4,212.8,386.1,226.8,376.8z"/>
		</g>
	</g>
	<g id="Layer_19">
		<path class="st21" d="M263.8,391.4c-2.1,0.9-5.8,2.9-3.9,5.1c1.1,1.3,3,1.5,4.5,0.7c2.5-1.4,6.1-4,2.3-5.8
			C265.8,391,264.7,391,263.8,391.4z"/>
	</g>
	<path class="st0" d="M134.3,235.9"/>
</g>
<g id="Layer_4_1_">
	<path class="st22 test" id="one; two; three; four" d="M156.8,217.3c0,0,4.3,3.8,0,6.4l-66.9-22c0,0-5.7,12.8-27.5,7.3c0,0-5.2-1.4-8.3,6.2c0,0-5.7,8.3-10.9,5
		c0,0-7.1-3.1,0-9.2c0,0,11.1-7.6,11.6-9.2c0,0,5.9-5.5-0.7-5.7c0,0-7.1-0.9-16.8,6.6c0,0-5.5,2.6-7.8-4c0,0-3.6-7.3,6.2-8.8
		c0,0,6.9-1.9,11.1-0.9c0,0,13.7-5,1.2-12.3c0,0-9.7,1.2-13-6.2c0,0-2.8-10.7,12.8-5.7c0,0,14.2,6.6,14.9,9c0,0,10,5.9,9.2-5
		c0,0-4.7-12.8,7.8-12.3c0,0,15.2-2.1,8.8,8.5c0,0-8.8-1.7-8.8,4.5c0,0-1.2,4.5,4,6.4c0,0,13.3,10.7,12.6,16.1L156.8,217.3z"/>
		    <animateTransform
			   id="one"
				 attributeName="transform"
				 dur="0.2s"
				 type="rotate"
				 from="0 156 217"
				 to="20 156 217"
				 begin="0s;four.end"
				  />
				 <animateTransform
				  id="two"
		 		  attributeName="transform"
					dur="0.2s"
		 			type="rotate"
		 			from="20 156 217"
		 			to="0 156 217"
					begin="one.end"
		 		 />
					<animateTransform
					 id="three"
					 attributeName="transform"
					 dur="0.2s"
					 type="rotate"
					 from="0 156 217"
					 to="-20 156 217"
					 begin="two.end"
					  />
				 <animateTransform
					id="four"
					attributeName="transform"
					dur="0.2s"
					type="rotate"
					from="-20 156 217"
					to="0 156 217"
					begin="three.end"
					 />


</g>
<g id="Layer_2">
</g>
<g id="Layer_3_1_">
	<g>
		<path class="st23" d="M164.7,212.7c0,0,19.2,18.5-4.7,17l-26.9-4.2c0,0,22.1-3.3,7.2-26.8L164.7,212.7z"/>
		<path class="st24" d="M143.3,205.6c0,0,10.4,17.8-6.7,19C136.6,224.6,147.8,219.2,143.3,205.6z"/>
	</g>
</g>
</svg>
