<?xml version="1.0" encoding="utf-8"?>
<!-- Generator: Adobe Illustrator 23.0.1, SVG Export Plug-In . SVG Version: 6.00 Build 0)  -->
<svg version="1.1" id="Layer_1" xmlns="http://www.w3.org/2000/svg" xmlns:xlink="http://www.w3.org/1999/xlink" x="0px" y="0px"
	 viewBox="0 0 360 360" style="enable-background:new 0 0 360 360;" xml:space="preserve">
<style type="text/css">
	.st0{fill:#F3BA42;}
	.st1{fill:url(#SVGID_1_);}
	.st2{opacity:0.17;}
	.st3{fill:url(#SVGID_2_);}
	.st4{fill:url(#SVGID_3_);}
	.st5{opacity:0.33;fill:#444444;enable-background:new    ;}
</style>
<g>
	<circle class="st0" cx="180" cy="180" r="180"/>
</g>
<radialGradient id="SVGID_1_" cx="209.9728" cy="31.1423" r="45.7965" gradientTransform="matrix(1.5885 0.7667 0.4749 -0.9839 -225.4312 179.7547)" gradientUnits="userSpaceOnUse">
	<stop  offset="0" style="stop-color:#FFFFFF"/>
	<stop  offset="0.1165" style="stop-color:#FFFFFF;stop-opacity:0.8652"/>
	<stop  offset="0.8643" style="stop-color:#FFFFFF;stop-opacity:0"/>
</radialGradient>
<path class="st1" d="M195.6,345.2c-12,24.9-54.3,29.3-94.4,9.9s-63-55.2-51-80.1s54.3-29.3,94.4-9.9
	C184.8,284.4,207.6,320.3,195.6,345.2z"/>
<g class="st2">
	
		<linearGradient id="SVGID_2_" gradientUnits="userSpaceOnUse" x1="-56.0213" y1="178.1515" x2="303.9899" y2="178.1515" gradientTransform="matrix(0.7301 -0.6833 -0.6833 -0.7301 211.21 394.7869)">
		<stop  offset="0" style="stop-color:#000000"/>
		<stop  offset="0.1106" style="stop-color:#2A2A2A"/>
		<stop  offset="0.2955" style="stop-color:#6A6A6A"/>
		<stop  offset="0.4722" style="stop-color:#9F9F9F"/>
		<stop  offset="0.6357" style="stop-color:#C9C9C9"/>
		<stop  offset="0.7832" style="stop-color:#E6E6E6"/>
		<stop  offset="0.9096" style="stop-color:#F9F9F9"/>
		<stop  offset="1" style="stop-color:#FFFFFF"/>
	</linearGradient>
	<circle class="st3" cx="180" cy="180" r="180"/>
</g>
<radialGradient id="SVGID_3_" cx="156.9192" cy="273.0561" r="45.7816" gradientTransform="matrix(2.6349 1.031 0.6289 -1.6073 -373.7913 369.2994)" gradientUnits="userSpaceOnUse">
	<stop  offset="0" style="stop-color:#FFFFFF"/>
	<stop  offset="0.8894" style="stop-color:#FFFFFF;stop-opacity:0"/>
</radialGradient>
<path class="st4" d="M332,139.4c-15.9,40.6-82.8,52.4-149.4,26.4S74.9,85.7,90.8,45s82.8-52.4,149.4-26.4S347.9,98.8,332,139.4z"/>
<g>
	<g>
		<path class="st5" d="M106.3,184.5c0,5.2,0,7.8,0,13c-1.9,0-2.8,0-4.7,0c0-5.2,0-7.7,0-12.9c-2.1,0.1-3.1,0.1-5.2,0.2
			c0-2,0-3.1,0-5.1c6.1-0.2,9.1-0.3,15.2-0.5c0,2.1,0,3.1,0,5.2C109.5,184.4,108.4,184.5,106.3,184.5z"/>
		<path class="st5" d="M117.5,192.1c3.7-0.1,5.6-0.1,9.4-0.1c0,2.1,0,3.2,0,5.3c-5.6,0-8.4,0.1-14.1,0.1c0-7.3,0-11,0-18.3
			c5.6-0.2,8.4-0.2,14.1-0.4c0,2.1,0,3.2,0,5.3c-3.7,0.1-5.6,0.1-9.4,0.2C117.5,187.4,117.5,189,117.5,192.1z M118.7,185.5
			c1.9,0,2.8-0.1,4.7-0.1c0,2.1,0,3.2,0,5.3c-1.9,0-2.8,0-4.7,0.1C118.7,188.7,118.7,187.6,118.7,185.5z"/>
		<path class="st5" d="M142,194.4c-1.6,1.8-3.5,2.8-5.8,2.8s-4.2-0.9-5.8-2.7s-2.4-4-2.4-6.5c0-2.6,0.8-4.8,2.4-6.6s3.5-2.8,5.8-2.8
			s4.2,0.8,5.8,2.7c0.8,0.9,1.4,1.9,1.8,3c-1.7,0.9-2.6,1.4-4.3,2.3c-0.2-0.6-0.4-1.1-0.9-1.5c-0.7-0.8-1.5-1.2-2.5-1.1
			s-1.8,0.4-2.5,1.2s-1,1.7-1,2.8s0.3,2,1,2.8s1.5,1.2,2.5,1.1s1.8-0.4,2.5-1.2c0.4-0.4,0.6-0.9,0.8-1.4c1.7,0.8,2.6,1.3,4.3,2.1
			C143.4,192.5,142.8,193.5,142,194.4z"/>
		<path class="st5" d="M145,178.5c1.9,0,2.8,0,4.7,0c0,2.1,0,3.2,0,5.3c2.3,0,3.5,0,5.9,0c0-2.1,0-3.2,0-5.3c1.9,0,2.8,0,4.7,0
			c0,7.4,0,11.2,0,18.6c-1.9,0-2.8,0-4.7,0c0-3.2,0-4.8,0-8c-2.3,0-3.5,0-5.9,0c0,3.2,0,4.8,0,8c-1.9,0-2.8,0-4.7,0
			C145,189.7,145,185.9,145,178.5z"/>
		<path class="st5" d="M175.4,194.2c-1.6,1.8-3.5,2.7-5.8,2.8s-4.2-0.9-5.8-2.7s-2.4-4-2.4-6.6s0.8-4.8,2.4-6.6
			c1.6-1.8,3.5-2.7,5.8-2.7s4.2,0.9,5.8,2.7c0.8,0.9,1.4,1.9,1.8,3c-1.7,0.9-2.6,1.3-4.3,2.3c-0.2-0.6-0.4-1.1-0.9-1.5
			c-0.7-0.8-1.5-1.2-2.5-1.2s-1.8,0.4-2.5,1.2s-1,1.7-1,2.8s0.3,2,1,2.8s1.5,1.2,2.5,1.2s1.8-0.4,2.5-1.2c0.4-0.4,0.6-0.9,0.8-1.4
			c1.7,0.9,2.6,1.3,4.3,2.1C176.8,192.3,176.2,193.3,175.4,194.2z"/>
		<path class="st5" d="M185.9,196.8c-2.3,0-4.2-0.9-5.8-2.6s-2.4-4-2.4-6.5s0.8-4.7,2.4-6.5c1.6-1.8,3.5-2.7,5.8-2.6
			c2.3,0,4.2,0.9,5.8,2.7s2.4,3.9,2.4,6.4s-0.8,4.6-2.4,6.4C190.1,195.8,188.2,196.8,185.9,196.8z M188.4,190.4c0.7-0.8,1-1.7,1-2.8
			s-0.3-2-1-2.8s-1.5-1.2-2.5-1.2s-1.8,0.4-2.5,1.1c-0.7,0.8-1,1.7-1,2.8s0.3,2,1,2.8s1.5,1.1,2.5,1.1
			C186.9,191.6,187.7,191.2,188.4,190.4z"/>
		<path class="st5" d="M195.3,178.7c1.9,0,2.8,0.1,4.7,0.1c0,5.1,0,7.7,0,12.8c1.9,0,2.8,0,4.7,0c0,2,0,3,0,5.1
			c-3.7,0-5.6,0.1-9.4,0.1C195.3,189.5,195.3,185.9,195.3,178.7z"/>
		<path class="st5" d="M205.9,178.9c1.9,0,2.8,0.1,4.7,0.1c0,5,0,7.5,0,12.5c1.9,0,2.8,0,4.7,0c0,2,0,3,0,5c-3.8,0-5.6,0.1-9.4,0.1
			C205.9,189.5,205.9,186,205.9,178.9z"/>
		<path class="st5" d="M221.1,191.6c3.8,0,5.6,0,9.4,0c0,1.9,0,2.9,0,4.8c-5.6,0-8.4,0.1-14.1,0.1c0-6.9,0-10.4,0-17.3
			c5.6,0.2,8.4,0.3,14.1,0.5c0,1.9,0,2.9,0,4.8c-3.7-0.1-5.6-0.1-9.4-0.2C221.1,187.1,221.1,188.6,221.1,191.6z M222.3,185.5
			c1.9,0,2.8,0.1,4.7,0.1c0,1.9,0,2.9,0,4.8c-1.9,0-2.8,0-4.7,0C222.3,188.4,222.3,187.4,222.3,185.5z"/>
		<path class="st5" d="M239.9,184.7c-1,0-1.8,0.3-2.5,1s-1,1.5-1,2.5s0.3,1.8,1,2.5s1.5,1,2.5,1s1.8-0.3,2.5-1l0.1-0.1
			c-0.6,0-0.9,0-1.4,0c0-1.8,0-2.8,0-4.6c2.8,0.1,4.2,0.1,7,0.2c0,0.9,0,1.4,0,2.3c0,2.2-0.8,4-2.4,5.6c-1.6,1.6-3.5,2.4-5.8,2.4
			s-4.2-0.8-5.8-2.4c-1.6-1.6-2.4-3.6-2.4-5.9c0-2.3,0.8-4.3,2.4-5.8c1.6-1.6,3.5-2.3,5.8-2.2s3.5,0.2,5.9,0.3c0,1.8,0,2.7,0,4.6
			C243.4,184.8,242.2,184.7,239.9,184.7z"/>
		<path class="st5" d="M253.9,191.7c3.7,0,5.6,0,9.4,0.1c0,1.7,0,2.6,0,4.3c-5.6,0-8.4,0.1-14.1,0.1c0-6.3,0-9.5,0-15.8
			c5.6,0.3,8.4,0.4,14.1,0.7c0,1.7,0,2.6,0,4.3c-3.7-0.1-5.6-0.2-9.4-0.3C253.9,187.8,253.9,189.1,253.9,191.7z M255.1,186.2
			c1.9,0.1,2.8,0.1,4.7,0.1c0,1.7,0,2.6,0,4.3c-1.9,0-2.8,0-4.7-0.1C255.1,188.9,255.1,188,255.1,186.2z"/>
	</g>
</g>
</svg>
