<?xml version="1.0" encoding="utf-8"?>
<!-- Generator: Adobe Illustrator 22.1.0, SVG Export Plug-In . SVG Version: 6.00 Build 0)  -->
<svg version="1.1" id="Layer_1" xmlns="http://www.w3.org/2000/svg" xmlns:xlink="http://www.w3.org/1999/xlink" x="0px" y="0px"
	 viewBox="0 0 500 500" style="enable-background:new 0 0 500 500;" xml:space="preserve">
<style type="text/css">
	.st0{opacity:0.29;}
	.st1{fill:url(#SVGID_1_);}
	.st2{fill:#FFFFFF;}
</style>
<g class="st0">
	<linearGradient id="SVGID_1_" gradientUnits="userSpaceOnUse" x1="30" y1="240" x2="470" y2="240">
		<stop  offset="0" style="stop-color:#FFFFFF"/>
		<stop  offset="1" style="stop-color:#29ABE2"/>
	</linearGradient>
	<path class="st1" d="M250,460c-58.8,0-114-22.9-155.6-64.4C52.9,354,30,298.8,30,240c0-58.8,22.9-114,64.4-155.6
		C136,42.9,191.2,20,250,20c58.8,0,114,22.9,155.6,64.4C447.1,126,470,181.2,470,240c0,58.8-22.9,114-64.4,155.6S308.8,460,250,460z
		"/>
	<path class="st2" d="M250,26c28.9,0,56.9,5.7,83.3,16.8c25.5,10.8,48.4,26.2,68,45.9c19.7,19.7,35.1,42.5,45.9,68
		c11.2,26.4,16.8,54.4,16.8,83.3s-5.7,56.9-16.8,83.3c-10.8,25.5-26.2,48.4-45.9,68c-19.7,19.7-42.5,35.1-68,45.9
		C306.9,448.3,278.9,454,250,454s-56.9-5.7-83.3-16.8c-25.5-10.8-48.4-26.2-68-45.9c-19.7-19.7-35.1-42.5-45.9-68
		C41.7,296.9,36,268.9,36,240s5.7-56.9,16.8-83.3c10.8-25.5,26.2-48.4,45.9-68c19.7-19.7,42.5-35.1,68-45.9
		C193.1,31.7,221.1,26,250,26 M250,14C125.2,14,24,115.2,24,240s101.2,226,226,226s226-101.2,226-226S374.8,14,250,14L250,14z"/>
</g>
<g>
	<path class="st2" d="M250,25c29.2,0,57.5,5.7,84.1,17c25.7,10.9,48.8,26.5,68.7,46.3c19.8,19.8,35.4,42.9,46.3,68.7
		c11.3,26.6,17,54.9,17,84.1s-5.7,57.5-17,84.1c-10.9,25.7-26.5,48.8-46.3,68.7c-19.8,19.8-42.9,35.4-68.7,46.3
		c-26.6,11.3-54.9,17-84.1,17s-57.5-5.7-84.1-17c-25.7-10.9-48.8-26.5-68.7-46.3c-19.8-19.8-35.4-42.9-46.3-68.7
		c-11.3-26.6-17-54.9-17-84.1s5.7-57.5,17-84.1c10.9-25.7,26.5-48.8,46.3-68.7c19.8-19.8,42.9-35.4,68.7-46.3
		C192.5,30.7,220.8,25,250,25 M250,15C125.2,15,24,116.2,24,241s101.2,226,226,226s226-101.2,226-226S374.8,15,250,15L250,15z"/>
</g>
</svg>
