<?xml version="1.0" encoding="utf-8"?>
<!-- Generator: Adobe Illustrator 22.1.0, SVG Export Plug-In . SVG Version: 6.00 Build 0)  -->
<svg version="1.1" xmlns="http://www.w3.org/2000/svg" xmlns:xlink="http://www.w3.org/1999/xlink" x="0px" y="0px"
	 viewBox="0 0 1900 871" style="enable-background:new 0 0 1900 871;" xml:space="preserve">
<style type="text/css">
	.st0{fill:url(#SVGID_1_);}
	.st1{fill:#BDE551;}
	.st2{fill:#B6E23B;}
	.st3{opacity:0.4;}
	.st4{fill:#F9A208;}
	.st5{fill:#3D60E0;stroke:#11057C;stroke-miterlimit:10;}
	.st6{fill:#11057C;}
	.st7{fill:#839FDD;}
	.st8{fill:#0037D3;stroke:#11057C;stroke-miterlimit:10;}
	.st9{opacity:0.75;}
	.st10{fill:#4CE03D;}
	.st11{opacity:0.6;}
	.st12{fill:#ED1C24;}
	.st13{fill:#DCF4A6;}
</style>
<g id="Layer_10">
</g>
<g id="Layer_1">
	<linearGradient id="SVGID_1_" gradientUnits="userSpaceOnUse" x1="0" y1="435" x2="1900" y2="435">
		<stop  offset="0" style="stop-color:#29ABE2"/>
		<stop  offset="0.1407" style="stop-color:#2DADE3"/>
		<stop  offset="0.278" style="stop-color:#39B1E4"/>
		<stop  offset="0.414" style="stop-color:#4CB9E7"/>
		<stop  offset="0.549" style="stop-color:#68C4EB"/>
		<stop  offset="0.6836" style="stop-color:#8BD2EF"/>
		<stop  offset="0.8179" style="stop-color:#B7E3F5"/>
		<stop  offset="0.9493" style="stop-color:#E9F7FC"/>
		<stop  offset="1" style="stop-color:#FFFFFF"/>
	</linearGradient>
	<rect y="-0.5" class="st0" width="1900" height="871"/>
	<path class="st1" d="M1612,619.5c0,0,112.4-257.4,134.2-29.3L1612,619.5z"/>
	<path class="st1" d="M833,594.1c0,0,147.3-339.3,367.4-13.6L833,594.1z"/>
</g>
<g id="Layer_16">
	<g>
		<path class="st2" d="M820.5,239.2c-0.2,0-0.5,0-0.7,0c-9.1-0.6-14.9-12.3-16.4-15.7c-3.6-2.4-5.9-5.5-6.7-9.2
			c-1.2-5.3,0.9-10.2,1.8-11.9c0.2-6.3,2.4-10.8,6.5-13.3c8.2-5,21.2,0.5,24,1.8c5.4,0.1,9.3,2,11.5,5.6c5.8,9.5-2.8,27.1-3.8,29
			l0,0.1C831.7,234.7,826.2,239.2,820.5,239.2z M807.8,220.9c1.5,3.6,6.5,13,12.4,13.3c4.8,0.3,9.3-5.7,12.2-10.9
			c2.4-4.7,7.7-18.1,4-24.1c-1.3-2.2-3.9-3.3-7.8-3.3c0,0,0,0,0,0l-0.6,0l-0.5-0.3c-3.6-1.8-14.2-5.7-19.8-2.3
			c-2.6,1.6-4,4.9-4.1,9.7l0,0.7l-0.4,0.6c-0.6,1-5.5,9.6,3.6,15.3l0.7,0.4L807.8,220.9z"/>
		<path class="st2" d="M813.7,335.7c-23.5,0-41.2-34.9-42.1-36.6l-0.3-0.5l-0.1-0.5c-1.5-6.2,1-13.3,4.6-19.5
			c-8.4,5.1-16.7,7.8-18.2,8.3c-23.8,9.3-41.1-2.4-47.4-10.3c-21.6-17.3-15.3-43.3-8.5-55.5c1.8-9.8,7.2-14.5,11.4-16.8
			c14.9-7.8,37.1,2.5,39.6,3.7l0.3,0.1c9.4,5.3,15.4-1.9,16.5-3.4l0.5-0.6l0.6-0.5c0.5-0.3,0.6-0.6,0.7-0.7c0-1.2-3-4.6-6.8-7.1
			c-23.3-5-27.6-29.9-26.6-42.8c0-27.4,11-43.4,20.3-52.1c8.8-8.2,17.8-11.4,20.3-12.2c19.6-10.7,39.1,7,42.8,10.7
			c15.8,9.1,2.1,42-2.4,51.6c2.3,14.7,6,15.6,6,15.6c2.7,0.5,9.4-6.4,14-14.4c9.3-32,26.7-49.8,27.5-50.6l0.4-0.4l0.5-0.3
			c11.1-6.7,21.9-8.7,32.2-5.8c17.1,4.7,26,21.1,26.3,21.8l0.1,0.2c10.7,23,7.4,40.7,2.7,51.5c-4.4,10.2-10.7,16.3-12.6,17.9
			c-11,14.1-37.8,13.9-43.7,13.6c-4,1.5-5.1,2.8-5.4,3.2c0.5,1.3,3.7,3.8,7,5.4c18.7-1,40.8,4.7,41.8,5l0.1,0
			c8.2,2.4,13.9,7.1,17.1,14.1c7.3,16.2-2.4,39-4,42.5c-9.4,33.5-38.1,34.1-45.1,33.7c-4.8,1.9-9.7,1.7-14.2-0.5
			c-15.3-7.5-22.5-37.1-23.5-41.5c-3.9-12.2-7.2-12.6-7.3-12.6c-1-0.1-3.3,2.1-4.5,4.1c-6.2,14.7,12.1,33.6,12.3,33.8l0.9,0.9
			l0.4,1.2c3.4,11.5,2.7,21.4-2.2,29.3c-6.7,10.7-18.8,14-22,14.7C820.6,335,817.1,335.7,813.7,335.7z M780.9,295.1
			c2.5,4.7,21.2,37.9,39.5,28.9l0.7-0.3l0.7-0.1c0.1,0,10.8-2,15.9-10.3c3.2-5.1,3.6-11.9,1.4-20c-4.3-4.7-21.6-25.3-13.3-44.1
			l0.2-0.4c0.6-1,5.9-10.2,14.3-9.4c6.6,0.7,11.8,7.1,15.9,19.8l0.1,0.5c2.5,11.3,9.6,30.8,18.2,35c2.2,1.1,4.4,1,6.8-0.1l1.3-0.6
			l1.5,0.2c1.1,0.1,27.5,3.2,35.7-26.7l0.1-0.4l0.2-0.4c2.8-6,9-23.8,4.1-34.5c-1.9-4.3-5.4-7.1-10.7-8.6
			c-1.3-0.3-22.9-5.8-39.8-4.6l-1.2,0.1l-1.1-0.5c-3.4-1.5-14.4-7-14.1-15.5c0.3-7.9,9.8-11.4,13-12.5l1-0.4l1,0.1
			c7.7,0.5,29.3-0.4,36.4-10l0.4-0.5l0.5-0.4c1-0.8,24.7-20.7,7.6-57.6c-0.7-1.2-7.8-13.4-20.2-16.8c-7.3-2-15.3-0.5-23.7,4.4
			c-2.6,2.8-16.9,19.3-24.7,46.4l-0.2,0.6l-0.3,0.5c-2.1,3.7-13,22-24.9,19.8c-9.9-1.9-12.9-15.4-14.3-25.5l-0.2-1.5l0.7-1.4
			c6.9-14.4,13.3-36.9,6.8-40.1l-0.8-0.4l-0.6-0.6c-0.2-0.2-17.1-17.6-31.7-9.2l-0.6,0.3l-0.6,0.2c-1.4,0.4-33.9,9.8-33.8,55l0,0.2
			l0,0.2c-0.1,1.2-2,28.6,19.4,32.5l0.9,0.2l0.8,0.5c2,1.2,11.9,7.8,12.2,15.8c0.1,3.3-1.3,6.3-4.1,8.5c-4.4,5.6-15.4,13.2-28.9,5.7
			c-5.6-2.7-21.7-8.4-30.5-3.8c-3.5,1.8-5.5,5.2-6.3,10.4l-0.1,0.9l-0.5,0.8c-0.6,1.1-15.4,27.1,6,43.7l0.5,0.4l0.4,0.5
			c0.5,0.7,13,16.6,36.3,7.4l0.4-0.1c7.9-2.4,28.8-11.5,31-23.9l0.9-5.3l5.2,1.3c0.7,0.2,6.5,1.7,8.4,7c0.9,2.4,1.1,6.3-2.6,11.1
			l-0.2,0.3l-0.3,0.3C789.5,275.2,779.8,288.1,780.9,295.1z"/>
			<animateTransform attributeName="transform"
				attributeType="XML"
				type="rotate"
				from="360 820 239"
				to= "0 820 239"
				dur="80s"
				repeatCount="indefinite" />
	</g>
</g>
<g id="Layer_12">
</g>
<g id="Layer_9">
	<path class="st1" d="M610.5,635.8c0,0,99-204,150.9-8.9L610.5,635.8z"/>
	<path class="st1" d="M1230,595.1c0,0,151-332.1,200.3-29L1230,595.1z"/>
	<path class="st1" d="M79.1,580.3c0,0,175-323.9,320.1,11.7L79.1,580.3z"/>
</g>
<g id="Layer_8">
	<g class="st3">
		<g>
			<path class="st4" d="M322.7,160.3c-2.8,0-5-0.9-6.4-2.6c-3-3.6-1.1-9.6-0.2-11.7c-0.7-5.5,3.1-8.5,6.3-9.4c3.1-2.5,5.7-2.5,7.4-2
				c4.7,1.3,7.1,7.5,7.7,9.5c2.2,2.7,2.2,5.2,1.7,6.8c-1.6,5.5-10.1,8.2-11.8,8.7l-0.1,0C325.7,160.1,324.1,160.3,322.7,160.3z
				 M321,147.4c-1,2.2-1.8,5.9-0.8,7.1c0.7,0.9,2.9,1,5.9,0.3c3-0.9,7.7-3.2,8.3-5.3c0.1-0.3,0.3-1-1-2.5l-0.4-0.4l-0.2-0.6
				c-0.5-1.9-2.4-6-4.4-6.6c-0.9-0.2-1.9,0.2-3.2,1.4l-0.5,0.5l-0.7,0.1c-1.1,0.2-3.5,1.1-2.9,4.5l0.1,0.8L321,147.4z"/>
			<path class="st4" d="M330.5,209.7c-7.9,0-13.8-4.4-16.8-8.2c-2.4-1.4-4.1-3.5-5-6.3c-0.6-2.2-0.6-4.5-0.3-6.9
				c-2.6,2.9-5.7,4.6-9.1,5.3c-6.4,1.2-11.7-2-13.5-3.3c-12-5.5-9.4-22.7-5.9-32.1l0.2-0.5l0.3-0.5c0.8-1.3,1.9-2.3,3.1-3.1
				c-1.2-0.6-2.1-1.1-2.6-1.4c-11.5-5.9-13.3-16.5-12.6-22c-0.8-14.2,10.6-20.9,17.6-22.8c4.6-2.8,8.5-2.3,11.1-1.4
				c8.4,3,12.1,14.4,12.8,16.6l0.1,0.3c0.1,0.6,0.5,2.3,2.4,2.5c0-0.3,0-0.7-0.1-1c-5.9-10.9,1.8-21.3,6.9-25.5
				c14.9-14.1,30.4-10.7,37-6.7c9.2,3.4,11.3,14,11.2,20.3c1.8,9.7-12.5,15.7-19,18c-1,1.3-1.6,2.3-1.9,3c1.4,0.1,3.3-0.1,5.1-0.5
				c14.1-7.1,25.9-6.7,26.4-6.7l0.6,0l0.6,0.2c6.3,1.9,10.9,5.4,13.4,10.4c4.2,8.2,1.4,17.2,1.1,18.1l-0.1,0.3
				c-7.2,17.9-21.7,21.1-28.9,20.2c-4.3,0.2-8.5-1.7-12-4.2c3.1,4.5,5.2,8.5,5.4,8.8l0.1,0.1c2.1,4.3,2.3,8.6,0.5,12.7
				c-3.6,8.3-14.2,12.5-16.8,13.3C337.7,208.9,333.9,209.7,330.5,209.7z M318.4,159c2.6,0,5.5,0.8,7.3,3.2c3.9,5-0.1,12.3-1.4,14.7
				l-0.2,0.4c-3.4,5.1-6.5,12.3-5.7,15.1c0.1,0.2,0.1,0.4,0.6,0.6l1.4,0.6l0.8,1.2c1,1.4,6.5,8.2,16.4,3l0.4-0.2l0.4-0.1
				c2.3-0.8,9.4-3.8,11.1-7.9c0.4-0.9,0.7-2.2-0.3-4.3c-0.4-0.7-5-9.4-10.2-14.4L338,170l-0.4-1.2c-0.9-2.6-2.5-9.1,1.7-12.7
				c2.8-2.3,6.5-2.3,11.2,0.3l0.9,0.5l0.6,0.8c2.8,3.6,8.7,8.7,12.1,8.4l0.7-0.1l0.7,0.1c1.2,0.2,12.5,1.2,18.6-13.8
				c0.2-0.7,1.7-6.1-0.5-10.3c-1.2-2.4-3.4-4.1-6.7-5.2c-2.3,0-11.2,0.6-21.4,5.8l-0.5,0.3l-0.6,0.1c-3.9,0.9-13.4,2.5-17.2-3.4
				c-3.8-6,2-13.3,4.2-16.1l1-1.2l1.5-0.5c6.2-1.9,12.6-5.5,13.6-7.4l-0.1-0.5l0.1-0.9c0-0.1,0.4-9.4-4.9-11.1l-0.6-0.2l-0.6-0.4
				c-0.4-0.3-12-7.3-25.4,5.4l-0.3,0.3c-0.3,0.3-8.3,6.9-4.3,13.5l0.5,0.8l0.2,0.9c0.4,2.4,1.1,8.3-2.3,11.6c-1.6,1.6-3.8,2.3-6.1,2
				c-4.6,0.2-11.5-2.2-13.4-10.1c-1.1-3.5-3.8-9-6.5-9.9c-0.3-0.1-1.1-0.4-2.9,0.8l-0.8,0.5l-0.9,0.2c-1.2,0.3-11.5,3-10.6,13.1
				l0.1,0.7l-0.1,0.7c-0.1,0.7-1,7.9,7.3,12l0.3,0.2c4.1,2.5,11.6,5.2,14.6,3.2l4.6-3l2.6,4.8c1,1.9,1.7,5,0.2,7.6
				c-0.7,1.3-2.5,3.6-6.7,4l-0.4,0l-0.4,0c-5-0.3-10.1,0.7-11.4,1.7c-1.4,4.4-4.4,16.7,1.2,18.9l0.7,0.3l0.6,0.5
				c0.8,0.6,3.6,2.2,6.1,1.7c1.8-0.4,3.5-1.7,5-4.1c0.4-4.3,2.5-16.8,12.4-20.2l0.5-0.1C316.3,159.2,317.3,159,318.4,159z
				 M316.6,170c-1.2,1.1-2.1,2.9-2.8,4.8c0.8-1.3,1.4-2.4,1.8-3C316,171.2,316.3,170.5,316.6,170z M344,164.5L344,164.5z"/>
				 <animateTransform attributeName="transform"
					 attributeType="XML"
					 type="rotate"
					 from="0 322 160"
					 to= "360 322 160"
					 dur="50s"
					 repeatCount="indefinite" />
		</g>
	</g>
</g>
<g id="Layer_11">
	<g>
		<path class="st5" d="M584.7,555.6c0,0-3.5,3.4-4.5,2.3c-1-1.1-2.3-13.4-1.2-16.4c1-3-4.2-0.6-4.2,0s-3.3,3.6-2.8,4.9
			c0.5,1.3,3.5,8.1,2.9,11.7s1.2,8.3,3.4,8.1c2.2-0.2,4.6-3,5.5-3S584.7,555.6,584.7,555.6z"/>
		<path class="st5" d="M606.3,527c0,0-4.3-2.1-5.4-1.5c-1,0.6,1.6-4,0-7.4c0,0-6.1,3.8-5.2-1.7c0.9-5.5,1.6-14,1.6-14
			s2.9-5.5,7.1-3.4c0,0-3.6,12.5-2.1,13.8c0,0,0-2.5,5.5-2.1c0,0,2.1-1.7,0.9,5.1C608.8,515.7,605.3,524.8,606.3,527z"/>
		<path class="st5" d="M608.8,602.5c0,0,0.3-7,0-9.6s0.2-3,0-4c-0.2-1.1-0.1-2.1-0.1-3.4c-0.1-1.3-0.2-1.9,0.1-3.6s-0.1-2.8,0-4.7
			c0-1.9-0.7-3,0.2-4s0.2-4.3,0-5.3c-0.2-1.1-1.4-1.7-0.4-3s2.4-4,2-7.9c0,0,0.2-4,1.4-7s1.2-4.7,1.7-6.2c0.5-1.5,0.7-4,1.9-5.7
			c1.2-1.7,1.2-3,0-5.1s-6.2-5.1-6.2-5.1s-2.4-0.4-3.1-1.7c-0.7-1.3-3.3-1.5-5.5-1.3c-2.3,0.2-3.1,0.5-5.9-0.1
			c-2.8-0.6-8.7,1.1-9.2,3.3s0.5,2.6,0,5.7s-1.6,3.2-1.2,7.7s0.4,7-0.1,9.4c-0.5,2.3-0.4,0.4,0,6.4c0.4,6-1.4,6.4-0.3,10.6
			c1.1,4.3,2.5,7,2.6,10.6c0.2,3.6,0.7,4.7,1.2,7.9s-0.9,6.2,0.5,10.8c1.4,4.7,1.4,4.7,1.4,4.7L608.8,602.5z"/>
		<path class="st6" d="M585.9,531.3c0,0,1,0,2.9-1c1.9-1,2.4,0,2.4,0s1.9,0.5,2.4,0.5s1.9,0,1.9,0h1.9h1.5c0,0,0,0.5,1,0
			s1-0.5,1.9,0c1,0.5,1.9,0.5,2.4,0.5c0.5,0,1-0.5,1.9-0.5s1-0.5,1.9,0s0-0.5,1.5,0.5c1.5,1,1.9,1,2.9,0.5c1-0.5,1-1.5,1.9-0.5
			c0,0,0.5,0.5,0,0.5l-0.5-0.5c0,0-0.5,0-1,0.5c-0.5,0.5-1,0.5-1,0.5s-1,0.5-1.5,0c0,0-1.5-1-1.9-1c0,0-0.7-0.4-1.2-0.1
			c-0.4,0.2-1-0.1-1.3,0c0,0-1.3,0.1-1.6,0.5c0,0-2.7,0-2.8-0.3c0,0-0.8-0.8-1.1-0.6s-0.9,0.9-1.4,0.7c-0.5-0.2-1.1-0.3-1.5-0.3
			c-0.4,0-4.5,0.4-5.1,0.1c-0.6-0.2-1-0.2-1.4-0.6c-0.5-0.4-0.5-0.6-1.2-0.4c-0.7,0.1-0.4,0.6-1.4,0.8c-1,0.2-1.3,0.5-2.1,0.5
			S585.5,531.4,585.9,531.3z"/>
		<ellipse class="st7" cx="603.3" cy="544.1" rx="4.1" ry="6.6"/>
		<ellipse class="st7" cx="602" cy="574.2" rx="2.9" ry="3.3"/>
		<path class="st8" d="M607.4,540.3c-1.4-1.7-2.7-5.3-4.1-4.7c-1.4,0.6-3.7,0-4,2.3s-0.3,2.3-0.3,2.3s-1,6.8,0,7.7
			c1,0.9,0.2,2.8,3.1,3c2.9,0.2,4.9,0.2,5.4-2.6C607.9,545.6,608.8,542,607.4,540.3z M606.1,547.1c-0.3,1.7-1.5,1.7-3.4,1.6
			c-1.8-0.1-1.3-1.3-2-1.9s0-4.8,0-4.8s0,0,0.2-1.5c0.2-1.5,1.6-1.1,2.5-1.5c0.9-0.4,1.7,1.9,2.6,2.9S606.4,545.4,606.1,547.1z"/>
		<path class="st8" d="M605.3,572.4c0,0-3.6-6-6.6,0c0,0-1.2,6.9,3.8,5.8C607.4,577.2,605.3,572.4,605.3,572.4z M602.3,577.4
			c-3.8,0.8-2.9-4.5-2.9-4.5c2.3-4.6,5.1,0,5.1,0S606.1,576.5,602.3,577.4z"/>
	</g>
	<g id="Layer_13">
	</g>
	<g id="Layer_14">
		<g>
			<path class="st5" d="M698.6,550.8c0,0-5.9,5.8-7.7,4c-1.8-1.8-3.8-22.9-2.1-28c1.8-5.1-7.1-1.1-7.1,0c0,1.1-5.6,6.2-4.7,8.4
				c0.9,2.2,5.9,13.8,5,20c-0.9,6.2,2,14.2,5.7,13.8c3.7-0.4,7.9-5.1,9.4-5.1S698.6,550.8,698.6,550.8z"/>
			<path class="st5" d="M735.6,501.8c0,0-7.4-3.6-9.2-2.5c-1.8,1.1,2.7-6.9,0-12.7c0,0-10.4,6.5-8.9-2.9c1.5-9.5,2.7-24,2.7-24
				s5-9.5,12.1-5.8c0,0-6.2,21.4-3.5,23.6c0,0,0-4.3,9.5-3.6c0,0,3.5-2.9,1.5,8.7C739.7,482.5,733.8,498.1,735.6,501.8z"/>
			<path class="st5" d="M739.8,630.9c0,0,0.6-12,0-16.4c-0.6-4.4,0.3-5.1,0-6.9c-0.3-1.8-0.1-3.6-0.2-5.8s-0.3-3.3,0.2-6.2
				s-0.1-4.7-0.1-8c0-3.3-1.2-5.1,0.3-6.9c1.5-1.8,0.3-7.3,0-9.1c-0.3-1.8-2.4-2.9-0.7-5.1c1.7-2.2,4-6.9,3.4-13.5
				c0,0,0.3-6.9,2.4-12s2.1-8,3-10.6c0.9-2.5,1.2-6.9,3.3-9.8c2.1-2.9,2.1-5.1,0-8.7c-2.1-3.6-10.6-8.7-10.6-8.7s-4.1-0.7-5.3-2.9
				s-5.6-2.5-9.5-2.2c-3.8,0.4-5.3,0.8-10.1-0.1s-14.8,1.9-15.7,5.6s0.9,4.4,0,9.8c-0.9,5.5-2.7,5.5-2.1,13.1c0.6,7.6,0.7,12-0.1,16
				c-0.8,4-0.7,0.7,0,10.9c0.7,10.2-2.4,10.9-0.6,18.2s4.2,12,4.5,18.2c0.3,6.2,1.2,8,2.1,13.5s-1.5,10.6,0.9,18.6
				c2.4,8,2.4,8,2.4,8L739.8,630.9z"/>
			<path class="st6" d="M700.6,509.3c0,0,1.7,0,5-1.7c3.3-1.7,4.2,0,4.2,0s3.3,0.9,4.2,0.9s3.3,0,3.3,0h3.3h2.5c0,0,0,0.9,1.7,0
				c1.7-0.9,1.7-0.9,3.3,0s3.3,0.9,4.2,0.9s1.7-0.9,3.3-0.9s1.7-0.9,3.3,0s0-0.9,2.5,0.9c2.5,1.7,3.3,1.7,5,0.9s1.7-2.6,3.3-0.9
				c0,0,0.8,0.9,0,0.9l-0.8-0.9c0,0-0.8,0-1.7,0.9s-1.7,0.9-1.7,0.9s-1.7,0.9-2.5,0c0,0-2.5-1.7-3.3-1.7c0,0-1.2-0.6-2-0.2
				c-0.7,0.4-1.7-0.2-2.2,0c0,0-2.3,0.1-2.8,0.8c0,0-4.6,0.1-4.7-0.6c0,0-1.3-1.4-1.9-1c-0.6,0.3-1.5,1.5-2.4,1.1
				c-0.9-0.3-1.9-0.6-2.5-0.6s-7.7,0.6-8.7,0.2c-1-0.4-1.7-0.3-2.4-0.9c-0.8-0.6-0.9-1-2.1-0.8s-0.7,1-2.4,1.4
				c-1.7,0.3-2.2,0.9-3.5,0.9C700.6,509.7,700.1,509.4,700.6,509.3z"/>
			<ellipse class="st7" cx="730.3" cy="531" rx="7" ry="11.3"/>
			<ellipse class="st7" cx="728.2" cy="582.5" rx="4.9" ry="5.6"/>
			<path class="st8" d="M737.4,524.5c-2.4-2.9-4.5-9.1-7-8c-2.5,1.1-6.3,0-6.9,4c-0.6,4-0.6,4-0.6,4s-1.8,11.6,0,13.1
				c1.8,1.5,0.3,4.7,5.3,5.1c5,0.4,8.3,0.4,9.2-4.4C738.3,533.6,739.7,527.4,737.4,524.5z M735.2,536.2c-0.6,3-2.6,3-5.7,2.7
				c-3.1-0.2-2.2-2.3-3.3-3.2c-1.1-0.9,0-8.2,0-8.2s0,0,0.4-2.5c0.4-2.5,2.8-1.8,4.3-2.5c1.5-0.7,2.9,3.2,4.4,5
				C736.7,529.4,735.7,533.2,735.2,536.2z"/>
			<path class="st8" d="M733.8,579.5c0,0-6.2-10.2-11.3,0c0,0-2.1,11.8,6.4,9.9C737.4,587.6,733.8,579.5,733.8,579.5z M728.6,588
				c-6.5,1.4-4.9-7.6-4.9-7.6c3.9-7.8,8.7,0,8.7,0S735.1,586.6,728.6,588z"/>
		</g>
	</g>
	<g id="Layer_15">
		<g>
			<path class="st5" d="M1157.2,465.1c0,0-12.1,8-15.7,5.5c-3.6-2.5-7.9-31.5-4.2-38.5c3.6-7-14.5-1.5-14.5,0s-11.5,8.6-9.7,11.5
				c1.8,3,12.1,18.9,10.3,27.4c-1.8,8.5,4,19.5,11.7,19c7.7-0.5,16.1-7,19.1-7C1157.2,483.1,1157.2,465.1,1157.2,465.1z"/>
			<path class="st5" d="M1232.9,397.8c0,0-15.1-5-18.7-3.5c-3.6,1.5,5.4-9.5,0-17.5c0,0-21.2,9-18.1-4c3-13,5.4-33,5.4-33
				s10.3-13,24.8-8c0,0-12.7,29.3-7.3,32.4c0,0,0-5.9,19.3-4.9c0,0,7.3-4,3,12C1241.3,371.3,1229.3,392.8,1232.9,397.8z"/>
			<path class="st5" d="M1241.5,575.1c0,0,1.2-16.5,0-22.5c-1.2-6,0.6-7,0-9.5c-0.6-2.5-0.2-5-0.4-8c-0.2-3-0.7-4.5,0.5-8.5
				c1.2-4-0.2-6.5-0.1-11c0.1-4.5-2.5-7,0.6-9.5c3.1-2.5,0.5-10,0-12.5c-0.5-2.5-4.9-4-1.5-7c3.4-3,8.2-9.5,7-18.5
				c0,0,0.6-9.5,4.8-16.5c4.2-7,4.2-11,6-14.5s2.4-9.5,6.6-13.5s4.2-7,0-12c-4.2-5-21.8-12-21.8-12s-8.5-1-10.9-4
				c-2.4-3-11.5-3.5-19.3-3c-7.9,0.5-10.9,1.2-20.6-0.2s-30.2,2.7-32,7.7c-1.8,5,1.8,6,0,13.5c-1.8,7.5-5.4,7.5-4.2,18
				c1.2,10.5,1.3,16.5-0.2,22c-1.6,5.5-1.5,1,0,15c1.5,14-4.9,15-1.1,25c3.8,10,8.6,16.5,9.2,25c0.6,8.5,2.4,11,4.2,18.5
				c1.8,7.5-3,14.5,1.8,25.5c4.8,11,4.8,11,4.8,11L1241.5,575.1z"/>
			<path class="st6" d="M1161.5,408.1c0,0,3.4,0,10.2-2.4c6.8-2.4,8.5,0,8.5,0s6.8,1.2,8.5,1.2s6.8,0,6.8,0h6.8h5.1c0,0,0,1.2,3.4,0
				s3.4-1.2,6.8,0c3.4,1.2,6.8,1.2,8.5,1.2c1.7,0,3.4-1.2,6.8-1.2s3.4-1.2,6.8,0c3.4,1.2,0-1.2,5.1,1.2c5.1,2.4,6.8,2.4,10.2,1.2
				c3.4-1.2,3.4-3.6,6.8-1.2c0,0,1.7,1.2,0,1.2l-1.7-1.2c0,0-1.7,0-3.4,1.2c-1.7,1.2-3.4,1.2-3.4,1.2s-3.4,1.2-5.1,0
				c0,0-5.1-2.4-6.8-2.4c0,0-2.5-0.8-4-0.3c-1.5,0.6-3.4-0.3-4.6,0c0,0-4.7,0.2-5.6,1.2c0,0-9.3,0.1-9.7-0.8c0,0-2.7-1.9-3.8-1.4
				c-1.2,0.4-3,2-4.9,1.6s-3.8-0.8-5.2-0.8s-15.8,0.9-17.8,0.3c-2-0.6-3.4-0.4-5-1.3s-1.9-1.3-4.4-1s-1.5,1.4-5,1.9
				c-3.5,0.4-4.6,1.2-7.2,1.3C1161.5,408.7,1160.3,408.3,1161.5,408.1z"/>
			<ellipse class="st7" cx="1222.2" cy="437.9" rx="14.4" ry="15.5"/>
			<ellipse class="st7" cx="1217.9" cy="508.7" rx="10.1" ry="7.7"/>
			<path class="st8" d="M1236.6,429c-4.8-4-9.3-12.5-14.3-11c-5,1.5-12.9,0-14.1,5.5c-1.2,5.5-1.2,5.5-1.2,5.5s-3.6,16,0,18
				c3.6,2,0.6,6.5,10.9,7c10.3,0.5,16.9,0.5,18.7-6C1238.4,441.5,1241.4,433,1236.6,429z M1232.1,445c-1.1,4.1-5.3,4.1-11.7,3.8
				c-6.4-0.3-4.5-3.1-6.8-4.4c-2.3-1.3,0-11.3,0-11.3s0,0,0.8-3.4c0.8-3.4,5.7-2.5,8.8-3.4c3.2-0.9,5.9,4.4,9,6.9
				C1235.1,435.7,1233.2,441,1232.1,445z"/>
			<path class="st8" d="M1229.3,504.5c0,0-12.6-14-23.1,0c0,0-4.2,16.1,13.1,13.6C1236.6,515.7,1229.3,504.5,1229.3,504.5z
				 M1218.7,516.1c-13.3,1.9-10.1-10.5-10.1-10.5c8.1-10.8,17.7,0,17.7,0S1232,514.2,1218.7,516.1z"/>
		</g>
	</g>
</g>
<g id="Layer_7">
	<g class="st9">
		<g>
			<path class="st10" d="M1703.5,207c-4.6,0-8.1-1.3-10.2-4c-4.9-6.1-1-16.3,0.3-19.4c-0.6-3.7,0.1-6.9,1.9-9.6
				c2.6-3.8,6.9-5.3,8.5-5.8c4.1-3.5,8.2-4.7,12.2-3.6c8,2.3,11.9,13.3,12.9,16.1c3.1,3.5,4.1,7.1,3.1,10.6
				c-2.6,9.2-18.6,13.9-20.4,14.4l-0.1,0C1708.6,206.6,1705.9,207,1703.5,207z M1698.4,185c-1.3,2.7-4.2,11.2-1.2,14.8
				c2.4,3,8.6,2.3,13.3,1.2c3.9-1.1,15.3-5.5,16.9-11c0.2-0.7,0.8-2.9-2.3-6.3l-0.4-0.4l-0.2-0.6c-0.9-3.2-4.5-11.8-9.6-13.3
				c-2.4-0.7-5,0.3-8,2.9l-0.5,0.5l-0.7,0.1c-0.9,0.2-8.7,2-7,10.4l0.2,0.8L1698.4,185z"/>

			<path class="st10" d="M1718,294c-13.5,0-23.5-7.6-28.3-13.8c-4-2-6.7-5.3-8-9.5c-4.2-14.1,10.1-35.5,12.4-38.8
				c4.7-8.4,3.7-10.8,3.7-10.8c-0.4-0.3-2.5-0.5-4.2-0.1c-10,3.6-13,20.1-13.3,26.1l-0.1,1.2l-0.6,1.1c-5.3,8.9-12,14.2-19.9,15.7
				c-10.6,2-19.7-3.7-22.2-5.4c-25-10.6-9.8-51.3-9.1-53l0.2-0.5l0.3-0.5c2.6-4,7.3-6.4,12.3-7.9c-6.4-2.2-11.4-5-12.8-5.8
				c-19.6-9.7-22.4-27.3-21.1-35.9c-1.6-23.6,18.3-34.7,29.9-37.5c7.3-4.5,13.5-3.9,17.4-2.5c13.7,4.9,20.1,24.9,20.8,27.2l0.1,0.3
				c2,8.5,9.8,7.8,10.7,7.7l0.8-0.1l0.8,0.2c0.1,0,0.1,0,0.2,0c0.5-1.2,0.6-4.4,0.2-7.2c-10.3-17.7,2.8-34.8,11.5-41.7
				c17.1-15.8,33.6-18.1,44.4-17.2c10.1,0.8,17.3,4.5,19.4,5.7c18.1,6.2,18.4,28.5,18.3,33.2c3.4,15.4-24.7,25.8-33.6,28.6
				c-6.9,8.7-6,11.5-6,11.5c0.9,1.5,8.5,1.8,16,0.2c25.2-12.5,46.3-11.8,47.2-11.8l0.6,0l0.6,0.2c10.7,3.1,18.3,8.9,22.5,17.1
				c7,13.6,1.8,28.7,1.6,29.3l-0.1,0.3c-8.2,20-21.3,28.1-30.7,31.4c-8.8,3.1-16.3,2.7-18.5,2.4c-15.3,1.1-30.1-15.1-33.8-19.5
				c-2.1-1-3.3-1.3-4-1.4c-0.2,1.3,0.1,3.9,0.8,6.2c11.3,11.1,20.4,28,20.8,28.8l0.1,0.1c3.3,6.6,3.7,13.1,1,19.3
				c-5.9,14-25.7,21-28.9,22.1C1730.2,292.6,1723.7,294,1718,294z M1695.6,210.7c3.3,0,7.5,0.8,10.2,4.3c5.3,7.1-1,18.3-3.1,21.9
				l-0.3,0.4c-5.5,7.8-13.3,23.1-11.1,30.5c0.5,1.8,1.6,2.9,3.5,3.7l1.4,0.6l0.8,1.2c0.5,0.7,13.3,18.3,35.9,6.7l0.4-0.2l0.4-0.1
				c5.2-1.6,19.4-7.8,23.1-16.6c1.4-3.4,1.2-6.9-0.7-10.9c-0.6-1-9.5-17.4-19.7-27.1l-0.9-0.8l-0.4-1.2c-1.1-3.1-4-13.4,1.7-18.4
				c5.5-4.7,13.4-0.5,16.1,0.8l0.9,0.5l0.7,0.8c4,5,16.6,17.6,26.3,16.6l0.6-0.1l0.6,0.1c1,0.2,26.2,3.4,39.1-27.5
				c0.4-1.1,3.7-12.2-1.1-21.4c-2.8-5.5-8.1-9.4-15.7-11.8c-3.4,0-21.5,0.6-42.3,11l-0.5,0.3l-0.6,0.1c-5,1.2-21.8,4.3-27.3-4.5
				c-4.7-7.6,2.1-17.5,7.7-24.3l1-1.2l1.4-0.4c14.4-4.4,29.5-12.9,28.2-17.6l-0.3-0.8l0.1-0.9c0-0.2,1-20-11.9-24.1l-0.6-0.2
				l-0.6-0.4c-1-0.6-24.9-15.1-52.3,10.2l-0.3,0.3c-0.7,0.6-18.2,14.6-8.8,29.5l0.5,0.8l0.2,0.9c0.5,2.8,1.9,12.4-3,17.3
				c-2.1,2.1-5,3-8.2,2.5c-6.3,0.4-17.6-2.2-20.8-15.2c-1.5-4.9-7-17.9-14.6-20.6c-2.8-1-5.9-0.4-9.3,1.9l-0.8,0.5l-0.9,0.2
				c-1,0.2-24.8,5.7-23,27.8l0.1,0.7l-0.1,0.7c-0.1,0.7-2.7,16.9,15.7,25.9l0.3,0.2c5.9,3.4,23.1,11.1,31.6,5.6l4.5-2.9l2.6,4.7
				c0.5,0.9,2.8,5.5,0.5,10c-1.1,2.1-3.5,4.6-9,5.1l-0.4,0l-0.4,0c-8.2-0.5-21.6,0.8-25.2,5.1c-1.6,4.5-10.9,33.9,4.3,39.8l0.7,0.3
				l0.6,0.4c0.1,0,7.2,5.4,14.9,3.9c4.7-0.9,8.9-4.3,12.5-10c0.5-5.8,3.6-28.2,20.2-33.9l0.4-0.1
				C1691.4,211.1,1693.2,210.7,1695.6,210.7z M1688.2,151.3L1688.2,151.3L1688.2,151.3z"/>

				<animateTransform attributeName="transform"
					attributeType="XML"
					type="rotate"
					from="0 1703 207"
					to= "360 1703 207"
					dur="60s"
					repeatCount="indefinite" />
		</g>
	</g>
</g>
<g id="Layer_4">
	<g>
		<g class="st11">
			<path class="st12" d="M1306.3,136.4c-3.7,0-7.4-1.5-8.4-1.9l-0.1,0c-4.6-2.2-6.9-5-7-8.2c-0.1-4.5,4.4-7.8,6.2-9
				c1.3-2.4,3-3.4,4.3-3.8c3.1-1,6,0.5,6.3,0.6l0.2,0.1c5.8,3.9,6.1,12.7,6.1,13.9c0.3,3.9-1.3,5.9-2.7,6.9
				C1309.9,136.1,1308.1,136.4,1306.3,136.4z M1300,129.9c2.6,1.1,7,2.1,8.5,1c0.5-0.4,0.7-1.2,0.6-2.5l0-0.2c0-2-0.7-7.6-3.8-9.8
				c-0.4-0.2-1.5-0.5-2.3-0.2c-0.7,0.2-1.2,0.9-1.7,1.9l-0.3,0.7l-0.7,0.4c-1.8,1-4.4,3.3-4.3,4.9
				C1295.9,127.3,1297.4,128.7,1300,129.9z"/>
			<path class="st12" d="M1307,194.6c-1.6,0-3-0.1-4.4-0.2l-0.5,0l-0.5-0.1c-6.9-2-9.8-6.2-10.9-9.5c-3.9-10.7,5.4-24.8,6.6-26.6
				c3-4.6,4.1-8.4,3.2-10.6c-1-2.2-4.4-3.3-5.5-3.5l-0.7-0.1l-0.7-0.3c-2.3-1.1-3.6-0.8-4.4-0.3c-3.4,1.7-5.9,8-6.9,11.8
				c1.7,7-3.9,13.4-7.8,16.4c-5.8,4.8-11,6.3-15.6,4.4c-6.5-2.7-8.1-10.9-8.4-13.8c-2.3-6.2-2.3-11.8,0.1-16.6
				c3.9-7.9,12.5-10.3,13.4-10.6l1.8-0.5l1.7,0.8c1.9,0.9,4.6,1.9,6.6,1c2.3-1.1,3.3-4.4,3.4-4.4l0.2-0.8l0.5-0.7
				c0.3-0.5,0.5-0.8,0.6-1c-1.8-1.2-7.7-2-12.8-1.8l-0.2,0c-10.8,0-18.5-3.1-22.9-9.1c-6.2-8.5-2.8-19.3-2.6-19.8l0.3-1l0.7-0.8
				c9.2-10.4,17-14.7,23.7-13.2c6.9,1.5,9,8.2,9.2,9l0.3,0.9l-0.1,1c-0.4,3.7,7.3,9.9,13.3,13.4c3-0.2,6.5-1,7.8-3.3
				c2.4-4-0.7-12-2-14.4l-0.3-0.6L1293,89c-1.6-7.4-0.5-13.9,3.1-19.5c6.7-10.3,19.9-13.1,20.5-13.2l0.5-0.1
				c24.7-2.7,29,11.9,29.2,12.6l0.3,1l-0.2,1.1c-0.4,2.5-4.1,24.5-17.9,26c-6.4,0.7-7,5.1-7,5.1l-0.1,0.9l-0.4,0.8
				c-2.4,4.7-3.1,8.4-1.9,10.4c1.5,2.3,6.2,3,8.3,3l1.1,0l1.1,0.5c7.5,3.4,16.5-5.5,16.6-5.6l0.4-0.4l0.5-0.3
				c15.5-9.7,25.7-3.5,29.3,1.6c5.4,5.4,5.9,10.9,5.4,14.5c-1.7,12.3-17.4,21.3-19.8,22.6c-14.6,8.8-28.7-5.5-30.4-7.2
				c-0.5-0.4-3.1,0-5.1,1l-0.7,0.3l-0.8,0.1c-3.5,0.5-4.8,1.3-5.2,1.6c0.2,1,1.7,3.2,3.2,4.6l0.2,0.2c10,10.1,14.4,18,13.7,24.3
				c-0.2,1.8-0.9,3.3-1.7,4.4C1332.4,191.3,1317.9,194.6,1307,194.6z M1304,184.5c3.1,0.2,20.4,0.6,21.6-8.6l0.3-2.3l1-0.6
				c-0.1-1.3-1.3-5.9-10.8-15.6c-1-0.9-3.8-3.7-5.3-7.3c-0.2,4.1-1.9,8.7-5.2,13.7l-0.1,0.1c-2.5,3.7-7.2,12.9-5.5,17.6
				C1300.5,182.3,1301.3,183.6,1304,184.5z M1265.2,145.2c-1.7,0.7-4.3,2.3-5.6,4.9c-1.2,2.4-1,5.4,0.5,9.1l0.3,0.7l0.1,0.8
				c0.2,2.7,1.4,5.8,2.4,6.2c0.4,0.1,2.1-0.1,5.5-2.9l0.3-0.2c1.8-1.4,4.8-4.7,4.1-6.3l-0.6-1.4l0.3-1.5c0.1-0.7,0.9-4.1,2.6-8
				C1272.3,146.9,1269.1,146.7,1265.2,145.2z M1297.4,134.4c2.4,0.5,9.4,2.6,12.3,9.1c0.1,0.2,0.2,0.4,0.2,0.6
				c0.1-0.6,0.2-1.1,0.4-1.7c1.4-4.4,5.6-7.2,12.6-8.3c2.6-1.1,10.6-3.9,15.8,1.3l0.2,0.2c0.1,0.1,9.8,10.5,18.1,5.5l0.2-0.1
				c3.5-1.9,13.8-8.8,14.7-15.2c0.2-1.4,0.1-3.5-2.9-6.3l-0.5-0.5l-0.2-0.4c-0.6-0.8-4.9-5.7-15.5,0.7c-2.5,2.4-14.2,12.5-26.4,7.7
				c-3.2-0.1-11.7-1.1-15.8-7.7c-3.2-5-2.8-11.6,1.1-19.6c1-4.4,5.2-11.7,15.7-12.8c4.3-0.5,7.6-10,8.8-16.1
				c-1.2-1.8-5.3-6-17.8-4.7c-1.4,0.3-9.9,2.6-13.9,8.9c-2,3.2-2.6,6.9-1.8,11.3c1.5,3.2,6.5,14.8,1.4,23.5c-3.1,5.3-9,8.1-17.5,8.3
				l-1.3,0l-1.1-0.6c-3.4-1.8-19.8-10.9-19.8-22.5c-0.3-0.5-0.8-1.3-1.6-1.5c-0.4-0.1-4.4-0.6-13.2,9.2c-0.4,1.9-1,6.6,1.4,10
				c3,4,9.6,4.9,14.6,4.9c4.3-0.2,18-0.2,22.1,7c1.1,1.9,1.9,4.9,0.2,8.8C1290.4,132.8,1293.6,132.8,1297.4,134.4z M1278.9,128.9
				L1278.9,128.9L1278.9,128.9z"/>
		</g>
		<animateTransform attributeName="transform"
			attributeType="XML"
			type="rotate"
			from="0 1306 136"
			to= "360 1306 136"
			dur="40s"
			repeatCount="indefinite" />
	</g>

</g>
<g id="Layer_5">
</g>
<g id="Layer_6">
</g>
<g id="Layer_2">
	<path class="st13" d="M0,556.5c0,0,25.5-65.5,122.5-28.5s111,60,192,28s157-37,197-12s98,80,199,76s197-93,239-80s36,56,81,44
		s43-65,88-48s27,52,144,32s203-57,296-20s159,52,208,20s75-45,104-32s29,32.4,29,32.4V871H-0.5L0,556.5z"/>
</g>
</svg>
