<?xml version="1.0" encoding="utf-8"?>
<!-- Generator: Adobe Illustrator 22.1.0, SVG Export Plug-In . SVG Version: 6.00 Build 0)  -->
<svg version="1.1" id="Layer_1" xmlns="http://www.w3.org/2000/svg" xmlns:xlink="http://www.w3.org/1999/xlink" x="0px" y="0px"
	 viewBox="0 0 65.8 209.6" style="enable-background:new 0 0 65.8 209.6;" xml:space="preserve">
<style type="text/css">
	.st0{fill:#95845D;stroke:#262626;stroke-miterlimit:10;}
	.st1{opacity:0.3;fill:#99B6FF;}
	.st2{opacity:0.4;fill:#99B6FF;}
</style>
<path class="st0" d="M23,208.9c0,0-5.8,1-6.6-1.2c-0.8-2.2-2.1-6,0.4-8.3c0,0,4.8-8.7,3.6-11c0,0,1.9-3.7,1.5-4.3c0,0,5.1,4,6.5,2.8
	c0,0,2,3.6-2.2,11.6C26.1,198.6,21.4,206.9,23,208.9z"/>
<path class="st0" d="M38,134.2c0,0,4.2-7.5,1.4-15.5c-0.7-2-1.7-13.4,0.4-16.3c0,0,8.2-2.2,5-3.2c0,0-8.1-6.4-15.8-1.1
	c0,0-4,5.1,1.9,10.4c0,0,1.4,10.1-0.5,12c0,0-2.8,10.2-1.5,12.7C29,133.2,36.9,131.5,38,134.2z"/>
<path class="st1" d="M43.8,98.2c0,0-4-4.8-13.6-1.4c0,0-15.2-9.3-14.5-36.5c0,0-0.5-10.8,0.4-22.3c0,0,3-12.8,1.4-18
	c0,0-0.5-4.9,0.4-11.9c0,0,1.5-7.3,11.7-6.8c0,0,7.3-0.3,12.3,0.9c0,0,17.9,1.3,18.9,5.4c0,0,8-0.3,0.5,45.9c0,0-6.5,22.9-6.1,28.2
	C55.3,81.7,49.2,94.1,43.8,98.2z"/>
<path class="st2" d="M19.5,7.7c0,0,1,9,0,10c0,0,2,7-1,14c0,0-3,7-2,12c0,0,1,20,0,22c0,0,2,13,3,16c0,0,3,8,4,10
	C23.5,91.7-25.5,38.7,19.5,7.7z"/>
<path class="st0" d="M15.8,60.9C15,88.8,29,98.2,29,98.2c9.8-3.6,16,2,16,2c5.6-4.2,11.3-17.4,11.3-17.4C55.9,77.4,62.5,54,62.5,54
	C70.1,6.7,62,7,62,7c-1-4.2-19.3-5.5-19.3-5.5c-5.1-1.3-12.6-0.9-12.6-0.9c-10.4-0.5-12,7-12,7c-1,7.2-0.4,12.2-0.4,12.2
	c1.6,5.4-1.5,18.4-1.5,18.4C15.3,49.9,15.8,60.9,15.8,60.9z M18.4,59.5c0,0-0.4-10,0.4-20.8c0,0,2.8-11.9,1.3-16.8
	c0,0-0.5-4.6,0.4-11.1c0,0,1.4-6.8,10.9-6.3c0,0,6.8-0.3,11.5,0.9c0,0,16.7,1.2,17.6,5c0,0,7.4-0.2,0.5,42.8c0,0-6,21.3-5.7,26.3
	c0,0-5.6,11.5-10.7,15.4c0,0-3.7-4.5-12.7-1.3C31.9,93.5,17.7,84.9,18.4,59.5z"/>
<path class="st0" d="M22,183.2c0,0,4.5,4.8,6.1,3.4c0,0,8.5-43,9.3-48.8c0,0,1.5-1.9,2.6-1.7c0,0-4.7-7.7-11.5-2.6
	c0,0-3.1,3.3-0.4,6.9s1.3,8.5,0.1,14.5c0,0-2.9,20.3-2.7,23.3c0.1,3-0.1-3-0.1-3s-0.2,4.4-1.9,5.5C23.4,180.8,21,182.1,22,183.2z"/>
</svg>
