<?xml version="1.0" encoding="utf-8"?>
<!-- Generator: Adobe Illustrator 22.1.0, SVG Export Plug-In . SVG Version: 6.00 Build 0)  -->
<svg version="1.1" id="Layer_1" xmlns="http://www.w3.org/2000/svg" xmlns:xlink="http://www.w3.org/1999/xlink" x="0px" y="0px"
	 viewBox="0 0 92.3 143.9" style="enable-background:new 0 0 92.3 143.9;" xml:space="preserve">
<style type="text/css">
	.st0{fill:#F3A3C7;stroke:#2D2D2D;stroke-miterlimit:10;}
	.st1{fill:#FFFFFF;}
	.st2{fill:#F065A2;}
	.st3{fill:#212121;}
</style>
<path class="st0" d="M84.8,65.1c0,0-5.7,3.3-7.3,3.3c0,0-5,16.3,2,23c0,0,6.2,12-3.7,19c0,0-8,20.7,4.5,21c0,0,5.5,2,4.5-8
	c0,0-4-8.7,3-12.3c0,0,9-12,0-19.7s-2-17-2-17S86.5,67.8,84.8,65.1z"/>
<path class="st0" d="M59.8,72.9h5c0,0-5,7.3,0,12.7c0,0,9,8,4.7,16.7c0,0-5.7,21.3-12.7,18.7c0,0-9.3-2.7,1.3-13c0,0,7.3-6.3-1-15.3
	C57.2,92.6,49.8,85.3,59.8,72.9z"/>
<path class="st0" d="M45,77.9l-9.4,1c0,0-9.3,13.9,0,21.1c9.3,7.2-1.7,20.9-1.7,20.9s-11.6,19.3,1.7,22c13.3,2.7,7-6.3,7-6.3
	s-6.7-19.7,4-25.7s-4.3-17.3-4.3-17.3S40.6,80.6,45,77.9z"/>
<path class="st0" d="M10.5,79.9h9.7c0,0-11,7.7-2.3,15.3s-0.3,19.7-0.3,19.7s-4.7,0-5.3,12.3c0,0-13.3,3-8-10.7c0,0,13.3-10,5-21.3
	C9.2,95.3,3.5,90.3,10.5,79.9z"/>
<path class="st0" d="M7.8,64.8c0,0-15-20.7,6.3-44c0,0,21.3-28.3,52.3-18c0,0,25.7,20.3,14.3,49.3c0,0,3.3-10.3,10,2.3
	c0,0,5.7,7.7-12,14c0,0-30,12.3-64,11.7c0,0-12.3,2-14.3-7.3C0.5,72.8,0.2,64.1,7.8,64.8z"/>
<path class="st1" d="M17.8,57.8c0,0-7.3-2,0-14.7c0,0,5.3-8.7,1.3-10.3c0,0-1.7-12.5,19.7-21.3c0,0,9-3.1,9.7,1.6c0,0-1,9-11.3,9.7
	c0,0-6.9,1.7-5.6,11.4C31.5,34.1,32.5,55.1,17.8,57.8z"/>
<ellipse transform="matrix(0.6812 -0.7321 0.7321 0.6812 -2.743 54.903)" class="st2" cx="61.7" cy="30.6" rx="11.2" ry="8.5"/>
<ellipse transform="matrix(0.7071 -0.7071 0.7071 0.7071 -20.133 44.93)" class="st2" cx="44.2" cy="46.8" rx="8.7" ry="5.7"/>
<ellipse transform="matrix(0.6433 -0.7656 0.7656 0.6433 -18.3437 66.1598)" class="st2" cx="61.8" cy="52.8" rx="7.3" ry="4.3"/>
<path class="st3" d="M22.8,67.1c0,0,15.3,4,33.7-3.7C56.5,63.4,29.8,69.4,22.8,67.1z"/>
</svg>
