<?xml version="1.0" encoding="utf-8"?>
<!-- Generator: Adobe Illustrator 22.1.0, SVG Export Plug-In . SVG Version: 6.00 Build 0)  -->
<svg version="1.1" id="Layer_1" xmlns="http://www.w3.org/2000/svg" xmlns:xlink="http://www.w3.org/1999/xlink" x="0px" y="0px"
	 viewBox="0 0 1901.4 208.5" style="enable-background:new 0 0 1901.4 208.5;" xml:space="preserve">
<style type="text/css">
	.st0{fill:#A0C7C6;stroke:#000000;stroke-miterlimit:10;}
	.st1{fill:#FFFFFF;stroke:#000000;stroke-miterlimit:10;}
	.st2{fill:#E55C2F;}
	.st3{fill:#FFFFFF;}
	.st4{fill:#070707;}
	.st5{fill:#3B5672;stroke:#000000;stroke-miterlimit:10;}
</style>
<g>
	<path class="st0" d="M812.9,162.4c0,0,6.3,5.8,6.7,6c0.4,0.3,2.1,1.1,1.1-1.3c0,0-3-5.7-4.5-7.1c0,0-0.8-8.5-1.6-13.6
		c0,0-2.2-10.7-1.2-11.8c0,0,6,2.4,5.7,3.5c0,0,0.1,2.1-4.6,5c0,0-1.5,3.9,3.5,4.7c0,0,2.8-0.1-0.8-3.4c0,0,7-3.7,5.9-5.9
		c0,0-0.5-4.7-9.9-7.7c0,0,1.4-30.1-3.3-34c0,0-5-41.2,28.9-81.1c0,0-28.9,26.4-33,76.8c0,0-7.6-3-12.1,2c0,0-19-29.4-10.3-74.2
		c0,0-10.1,40.2,7.6,77.1c0,0-7.9,16.1-3.5,35.7c0,0-6.8,4.1-7.6,6.4s2,3.4,2,3.4l6,2.2c0,0-2.2,2-1.7,2.8c0,0-0.5,1.7,2.4,0.3
		l2.1-1.7c0,0,0-1.8-1-2.6c0,0-6.1-3-5.8-3.5c0,0,2.7-2.1,4.5-2c0,0,6.2,21.8,9.3,22.6c0,0,1.5,9.4,2.8,10.6c0,0,1.4,2.7,1.3-1.5
		c0,0,0.5-5.8,0.1-6.5C801.8,162.8,807.1,166.2,812.9,162.4z"/>
	<path class="st1" d="M794.4,108.6c0,0,0.8,12.9,6.7,11.4c5.2-1.4,5-7.7,4.3-11.9C805.5,108.1,801.3,110.3,794.4,108.6z"/>
	<path class="st2" d="M796.7,109.8c0,0-0.1,10,4.8,7.4c0,0,2.8-2.5,1.8-7.7L796.7,109.8z"/>
	<path class="st3" d="M801.7,111.1c0,0,0.5,3.9-1.3,3.7c0,0-2.9,0.7-2-3.3L801.7,111.1z"/>
	<path class="st0" d="M804.9,108.1c0,0,3.3,0.1,1,1.5c0,0-3.8,2.6-12,0.8c0,0-1.6-0.5,1-1.7c0,0,0.1-8,5.6-8.3c0,0,4.3,0,5.2,7.5
		l0,0.2L804.9,108.1z"/>
	<path class="st4" d="M796.3,96.9c0,0-0.7,0.5-2.2,0.1c-1.5-0.4,6.8-5.6,11.9,1.5l-0.4,0c0,0,1,1.2,1,1.9c0,0-0.5-0.1-0.8-0.5
		c0,0,0.6,1.1,0.5,1.4c0,0-3.3-3.9-10-1.3c0,0-1-0.7,1-1.3c0,0-1.8,0.3-2.1-0.1C795.1,98.6,795.1,97.2,796.3,96.9z"/>
	<path class="st4" d="M797,94.3c0,0,3.8-2.1,6.5,0.7C803.5,95,801,90.4,797,94.3z"/>
	<path class="st1" d="M793.2,127.6c0,0,8.9,1.5,12.2-4.4c0,0-0.3-0.4-1.2-0.7s2.7,0,2.3,1.6c0,0,0.1-0.4-0.6-0.4
		c0,0-0.2,7.9-2.8,8.8c0,0-2.5,2.6-8.3,0.4c0,0,0.5,0.4,1.2,0.1c0.6-0.2-0.2-4.8-0.2-4.8S793.6,127.9,793.2,127.6z"/>
	<path class="st0" d="M804.9,128.6c0,0-4.9,2.5-8.5,1.8l0-0.3c0,0,3.1,0.8,8.5-2C805,128.1,805.5,128.3,804.9,128.6z"/>
	<path d="M798.4,127.7c0,0,0.8,4.5,0.6,5.7l-0.3,0c0,0-0.1-4.5-0.6-5.7L798.4,127.7z"/>
	<path d="M800.5,127.3c0,0,0.9,4.4,0.9,5.5c0,0,0.1,0.3-0.1,0.2c0,0-0.9-5.6-1.1-5.9C800.2,127,800.4,126.6,800.5,127.3z"/>
	<path d="M803.4,125.7c0,0,0.7,4.9,1.1,5.3c0,0,0.2,0.5-0.2,0.3c0,0-0.9-4.7-1.1-5.7L803.4,125.7z"/>
</g>
<g>
	<path class="st0" d="M709.9,141.6c0,0,5.4,4.9,5.7,5.1c0.4,0.2,1.8,0.9,1-1.1c0,0-2.6-4.9-3.8-6.1c0,0-0.6-7.2-1.3-11.6
		c0,0-1.8-9.1-1-10.1c0,0,5.1,2.1,4.8,2.9c0,0,0.1,1.8-3.9,4.3c0,0-1.2,3.3,3,4c0,0,2.3-0.1-0.7-2.9c0,0,6-3.1,5.1-5.1
		c0,0-0.4-4-8.4-6.5c0,0,1.2-25.7-2.8-28.9c0,0-4.2-35.1,24.6-69.1c0,0-24.6,22.5-28.1,65.4c0,0-6.5-2.5-10.3,1.7
		c0,0-16.1-25-8.8-63.2c0,0-8.6,34.2,6.4,65.7c0,0-6.8,13.7-3,30.4c0,0-5.8,3.5-6.5,5.4c-0.7,2,1.7,2.9,1.7,2.9l5.1,1.9
		c0,0-1.9,1.7-1.5,2.4c0,0-0.5,1.4,2.1,0.3l1.8-1.5c0,0,0-1.5-0.8-2.2c0,0-5.2-2.5-5-2.9c0,0,2.3-1.8,3.9-1.7c0,0,5.3,18.6,7.9,19.3
		c0,0,1.2,8,2.4,9c0,0,1.2,2.3,1.1-1.3c0,0,0.4-4.9,0.1-5.6S704.9,144.9,709.9,141.6z"/>
	<path class="st1" d="M694.2,95.8c0,0,0.7,11,5.7,9.7c4.5-1.2,4.2-6.6,3.7-10.1C703.6,95.4,700,97.2,694.2,95.8z"/>
	<path class="st2" d="M696.1,96.8c0,0-0.1,8.5,4.1,6.3c0,0,2.4-2.1,1.5-6.5L696.1,96.8z"/>
	<path class="st3" d="M700.4,97.9c0,0,0.4,3.3-1.1,3.2c0,0-2.4,0.6-1.7-2.8L700.4,97.9z"/>
	<path class="st0" d="M703.1,95.4c0,0,2.8,0.1,0.8,1.3c0,0-3.2,2.2-10.2,0.7c0,0-1.4-0.4,0.8-1.5c0,0,0.1-6.8,4.8-7.1
		c0,0,3.7,0,4.4,6.4l0,0.2L703.1,95.4z"/>
	<path class="st4" d="M695.7,85.9c0,0-0.6,0.4-1.9,0.1c-1.3-0.3,5.8-4.8,10.1,1.3l-0.4,0c0,0,0.8,1,0.8,1.6c0,0-0.4-0.1-0.7-0.4
		c0,0,0.5,0.9,0.4,1.2c0,0-2.8-3.3-8.5-1.1c0,0-0.9-0.6,0.9-1.1c0,0-1.5,0.2-1.8-0.1C694.7,87.3,694.7,86,695.7,85.9z"/>
	<path class="st4" d="M696.3,83.6c0,0,3.3-1.8,5.6,0.6C701.9,84.2,699.7,80.3,696.3,83.6z"/>
	<path class="st1" d="M693.1,112c0,0,7.6,1.3,10.4-3.7c0,0-0.2-0.3-1-0.6s2.3,0,2,1.3c0,0,0.1-0.3-0.5-0.4c0,0-0.1,6.7-2.4,7.5
		c0,0-2.1,2.2-7.1,0.3c0,0,0.5,0.3,1,0.1c0.5-0.2-0.2-4.1-0.2-4.1S693.5,112.2,693.1,112z"/>
	<path class="st0" d="M703.1,112.8c0,0-4.1,2.1-7.2,1.6l0-0.2c0,0,2.7,0.7,7.2-1.7C703.1,112.4,703.6,112.6,703.1,112.8z"/>
	<path d="M697.6,112.1c0,0,0.7,3.8,0.5,4.8l-0.2,0c0,0-0.1-3.9-0.5-4.8L697.6,112.1z"/>
	<path d="M699.4,111.7c0,0,0.7,3.7,0.8,4.6c0,0,0.1,0.2-0.1,0.2c0,0-0.8-4.8-0.9-5.1C699.1,111.4,699.2,111.1,699.4,111.7z"/>
	<path d="M701.8,110.3c0,0,0.6,4.2,0.9,4.5c0,0,0.1,0.5-0.2,0.3c0,0-0.8-4-0.9-4.8L701.8,110.3z"/>
</g>
<path class="st5" d="M0.9,10.7c0,0,335.6,4.5,353.6,0c18-4.5,216-4.5,258,0c42,4.5,462,11.2,537-3.4c0,0,192-15.4,322.5,0
	s392.9,7.7,428.9,1v3c0,0-66.3,5.3-68,4.9c-1.7-0.3-121.7,4.6-137.3,2.3c-15.7-2.3-63,1.7-151.3-3c0,0-76-5.2-86-5.7
	c0,0-177-11.3-308.7,2.7c0,0-118.2,13.3-538.6,6.6c0,0-162-11.7-253.5,1.9c0,0-371.3-5.8-356.6-4.2V10.7z"/>
</svg>
