<?xml version="1.0" encoding="utf-8"?>
<!-- Generator: Adobe Illustrator 22.1.0, SVG Export Plug-In . SVG Version: 6.00 Build 0)  -->
<svg version="1.1" id="Layer_1" xmlns="http://www.w3.org/2000/svg" xmlns:xlink="http://www.w3.org/1999/xlink" x="0px" y="0px"
	 viewBox="0 0 1901.4 208.5" style="enable-background:new 0 0 1901.4 208.5;" xml:space="preserve">
<style type="text/css">
	.st0{fill:#A0C7C6;stroke:#000000;stroke-miterlimit:10;}
	.st1{fill:#FFFFFF;stroke:#000000;stroke-miterlimit:10;}
	.st2{fill:#E55C2F;}
	.st3{fill:#FFFFFF;}
	.st4{fill:#070707;}
	.st5{fill:#3B5672;stroke:#000000;stroke-miterlimit:10;}
</style>
<g>
	<path class="st0" d="M947.5,161.4c0,0,5.8,6.3,6.2,6.6c0.4,0.3,2,1.2,1.2-1.2c0,0-2.6-5.9-3.9-7.4c0,0-0.1-8.5-0.5-13.7
		c0,0-1.3-10.9-0.3-11.9c0,0,5.8,2.9,5.4,3.9c0,0,0,2.1-4.9,4.7c0,0-1.8,3.8,3.1,5c0,0,2.8,0.1-0.5-3.4c0,0,7.3-3.1,6.4-5.5
		c0,0-0.1-4.7-9.2-8.4c0,0,3.8-29.9-0.6-34.1c0,0-1.7-41.4,35.2-78.6c0,0-30.9,24-39,73.9c0,0-7.4-3.6-12.2,1.1
		c0,0-16.6-30.8-4.4-74.8c0,0-13.3,39.2,1.4,77.4c0,0-9.2,15.4-6.3,35.3c0,0-7.1,3.5-8.1,5.8s1.7,3.5,1.7,3.5l5.8,2.6
		c0,0-2.4,1.8-1.9,2.6c0,0-0.7,1.6,2.4,0.5l2.2-1.6c0,0,0.2-1.8-0.8-2.7c0,0-5.8-3.4-5.5-3.9c0,0,2.9-1.9,4.7-1.6
		c0,0,4.4,22.2,7.4,23.3c0,0,0.7,9.5,2,10.8c0,0,1.1,2.8,1.4-1.4c0,0,1-5.7,0.7-6.5S941.3,164.8,947.5,161.4z"/>
	<path class="st1" d="M933.3,106.4c0,0-0.2,12.9,5.8,11.9c5.3-0.9,5.6-7.3,5.3-11.5C944.3,106.8,940,108.6,933.3,106.4z"/>
	<path class="st2" d="M935.4,107.8c0,0-0.9,10,4.2,7.7c0,0,3-2.2,2.4-7.5L935.4,107.8z"/>
	<path class="st3" d="M940.3,109.4c0,0,0.2,4-1.6,3.6c0,0-2.9,0.5-1.7-3.5L940.3,109.4z"/>
	<path class="st0" d="M943.8,106.7c0,0,3.3,0.3,0.9,1.6c0,0-3.9,2.3-12-0.1c0,0-1.6-0.6,1.1-1.6c0,0,0.7-8,6.3-7.8
		c0,0,4.3,0.4,4.6,7.9l0,0.2L943.8,106.7z"/>
	<path class="st4" d="M936,94.9c0,0-0.7,0.4-2.2,0c-1.5-0.5,7.2-5,11.7,2.4l-0.4-0.1c0,0,0.9,1.2,0.8,1.9c0,0-0.5-0.1-0.8-0.5
		c0,0,0.5,1.1,0.4,1.5c0,0-3-4.1-9.9-2.1c0,0-1-0.8,1.1-1.2c0,0-1.8,0.1-2.1-0.3C934.7,96.5,934.8,95,936,94.9z"/>
	<path class="st4" d="M937,92.3c0,0,4-1.8,6.5,1.3C943.4,93.5,941.2,88.8,937,92.3z"/>
	<path class="st1" d="M930.6,125.2c0,0,8.8,2.2,12.5-3.4c0,0-0.2-0.4-1.2-0.8c-0.9-0.4,2.7,0.2,2.2,1.7c0,0,0.1-0.4-0.6-0.5
		c0,0-0.8,7.9-3.5,8.5c0,0-2.7,2.4-8.3-0.3c0,0,0.5,0.4,1.2,0.2s0.1-4.8,0.1-4.8S931,125.6,930.6,125.2z"/>
	<path class="st0" d="M942.2,127.1c0,0-5,2.1-8.6,1.1l0-0.3c0,0,3,1,8.6-1.4C942.2,126.6,942.7,126.9,942.2,127.1z"/>
	<path d="M935.7,125.7c0,0,0.4,4.5,0.2,5.7l-0.3,0c0,0,0.3-4.5-0.2-5.7L935.7,125.7z"/>
	<path d="M937.9,125.5c0,0,0.5,4.4,0.4,5.5c0,0,0.1,0.3-0.2,0.2c0,0-0.5-5.7-0.6-6C937.6,125.1,937.8,124.8,937.9,125.5z"/>
	<path d="M940.8,124.1c0,0,0.3,4.9,0.6,5.4c0,0,0.1,0.5-0.2,0.3c0,0-0.5-4.8-0.6-5.7L940.8,124.1z"/>
</g>
<g>
	<path class="st0" d="M703,139c0,0,4.9,5.3,5.3,5.6s1.7,1.1,1.1-1.1c0,0-2.2-5.1-3.3-6.3c0,0,0-7.3-0.4-11.7c0,0-1.1-9.3-0.2-10.1
		c0,0,4.9,2.5,4.6,3.3c0,0,0,1.8-4.2,3.9c0,0-1.5,3.2,2.6,4.2c0,0,2.4,0.1-0.4-2.9c0,0,6.2-2.6,5.5-4.6c0,0-0.1-4-7.9-7.2
		c0,0,3.3-25.5-0.4-29.1c0,0-1.3-35.3,30.2-66.8c0,0-26.4,20.4-33.5,62.9c0,0-6.3-3.1-10.4,0.9c0,0-14-26.3-3.5-63.7
		c0,0-11.4,33.4,1,66c0,0-7.9,13.1-5.5,30c0,0-6,3-6.9,4.9c-0.9,1.9,1.4,3,1.4,3l4.9,2.3c0,0-2,1.5-1.7,2.2c0,0-0.6,1.4,2,0.4
		l1.9-1.3c0,0,0.2-1.5-0.6-2.3c0,0-5-2.9-4.7-3.3c0,0,2.5-1.6,4-1.3c0,0,3.7,18.9,6.3,19.9c0,0,0.6,8.1,1.7,9.2c0,0,1,2.4,1.2-1.2
		c0,0,0.8-4.9,0.6-5.5C693.5,138.6,697.8,141.9,703,139z"/>
	<path class="st1" d="M691.1,92.1c0,0-0.2,11,4.9,10.1c4.5-0.8,4.8-6.2,4.5-9.8C700.6,92.4,696.8,93.9,691.1,92.1z"/>
	<path class="st2" d="M692.9,93.3c0,0-0.8,8.5,3.5,6.6c0,0,2.5-1.9,2.1-6.4L692.9,93.3z"/>
	<path class="st3" d="M697.1,94.7c0,0,0.1,3.4-1.3,3.1c0,0-2.5,0.4-1.4-3L697.1,94.7z"/>
	<path class="st0" d="M700,92.4c0,0,2.8,0.3,0.7,1.4c0,0-3.4,2-10.2-0.1c0,0-1.4-0.5,0.9-1.4c0,0,0.6-6.8,5.4-6.6
		c0,0,3.7,0.3,3.9,6.7l0,0.2L700,92.4z"/>
	<path class="st4" d="M693.5,82.3c0,0-0.6,0.4-1.9,0c-1.2-0.4,6.2-4.3,10,2.1l-0.4-0.1c0,0,0.7,1.1,0.7,1.6c0,0-0.4-0.1-0.6-0.5
		c0,0,0.5,0.9,0.3,1.3c0,0-2.5-3.5-8.4-1.8c0,0-0.8-0.6,1-1.1c0,0-1.5,0.1-1.8-0.2C692.4,83.6,692.5,82.4,693.5,82.3z"/>
	<path class="st4" d="M694.3,80.1c0,0,3.4-1.5,5.5,1.1C699.8,81.1,698,77.1,694.3,80.1z"/>
	<path class="st1" d="M688.8,108.1c0,0,7.5,1.9,10.7-2.9c0,0-0.2-0.4-1-0.7s2.3,0.2,1.9,1.5c0,0,0.1-0.3-0.5-0.4c0,0-0.7,6.7-3,7.3
		c0,0-2.3,2-7.1-0.3c0,0,0.4,0.3,1,0.2s0.1-4.1,0.1-4.1S689.1,108.4,688.8,108.1z"/>
	<path class="st0" d="M698.6,109.8c0,0-4.3,1.8-7.3,1l0-0.2c0,0,2.6,0.9,7.4-1.1C698.7,109.3,699.1,109.6,698.6,109.8z"/>
	<path d="M693.2,108.6c0,0,0.4,3.9,0.1,4.9l-0.2,0c0,0,0.2-3.8-0.1-4.9L693.2,108.6z"/>
	<path d="M695,108.3c0,0,0.4,3.8,0.4,4.7c0,0,0.1,0.2-0.1,0.1c0,0-0.4-4.8-0.5-5.1C694.8,108.1,694.9,107.8,695,108.3z"/>
	<path d="M697.5,107.2c0,0,0.2,4.2,0.5,4.6c0,0,0.1,0.5-0.2,0.3c0,0-0.5-4.1-0.5-4.9L697.5,107.2z"/>
</g>
<path class="st5" d="M0.9,10.7c0,0,335.6,4.5,353.6,0c18-4.5,216-4.5,258,0c42,4.5,461.4,11.2,536.8-3.3c0.1,0,0.2,0,0.3,0
	c6.2-0.5,194-15.1,322.3,0c130.5,15.4,392.9,7.7,428.9,1v3c0,0-66.3,5.3-68,4.9c-1.7-0.3-121.7,4.6-137.3,2.3
	c-15.7-2.3-63,1.7-151.3-3c0,0-76-5.2-86-5.7c0,0-177-11.3-308.7,2.7c0,0-114.3,9.8-534.7,3c0,0-191-13.6-282.5,0
	c0,0-346.2-0.3-331.5,1.3V10.7z"/>
</svg>
