<?xml version="1.0" encoding="utf-8"?>
<!-- Generator: Adobe Illustrator 22.1.0, SVG Export Plug-In . SVG Version: 6.00 Build 0)  -->
<svg version="1.1" id="Layer_1" xmlns="http://www.w3.org/2000/svg" xmlns:xlink="http://www.w3.org/1999/xlink" x="0px" y="0px"
	 viewBox="0 333 1900 350" style="enable-background:new 0 0 1900 871;" xml:space="preserve">
<style type="text/css">
	.st0{fill:#351111;stroke:#000000;stroke-miterlimit:10;}
</style>
<path class="st0" d="M0,342.1c0,0,335.6,4.5,353.6,0c18-4.5,216-4.5,258,0c42,4.5,462,11.2,537-3.4c0,0,192-15.4,322.5,0
	c130.5,15.4,392.9,7.7,428.9,1v3c0,0-66.3,5.3-68,4.9s-121.7,4.6-137.3,2.3s-63,1.7-151.3-3c0,0-76-5.2-86-5.7
	c0,0-177-11.3-308.7,2.7c0,0-118.2,13.3-538.6,6.6c0,0-162-11.7-253.5,1.9c0,0-371.3-5.8-356.6-4.2V342.1z"/>
</svg>
