<?xml version="1.0" encoding="utf-8"?>
<!-- Generator: Adobe Illustrator 22.1.0, SVG Export Plug-In . SVG Version: 6.00 Build 0)  -->
<svg version="1.1" id="Layer_1" xmlns="http://www.w3.org/2000/svg" xmlns:xlink="http://www.w3.org/1999/xlink" x="0px" y="0px"
	 viewBox="0 0 1901.4 208.5" style="enable-background:new 0 0 1901.4 208.5;" xml:space="preserve">
<style type="text/css">
	.st0{fill:#A0C7C6;stroke:#000000;stroke-miterlimit:10;}
	.st1{fill:#FFFFFF;stroke:#000000;stroke-miterlimit:10;}
	.st2{fill:#E55C2F;}
	.st3{fill:#FFFFFF;}
	.st4{fill:#070707;}
	.st5{fill:#3B5672;stroke:#000000;stroke-miterlimit:10;}
</style>
<g>
	<path class="st0" d="M781.3,195.4c0,0,7.7,7.1,8.2,7.4c0.5,0.3,2.6,1.3,1.4-1.6c0,0-3.7-7-5.5-8.7c0,0-0.9-10.4-1.9-16.7
		c0,0-2.6-13.1-1.5-14.5c0,0,7.4,3,6.9,4.2c0,0,0.2,2.6-5.6,6.2c0,0-1.8,4.8,4.3,5.7c0,0,3.4-0.2-0.9-4.1c0,0,8.6-4.5,7.3-7.3
		c0,0-0.6-5.8-12.1-9.4c0,0,1.7-36.9-4-41.6c0,0-6.1-50.5,35.4-99.4c0,0-35.4,32.3-40.5,94.1c0,0-9.3-3.7-14.8,2.5
		c0,0-23.2-36-12.6-90.9c0,0-12.4,49.2,9.3,94.4c0,0-9.7,19.7-4.3,43.7c0,0-8.3,5-9.3,7.8c-1,2.8,2.4,4.1,2.4,4.1l7.3,2.7
		c0,0-2.7,2.5-2.1,3.4c0,0-0.7,2,3,0.4l2.6-2.1c0,0,0-2.2-1.2-3.2c0,0-7.5-3.6-7.1-4.2c0,0,3.4-2.6,5.6-2.4c0,0,7.6,26.7,11.3,27.7
		c0,0,1.8,11.5,3.5,13c0,0,1.7,3.3,1.6-1.8c0,0,0.6-7.1,0.2-8C767.7,195.9,774.2,200.1,781.3,195.4z"/>
	<path class="st1" d="M758.7,129.6c0,0,1,15.8,8.2,13.9c6.4-1.7,6.1-9.4,5.3-14.5C772.2,129,767.1,131.6,758.7,129.6z"/>
	<path class="st2" d="M761.4,131c0,0-0.1,12.3,5.8,9c0,0,3.4-3,2.2-9.4L761.4,131z"/>
	<path class="st3" d="M767.6,132.6c0,0,0.6,4.8-1.6,4.6c0,0-3.5,0.9-2.4-4.1L767.6,132.6z"/>
	<path class="st0" d="M771.5,128.9c0,0,4.1,0.1,1.2,1.9c0,0-4.6,3.2-14.6,1c0,0-2-0.6,1.2-2.1c0,0,0.1-9.8,6.9-10.2
		c0,0,5.3,0,6.3,9.2l0,0.2L771.5,128.9z"/>
	<path class="st4" d="M760.9,115.3c0,0-0.9,0.6-2.7,0.2c-1.8-0.5,8.3-6.9,14.6,1.8l-0.5,0c0,0,1.2,1.4,1.2,2.3c0,0-0.6-0.1-1-0.6
		c0,0,0.8,1.3,0.6,1.8c0,0-4.1-4.8-12.2-1.6c0,0-1.3-0.8,1.3-1.6c0,0-2.2,0.3-2.6-0.1C759.5,117.3,759.5,115.5,760.9,115.3z"/>
	<path class="st4" d="M761.8,111.9c0,0,4.7-2.5,8,0.9C769.8,112.9,766.7,107.3,761.8,111.9z"/>
	<path class="st1" d="M757.2,152.8c0,0,10.9,1.8,15-5.4c0,0-0.3-0.5-1.5-0.9c-1.2-0.4,3.4-0.1,2.8,1.9c0,0,0.1-0.5-0.8-0.5
		c0,0-0.2,9.7-3.4,10.8c0,0-3.1,3.2-10.2,0.5c0,0,0.7,0.4,1.4,0.2s-0.3-5.9-0.3-5.9S757.7,153.2,757.2,152.8z"/>
	<path class="st0" d="M771.6,154c0,0-5.9,3.1-10.4,2.2l0-0.4c0,0,3.8,1,10.4-2.5C771.6,153.4,772.2,153.7,771.6,154z"/>
	<path d="M763.6,152.9c0,0,1,5.5,0.8,6.9l-0.4,0c0,0-0.1-5.5-0.8-6.9L763.6,152.9z"/>
	<path d="M766.2,152.4c0,0,1.1,5.4,1.1,6.7c0,0,0.2,0.3-0.2,0.2c0,0-1.1-6.9-1.3-7.3C765.8,152,766,151.6,766.2,152.4z"/>
	<path d="M769.6,150.4c0,0,0.8,6,1.3,6.5c0,0,0.2,0.6-0.3,0.4c0,0-1.1-5.8-1.3-6.9L769.6,150.4z"/>
</g>
<g>
	<path class="st0" d="M326.6,195.6c0,0,7.7,7.1,8.2,7.4c0.5,0.3,2.6,1.3,1.4-1.6c0,0-3.7-7-5.5-8.7c0,0-0.9-10.4-1.9-16.7
		c0,0-2.6-13.1-1.5-14.5c0,0,7.4,3,6.9,4.2c0,0,0.2,2.6-5.6,6.2c0,0-1.8,4.8,4.3,5.7c0,0,3.4-0.2-0.9-4.1c0,0,8.6-4.5,7.3-7.3
		c0,0-0.6-5.8-12.1-9.4c0,0,1.7-36.9-4-41.6c0,0-6.1-50.5,35.4-99.4c0,0-35.4,32.3-40.5,94.1c0,0-9.3-3.7-14.8,2.5
		c0,0-23.2-36-12.6-90.9c0,0-12.4,49.2,9.3,94.4c0,0-9.7,19.7-4.3,43.7c0,0-8.3,5-9.3,7.8c-1,2.8,2.4,4.1,2.4,4.1l7.3,2.7
		c0,0-2.7,2.5-2.1,3.4c0,0-0.7,2,3,0.4l2.6-2.1c0,0,0-2.2-1.2-3.2c0,0-7.5-3.6-7.1-4.2c0,0,3.4-2.6,5.6-2.4c0,0,7.6,26.7,11.3,27.7
		c0,0,1.8,11.5,3.5,13c0,0,1.7,3.3,1.6-1.8c0,0,0.6-7.1,0.2-8C312.9,196.1,319.4,200.4,326.6,195.6z"/>
	<path class="st1" d="M304,129.8c0,0,1,15.8,8.2,13.9c6.4-1.7,6.1-9.4,5.3-14.5C317.5,129.2,312.4,131.8,304,129.8z"/>
	<path class="st2" d="M306.7,131.3c0,0-0.1,12.3,5.8,9c0,0,3.4-3,2.2-9.4L306.7,131.3z"/>
	<path class="st3" d="M312.9,132.8c0,0,0.6,4.8-1.6,4.6c0,0-3.5,0.9-2.4-4.1L312.9,132.8z"/>
	<path class="st0" d="M316.8,129.2c0,0,4.1,0.1,1.2,1.9c0,0-4.6,3.2-14.6,1c0,0-2-0.6,1.2-2.1c0,0,0.1-9.8,6.9-10.2
		c0,0,5.3,0,6.3,9.2l0,0.2L316.8,129.2z"/>
	<path class="st4" d="M306.2,115.5c0,0-0.9,0.6-2.7,0.2c-1.8-0.5,8.3-6.9,14.6,1.8l-0.5,0c0,0,1.2,1.4,1.2,2.3c0,0-0.6-0.1-1-0.6
		c0,0,0.8,1.3,0.6,1.8c0,0-4.1-4.8-12.2-1.6c0,0-1.3-0.8,1.3-1.6c0,0-2.2,0.3-2.6-0.1C304.8,117.6,304.8,115.8,306.2,115.5z"/>
	<path class="st4" d="M307.1,112.2c0,0,4.7-2.5,8,0.9C315.1,113.1,312,107.5,307.1,112.2z"/>
	<path class="st1" d="M302.5,153.1c0,0,10.9,1.8,15-5.4c0,0-0.3-0.5-1.5-0.9c-1.2-0.4,3.4-0.1,2.8,1.9c0,0,0.1-0.5-0.8-0.5
		c0,0-0.2,9.7-3.4,10.8c0,0-3.1,3.2-10.2,0.5c0,0,0.7,0.4,1.4,0.2c0.8-0.3-0.3-5.9-0.3-5.9S303,153.4,302.5,153.1z"/>
	<path class="st0" d="M316.8,154.3c0,0-5.9,3.1-10.4,2.2l0-0.4c0,0,3.8,1,10.4-2.5C316.9,153.7,317.5,154,316.8,154.3z"/>
	<path d="M308.8,153.2c0,0,1,5.5,0.8,6.9l-0.4,0c0,0-0.1-5.5-0.8-6.9L308.8,153.2z"/>
	<path d="M311.4,152.7c0,0,1.1,5.4,1.1,6.7c0,0,0.2,0.3-0.2,0.2c0,0-1.1-6.9-1.3-7.3C311.1,152.3,311.3,151.8,311.4,152.7z"/>
	<path d="M314.9,150.7c0,0,0.8,6,1.3,6.5c0,0,0.2,0.6-0.3,0.4c0,0-1.1-5.8-1.3-6.9L314.9,150.7z"/>
</g>
<path class="st5" d="M0.9,10.7c0,0,335.6,4.5,353.6,0c18-4.5,216-4.5,258,0c42,4.5,462,11.2,537-3.4c0,0,192-15.4,322.5,0
	s392.9,7.7,428.9,1v3c0,0-66.3,5.3-68,4.9c-1.7-0.3-121.7,4.6-137.3,2.3c-15.7-2.3-63,1.7-151.3-3c0,0-76-5.2-86-5.7
	c0,0-177-11.3-308.7,2.7c0,0-118.2,13.3-538.6,6.6c0,0-162-11.7-253.5,1.9c0,0-371.3-5.8-356.6-4.2V10.7z"/>
</svg>
