<?xml version="1.0" encoding="utf-8"?>
<!-- Generator: Adobe Illustrator 22.1.0, SVG Export Plug-In . SVG Version: 6.00 Build 0)  -->
<svg version="1.1" id="Layer_1" xmlns="http://www.w3.org/2000/svg" xmlns:xlink="http://www.w3.org/1999/xlink" x="0px" y="0px"
	 viewBox="0 0 500 500" style="enable-background:new 0 0 500 500;" xml:space="preserve">
<style type="text/css">
	.st0{fill:#98D86F;}
	.st1{fill:#FFA992;stroke:#F77661;stroke-miterlimit:10;}
	.st2{fill:#FFA992;}
	.st3{fill:#FFFFFF;stroke:#000000;stroke-miterlimit:10;}
	.st4{fill:#D61628;stroke:#000000;stroke-width:0.5;stroke-miterlimit:10;}
	.st5{fill:#FFB3DF;}
	.st6{fill:#5F6EAA;}
	.st7{fill:none;stroke:#000000;stroke-width:0.5;stroke-miterlimit:10;}
</style>
<path class="st0" d="M121.1,322.6c0,0,97.6,118.4,225.8,5.1c0,0,12.5,50.9-31.5,85.6l0.9,31.9c0,0-45.8,28.7-77.7,0l-0.9-13
	c0,0-18,7.9-40.7-5.1v13c0,0-25.9,22.7-69.4-17.1l5.6-25C133.6,398,119.3,377.2,121.1,322.6z"/>
<g>
	<path class="st1" d="M170.6,235.1c0,0-35.2,66.2-46.3,65.2c0,0-50.9-73.6-54.6-95.3c0,0-31-64.8,25-31.9
		C94.8,173.2,141,205.5,170.6,235.1z"/>
	<path class="st2" d="M180.8,245.8c0,0-35.2,66.2-46.3,65.2c0,0-50.9-73.6-54.6-95.3c0,0-31-64.8,25-31.9
		C104.5,183.8,150.7,216.2,180.8,245.8z"/>
	
		<animateTransform  accumulate="none" additive="replace" attributeName="transform" attributeType="XML" begin=".1" calcMode="linear" dur="1.1s" fill="remove" id="lines" repeatCount="indefinite" restart="always" type="translate" values="0,2;0,-2;0,2">
		</animateTransform>
</g>
<path class="st1" d="M305.7,215.7c0,0-26.8-99.9-11.1-136c0,0,36.6-99.9-24.1-42.6c0,0-38.4,45.3-43,61.5c0,0-6.5,12-42.1,99.5
	c0,0-42.6,91.6-62.5,99.5c0,0-6,12,0,27.8c0,0,82.4,112.4,223.5,7.9C346.4,332.8,358.5,321.2,305.7,215.7z"/>
<ellipse transform="matrix(0.2597 -0.9657 0.9657 0.2597 1.1819 320.223)" class="st3" cx="209.4" cy="159.3" rx="29.6" ry="23.1"/>
<ellipse transform="matrix(0.2597 -0.9657 0.9657 0.2597 27.5706 354.5742)" class="st3" cx="245" cy="159.3" rx="29.6" ry="23.1"/>
<path class="st4" d="M194.2,206c0,0,18,19.9,82.4-8.8c0,0,2.8,28.7-25.4,51.4c0,0-39.8,27.3-64.3,0
	C187.3,248.1,219.2,220.8,194.2,206z"/>
<path class="st2" d="M253,453.5c0,0,18,10.2,56.4-4.6c0,0-7.4,46.7-23.1,45.8C286.3,494.7,267.8,501.2,253,453.5z"/>
<path class="st2" d="M139.2,432.2c0,0,1.9,34.7,27.8,42.1c0,0,14.8,7.4,17.1-28.7C184,445.7,166,449.4,139.2,432.2z"/>
<path class="st5" d="M256.7,241.6c-2.3,4.6-40.3,30.1-64.3,9.3c0,0,40.3-31,31-7.9C223.4,243.5,249.7,219,256.7,241.6z"/>
<g>
	<path class="st1" d="M322.8,306.9l93.9-130c0,0,7.4-34.7-23.1-19.9c0,0-69.4,38.9-110.1,79.6L322.8,306.9z"/>
	<path class="st2" d="M316.4,314.3l93.9-130c0,0,7.4-34.7-23.1-19.9c0,0-69.4,38.9-110.1,79.6L316.4,314.3z"/>
	
		<animateTransform  accumulate="none" additive="replace" attributeName="transform" attributeType="XML" begin=".1" calcMode="linear" dur="1.1s" fill="remove" id="lines" repeatCount="indefinite" restart="always" type="translate" values="0,2;0,-2;0,2">
		</animateTransform>
</g>
<ellipse transform="matrix(0.1187 -0.9929 0.9929 0.1187 29.1109 351.0191)" cx="212.3" cy="159.1" rx="7.9" ry="5.1"/>
<ellipse transform="matrix(0.1187 -0.9929 0.9929 0.1187 51.9604 379.9226)" cx="240" cy="160.7" rx="7.9" ry="5.1"/>
<path class="st6" d="M138.7,347.6c0,0-17.6,21.7,17.1,17.6c0,0,9.7,0.5,0,8.8c0,0-17.1,14.8,4.2,21.3c0,0,6.9,4.6,25.9,6
	c0,0,13,0.5,6-15.7c0,0-0.5-13,11.1,7.9c0,0-1.9,23.6,6.5,10.6c0,0,18.5-23.1,13.9-26.4c0,0-44.9-0.9-82.8-33.3"/>
<path class="st6" d="M291.4,424.4c0,0,23.1,10.2,10.6-6.9c0,0-17.1-8.8,0.5-17.6c0,0,10.6-12.5,22.2-9.3c0,0,9.7,1.9,7.9,6.5
	c0,0-10.2,14.3-15.7,16.7l0.9,31c0,0-10.6,7.9-33.8,11.1C283.1,456.3,281.2,429.9,291.4,424.4"/>
<path d="M249.7,110.7c0,0-3.2-7.4,3.7-3.7l12.5,7.4c0,0,8.3,6-1.9,3.2c0,0,6.5,8.3-4.2,3.2l-11.1-6.9
	C249.3,114.4,241.4,109.8,249.7,110.7z">
<animateTransform  accumulate="none" additive="replace" attributeName="transform" attributeType="XML" begin=".1" calcMode="linear" dur="1.2s" fill="remove" id="lines" repeatCount="indefinite" restart="always" type="translate" values="0,1;2,0;0,1">
		</animateTransform>
</path>
<path d="M231.2,107.5c0,0,3.2-6.9-3.7-3.7l-12,6.9c0,0-5.1,3.7,1.9,3.2c0,0-5.1,9.3,4.2,3.2l10.6-6.5
	C231.7,110.7,243.7,103.7,231.2,107.5z">
<animateTransform  accumulate="none" additive="replace" attributeName="transform" attributeType="XML" begin=".1" calcMode="linear" dur="1.2s" fill="remove" id="lines" repeatCount="indefinite" restart="always" type="translate" values="-0,1;-2,0;0,1">
		</animateTransform>
</path>
<path class="st7" d="M183.1,242.6c0.5,1.4-0.5,2.3,4.2,5.6"/>
</svg>
