<?xml version="1.0" encoding="utf-8"?>
<!-- Generator: Adobe Illustrator 22.1.0, SVG Export Plug-In . SVG Version: 6.00 Build 0)  -->
<svg version="1.1" xmlns="http://www.w3.org/2000/svg" xmlns:xlink="http://www.w3.org/1999/xlink" x="0px" y="0px"
	 viewBox="0 0 1500 1500" style="enable-background:new 0 0 1500 1500;" xml:space="preserve">
<style type="text/css">
	.st0{fill:#682121;}
	.st1{fill:#A32E2E;}
	.st2{fill:url(#SVGID_1_);}
	.st3{fill:#333333;}
	.st4{fill:#1A1A1A;}
	.st5{fill:none;}
	.st6{fill:#FFFFFF;stroke:#000000;stroke-width:0.5;stroke-miterlimit:10;}
	.st7{fill:url(#SVGID_2_);}
	.st8{fill:#F2F2F2;stroke:#000000;stroke-width:0.5;stroke-miterlimit:10;}
	.st9{fill:url(#SVGID_3_);}
	.st10{fill:url(#SVGID_4_);stroke:#000000;stroke-width:0.5;stroke-miterlimit:10;}
</style>
<g id="Layer_10">
	<path class="st0" d="M958.4,775.7l7.6-25.2l-5-11l-124.8-65.3l-33.8,44l-133.9,8.2l-72.2-59l-18.8,11.7l48.5,87l52.8,79.2
		c0,0,21.7-31.9,10.1-41.9s-0.2-0.1-0.2-0.1s-1.3-20.6,11.5-3.2c12.4,16.9-0.1,0.8-0.1,0.8l14.7-12.7l10.7,3h36l10.6,9.7l8.3-12
		l110-12.7l46,20.7l-19.8-16.7l7.5-14l7.1,16.5C931.4,782.7,952.5,758.3,958.4,775.7z"/>
</g>
<g id="Layer_14">
	<g>
		<path class="st1" d="M868.1,936.1v-2.1c-0.2,0.7-0.4,1.4-0.7,2.1H868.1z"/>
		<path class="st1" d="M941.8,759.5c0,0-9-4-22,0c0,0-8-4.5-19,0.5c0,0-25-16.5-38.5-14c0,0-7-1.5-16,3c0,0-12.5,0.7-21.5,11.6
			c0,0-7.5-4.6-16.5,5.9c0,0-3.5,4.5-7.5,0.5c0,0-12-12.5-25-1.5l-3,3.3c0,0-10.5-11.3-18.5-0.8c0,0-15-4.8-20.8,0.5
			c0,0-11.5-10.3-10.5,3.5c0,0-7.5-20.8-29-3.8c0,0-11.8-1.5-21,3.5c0,0-21-11.5-23.5-23.3c0,0-8.9-35-26.3-41c0,0,25.3,40,22.7,52
			c0,0,10.7,24,39.3,48.7c0,0,6.7,22-2,25.3c0,0-11.3-4.7-5.3-24.7c0,0-30.7-17.3-31.3-33.3c0,0-10.7-46.7-33.3-57.3
			c0,0-25.5-37-18.6-49.8c0,0-1.8-40.7-11.8-54c0,0-2.1-7.1-18.1,2.9c0,0-25.8,26.2-31.8,40.2c0,0,31-31.8,37-29.8c0,0,14.7-1,6,24
			c0,0-15.7,35.5-9.7,48.5c0,0-2.7,35.2,16,51.5c0,0,7.7,20,5.3,24c0,0-6.7,4,5.7,26c0,0-25.9,83.6-14.6,100.3
			c0,0,28.6,83.1,16.8,128.6c0,0,57,101,64.3,115.8c0,0,40,46.6,50.2,79.3c0,0-6.8,38.3,7.1,53.4c0,0-1.6,6.1,2.3,13.3
			c0,0-4.7,13.3,35,52.7c0,0,20.2,37.7,78.2,33.2c0,0,57.8-2,66.8-40.5c0,0,4-14-1.5-21c0,0-74.5-118.2-37.5-178.2
			c0,0,22.8-83.3,7.8-91.3c0,0-14.6-63.7-0.7-110.9h-31.9c0,0,0,0,0,0c0,0,0,0,0,0h-1.1v-28.8h-16.2v36.8h-33.7v-70.6h16.8v-33.8
			h76.7v67.5h-10v26.7c3.9-12.1,9.7-23.1,18.2-31.4c0,0-1-24,9-22c0,0,16-13,13-18c0,0,11-9,7-12c0,0-5-87,42-75
			C957.3,775.5,950.3,762,941.8,759.5z"/>
	</g>
</g>
<g id="Layer_15">
	<linearGradient id="SVGID_1_" gradientUnits="userSpaceOnUse" x1="647.4064" y1="875.6295" x2="916.6505" y2="875.6295">
		<stop  offset="0" style="stop-color:#1A1A1A"/>
		<stop  offset="0.6587" style="stop-color:#1A1A1A"/>
		<stop  offset="0.696" style="stop-color:#1A1A1A"/>
		<stop  offset="0.7398" style="stop-color:#1E1B1B"/>
		<stop  offset="0.7809" style="stop-color:#291E1E"/>
		<stop  offset="0.8209" style="stop-color:#3C2323"/>
		<stop  offset="0.8602" style="stop-color:#572A2A"/>
		<stop  offset="0.8991" style="stop-color:#793333"/>
		<stop  offset="0.9376" style="stop-color:#A33E3E"/>
		<stop  offset="0.9752" style="stop-color:#D44B4B"/>
		<stop  offset="1" style="stop-color:#F95555"/>
	</linearGradient>
	<path class="st2" d="M916.7,821.2c0,0-10.2-26.7-15.9-27.7c0,0,19.7,52.3,12.3,51.3c0,0-25.3-50.7-29.7-51.3c0,0,18.7,45,14.7,46.7
		c0,0-37.9-55.7-49-55.7c0,0,8.3,46.3,6.7,47.3c0,0-15.7-15.3-20.3-38.3c0,0,9.3,43.3,2.3,44c0,0-9.7-7.3-22-53h-4.3l0.4,41.1
		c0,0-7.7,4.6-12-41.4c0,0-5.1,60.6-2.7,69.6c0,0-16.7-18-16.7-66.7c0,0,0,16-8.3,12c0,0-2.7,43.3-8.7,45.3c0,0-5.1,4.2-3.1-49.8
		c-0.5,0.3-7.4,52.2-11.2,52.8c0,0-8.4-36.2-5.8-55.9c0,0-6.3-7.1-13.2,4.1c0,0,4.3,42.2-0.1,44.5c0,0-11.1-21.1-14.9-54.5
		c0,0-1.8,12.2-7.8,11.2c0,0,12.3,35.3,4.7,37c0,0-9.1-11.9-12-34.7c0,0-10.7-15-12,3.3c0,0,2.7,16.7,0,23.7c0,0-42,73.7-40.7,114
		c0,0,32.3,43,91,20c0,0,79.6-12.7,149.6-16c0,0-20.3-20.6-0.9-44c0,0-3.3-20.7,8.7-20.7c0,0,15-13,13-19c0,0,10.3-6.7,7.3-11
		C916.1,849.6,914.9,822.2,916.7,821.2z M829.7,875.1c2.9,5.7,0,14.5,0,14.5s0,0-3.4,7.4c-3.4,7.4-6.3-4.8-6.3-4.8
		c-2.9-9.8,0-17.1,0-17.1c3.9-19.1,8.7-17.6,8.7-17.6l2.2,3.9c2.2,3.9-4.2,8-4.2,8S826.8,869.4,829.7,875.1z M835.4,935
		c1-30.9,8.5-21.6,8.5-21.6s0,0,0.5-2.2s3.3-29.9,3.3-29.9c5.3-16.2,10.7-9.7,10.7-9.7c6.5-1.1,8.4,2.5,8.4,2.5
		C875.3,879.7,835.4,935,835.4,935z"/>
</g>
<g id="Layer_12">
</g>
<g id="Layer_13">
	<path class="st3" d="M1167.4,1341.9l17.6-12.1c0,0,27.3-18,8,8.5l-13.6,15.6L1167.4,1341.9"/>
</g>
<g id="Layer_1">
	<g id="Layer_11">
	</g>
	<path class="st4" d="M953.5,692c0,0,0.5,10.5,3,14.5c0,0,13,8,9.5,17c0,0,0.5,24,0,27c0,0-14-24-45.5-12c0,0-57.5-27-62-20.5
		c0,0-10,0-18,11.5c0,0-7.5-14-3-17.5c0,0-5.4-8-1.4-21.5l-1.4-6.5c0,0-5.1,21-3.1,25c0,0,8.6,9.5-0.5,17c0,0-9,22-42.5,16.5
		c0,0-17.5-4.5-19.8-0.5c0,0-22.3,12.3-31.3,4c0,0-0.3-3.7,5-6c0,0,8.3-3,11.7-6.3c0,0-4.7-1.3-16.7,5.3c0,0-34.7-0.7-34.3,3
		c0,0-4-2.3-9.3-0.3c0,0-16.7,3-17.3,6.3c0,0-19-4.7-19.7-14.7c0,0-5.7,3.3-1.3,13.3c0,0-5-33-33-50.7c0,0-5.7-7.3-7.3-5
		c0,0,9,17.7,6,18.7c0,0-7-4-18.3-19c0,0-11.5-12.5-8-20.7c0,0-1.7-18.9-10.7-40.9c0,0,0-17.4-12.2-14.9c0,0-19.8,11.8-24.5,28.8
		c0,0,16.8-20.8,18.5-17.5c0,0,16.5-13.5,15,20.5c0,0-12,54.5-7.5,71.3c0,0-0.3,21,10.5,29c0,0,4.8,26.5,12.5,48
		c0,0,5.3,5.8-1.5,19.3c0,0-27.8,57.5-8.8,105.5c0,0,24,36,14,101c0,0-7,9,7,19c0,0,44,78,46,86c0,0,43.8,61.3,27,52
		c0,0,34.7-5,35,93c0,0,19,64,42,71c0,0,34,46,83,32c0,0,24.4-2.1,34.4-7.1c0,0-24.4,49.1-104.4,25.1c0,0-39-26-57-66
		c0,0-32-78-38-71c0,0-6,6,9,45c0,0,36,171,22,201H0v-338c0,0,326-318,390-288c0,0,28-51,41-52c0,0,45.2-77,52.1-70
		c0,0,11.9-15,13.9-21c0,0-12.4-98.9,53.6-164.9c0,0,109.4-133.4,301.5-39C852.1,527.1,930.4,561.4,953.5,692z"/>
</g>
<g id="Cheshm1">
</g>
<g id="Cheshm2">
	<g id="Layer_6">
	</g>
	<g id="Layer_5">
	</g>
	<g>
		<path class="st5" d="M950.7,677c0,0-16.8-96-85.7-142.3c0,0,38,34.3,32.5,49.8c0,0,30,46.5-9.5,62.5c0,0-3.5-11.5-7.5-13
			c0,0-1.5-24.5-9.5-28.5c0,0,8.5,31.5-4,42.5c0,0,10.5,8.5,7,16c0,0,13.5-2,15,14.5l9.5,8.5c0,0,7.3-0.5,11.6,9.5
			c0,0,15.4,22,15.9,24.5c0,0,10.8-18,24.7,2.5C950.7,723.5,960.8,724.5,950.7,677z">
						    <animate attributeName="fill" values="red;blue;red" dur="3s" repeatCount="indefinite" /></path>

		<path class="st5" d="M795,681.7c0,0,1.3,24.7-24,34c0,0-16-0.7-28.7-7.3c0,0-16.7,0-25.3,15.3c0,0-24.7,8.7-44-14.7
			c0,0-10-6.7-11.3-13.3c0,0-0.7,3.3,4,14c0,0-26.7-26-25.3-34.7c0,0-28.7-22.7-13.3-42.7c0,0,28.7-6,8.7-22c0,0-46-38.7-25.3-48.7
			c0,0-12-24,30.7-28c0,0,40.7-20,53.3-17.3c0,0,29.3-6,42,8.7l2.7,4.7c0,0-31.3-22-54-5.3c0,0-28.7,16.7-22,25.3
			c0,0,0.7,7.3,12.7,6c0,0,14.7,0.7,12,10.7c0,0,29.3,30,42,26c0,0-14.7-4.7-13.3-8.7l14,4.7c0,0,10,7.3,13.3,6
			c0,0,21.3,6.7,18.7,11.3c0,0-14.3-3.2-8.8,8.1c0,0,17.8,13.8,21.5,13.8c0,0,2-0.8,1-3.3c0,0-10.3-15.8-11.3-16.3
			c0,0,2.5-5.3,9.5,7.8c0,0,32.6,32.5,30.8,13.8c-0.3-2.5,5.5-5.8-4.5-26.8c0,0,5.5,1.8,4.5-3.3c0,0-0.5-5.3-6-10.5
			c0,0,17.3,6.3,13.8,25.3c0,0,22.5,23.3,13,45.3c0,0-10.3-3.3-10.5,10.3c0,0,2,18.5-5.8,3C809.5,672.8,799,664.8,795,681.7z">
			    <animate attributeName="fill" values="red;blue;red" dur="3s" repeatCount="indefinite" /></path>

	</g>
	<path class="st4" d="M638.9,804.2l8.7,15.3c0,0,4.7,13.3,0,29.3c0,0-2,34-8.7,40c0,0-12.5,29.3-8,25.3c3-2.7-3.6-12.8-1-25.3
		c1.6-8-10.2-39.3-0.6-44C629.3,844.9,623.5,826.9,638.9,804.2z"/>
	<path class="st4" d="M588.5,704.3c0,0-17.3,14,16,91.3c0,0,10.7,0,3.3-36C607.8,759.7,595.8,707,588.5,704.3z"/>
	<path class="st6" d="M930.9,781.5c0,0,5.5-7,8,0c0,0,14.3,15,16.3,64.3c0,0,0,3-4,0c0,0-4.3-22.3-10.7-30c0,0,5.3,25,2.5,31.3
		c0,0-3.8-0.3-4.2-1.7c0,0-6.7-25-9.3-26.7c0,0,7.7,32.7,3.3,36.3c0,0-24.5-57.2-32-61.7c0,0,20,53.5,12.5,52.5c0,0-24-50-30-52
		c0,0,18,40.5,15,47.5c0,0-42-61-49-56.5c0,0,8.5,43,6.5,48c0,0-15.5-18-20.5-39c0,0,9.5,41,2.5,45c0,0-13.7-15.6-22-55l-4,0.5v42
		c0,0-8.5,2.5-12-42.5c0,0-4.5,49.8-2,71.2c0,0-16-12.7-17.5-68.2c0,0,0,10-2.5,11c0,0-2.5,3.5-4,2.5s-1.5-1-1.5-1s-3,41-7.5,43.5
		c0,0-1.5,6-4.5-4c0,0-2-38.5,0-43c0,0-7.5,46.5-11,52.5c0,0-12-31-6-55.5c0,0-8.3-4.5-12.5,4.5c0,0,3,40.5,0,43.5
		c0,0-12.5-11-15.5-54.5c0,0-1.5,12.5-7.5,11c0,0,11.5,34,4.5,37c0,0-9.5-11.5-12-34.5l-6.5-5c0,0-4-4.5-5,8c0,0-5.3-14.8,10-13
		c0,0,8-13,11.5-2c0,0,0-23,17.5-4.5c0,0,3.5,9.5,9.5,2c0,0,2.5-12.5,5-4c0,0,6,6.5,12.5-0.5c0,0,0.5-7,4.5-6.5c0,0-2,4.5-0.5,9
		c0,0,12-2,13,3.5c0,0,4,0,3.5,3.5c0,0-1.5-21,10-16c0,0,6.3-2.5,10.3,0s1.5,0,1.5,0s4.8-14,13.5-2.8c0,0,0.2-14.8,11-7.5
		c0,0,2.5,0.5,2.8-0.8c0,0,5-18.5,14.5-5.5c0,0,8.3,10,9.5,1s15.5-4.2,15.2,2.8c0,0,8.3,12.7,13,1c0.7-1.7,9.3-6.3,13.3,5
		c0,0,10.3-11.3,23-0.3c0,0,15.7-9.3,17.3,7l1,3.3L930.9,781.5z"/>
	<g id="Layer_9">
	</g>
</g>
<g id="Layer_4">
	<g id="Layer_8">
		<linearGradient id="SVGID_2_" gradientUnits="userSpaceOnUse" x1="708.6907" y1="1206.2107" x2="883.0767" y2="1206.2107">
			<stop  offset="0.1281" style="stop-color:#952C2C"/>
			<stop  offset="0.1423" style="stop-color:#902B2B"/>
			<stop  offset="0.3096" style="stop-color:#5E2424"/>
			<stop  offset="0.4556" style="stop-color:#391F1F"/>
			<stop  offset="0.5735" style="stop-color:#221B1B"/>
			<stop  offset="0.6482" style="stop-color:#1A1A1A"/>
			<stop  offset="0.6976" style="stop-color:#201B1B"/>
			<stop  offset="0.7618" style="stop-color:#301D1D"/>
			<stop  offset="0.8341" style="stop-color:#4B2121"/>
			<stop  offset="0.9124" style="stop-color:#702727"/>
			<stop  offset="0.9948" style="stop-color:#A02E2E"/>
			<stop  offset="1" style="stop-color:#A32E2E"/>
		</linearGradient>
		<path class="st7" d="M763.4,1083c0,0-25.3,25.3-30.7,46.7c0,0,30.5,116.7,24.9,121.3l-9.6,36.7c0,0,16.6-21.7,19.3-23.7
			c0,0,9.9-19.2-6-51c0,0-21.6-13.1,1-51.8c0,0,20.3-50.3,63-64.9c0,0,18.1-13.3,36.1-16.6c0,0,18.3-15.1,21.6-12.8
			c0,0-7.7,41.8-20.1,61c0,0-5.6,29-1,31.7l-6,148l-6,38l-54.7-11.3L776,1335l-22.7-18.7L742,1281l-15.3-65.3l-7.3,5.3v-12l5.3-4
			l1.3-15.3l-10.7-12.7h-6.7v-31.3v-31.3c0,0,31.3-44,33.3-42S763.4,1083,763.4,1083z"/>
	</g>
	<g id="Layer_7">
		<path class="st8" d="M868.6,1339.4c0,0,70-30,76-69c0,0-48,37-61,40c0,0,56-45,46-77c0,0-18,37-39,44c0,0-36,19-41,28
			c0,0,23-23,24-33c0,0,36-54,33-60c0,0-25,20-34,36c0,0,29-50,24.5-54c0,0-29.5,20-36.5,34c0,0,19-36.7,31-39.8c0,0-11-0.2-35,8.8
			c0,0,20-14,24-17s9-8-12-7c0,0-14,1-19,7c0,0,25-14,27-20c0,0-25-2-34,6c0,0-12,2-8,8c0,0-7,12,4,9c0,0-21.2,14.5,9,16
			c0,0-21,25,3,25c0,0-12,26.8,5,25.4c0,0-20,10.6-13,25.6c0,0-15.5,19-11.2,23l6.2,28c0,0-16,5-16,13c0,0,3,26,25,13
			c0,0,4-19,13-16S868.6,1339.4,868.6,1339.4z"/>
	</g>
	<linearGradient id="SVGID_3_" gradientUnits="userSpaceOnUse" x1="648.3333" y1="1174.9874" x2="1179.2458" y2="1174.9874">
		<stop  offset="0.2462" style="stop-color:#1A1A1A"/>
		<stop  offset="1" style="stop-color:#A32E2E"/>
	</linearGradient>
	<path class="st9" d="M648.3,940.7c0,0,22.3,17.7,100.9,17.1c0,0,160.8-40.7,224-2.9c0,0,132,30.9,154,122.9c0,0,13,60-29.5,90
		c0,0-114.5,54-116.5,110c0,0-26,102,86,102c0,0,56-4,100-38l12,12c0,0-58,58-112,56c0,0-76,10-110-22c0,0-48-40-44-96
		c-4.2-10,13.7-59.4,32-86c0,0,19.5-31.1,54-48c0,0,64-48,22-62c0,0-70-48-142-16c0,0-98,10.6-120,96.3c0,0-14,23.7,2,37.7
		c0,0,16,28,8,52l-20,18l10-28l-10-54l-38.6-56.1c0,0-2-105.7,54.7-62.7c0,0-49.6-15.4-54.7,62.7L683,1086l-17-48L648.3,940.7z"/>
	<linearGradient id="SVGID_4_" gradientUnits="userSpaceOnUse" x1="698.7115" y1="1258.0776" x2="904.0032" y2="1258.0776">
		<stop  offset="0" style="stop-color:#FFFFFF"/>
		<stop  offset="1" style="stop-color:#E8E8E8"/>
	</linearGradient>
	<path class="st10" d="M704.3,1156.8c0,0,18-10,34-5c0,0-28.5,8.5-28.5,13.5s2,7.5,2,7.5s21.5-21.5,30-17c0,0-20.5,20-22.5,26.5
		c0,0,30-20.4,36-16c0,0,3.5,1.5,0,4.5c0,0-29,22-29.5,32.5c0,0-6,11-6,12.5c0,0,23.5-30.5,31.5-27.5c0,0,0.5,1.5-17.5,35.5
		c0,0,25.5-21.5,31-17.5c0,0-25.5,34-27,38c0,0,29.5-17,32-16.5s-18,26-29,35.5l-0.5,6.5l29.7-33.5c0,0,4.3-3.5,5.3,0
		c0,0-23.3,54.5-26.7,54.5l2.7,21c-0.6-4.4,21-39.5,38.5-44c0,0,4.5-3,0,4.5l-24.5,44.5c0,0,3,1.5,2.5,6c0,0,31-44.5,37-43.5
		c0,0,1,7-21.5,53.5c0,0,40-51,39.5-55.5c0,0,4.5,0.5,3,4.5c0,0-11.5,44-23,51c0,0,51.5-38,49-42.5c0,0,1,13.5-34.5,60.5
		c0,0,17-21,29.5-21c0,0,54.5-38,52.5-47c0,0,7-3.5,4,1.5c0,0-42.6,63.6-48.5,66.5c0,0-12,15-19,15c0,0-20-1-20.5-10
		c0,0-2-11-6-10.5c0,0-14,4-13-6.5c0,0-11,8-12.5-1.5c0,0-21.5,0.5-20-10c0,0-16.8-0.6-15.2-12c0,0-4.3-17.5-4.3-21
		c0,0-16.5-4.5-9.5-24c0,0-10.5-5-3.5-23c0,0-15.5-6-6.5-18c0,0-14-1.4-7-10.5c0,0-0.5-13.1,4-15.5c0,0-14-3.5-6.5-19
		c0,0-17.5-3-8.5-13.5c0,0-11.5-8-7-11L704.3,1156.8z"/>
	<path class="st5" d="M648.3,936.8c0,0,6.3,19.2,68.2,30.7c0,0,199.4-47.9,279.3-5.1c0,0,147.6,54.1,130.9,145.9
		c0,0,2,49.7-64.4,77.7c0,0-110.5,55.9-81.5,145c0,0,13.6,65.3,111.3,44.2c0,0,68.2-19.7,73-33.4l12,12c0,0-44.5,58.3-112,56
		c0,0-78.4,10.2-88.8-8.7c0,0-72.4-38.5-65.2-109.3c0,0-7.2-41.7,32-86c0,0,19.2-50.3,54-48c0,0,48.8-40.9,35.4-51.5
		c0,0-68.6-47.6-134.6-33.9c0,0-104.2,17.2-131,78c0,0-49.9,44.9,2.9,85.9"/>
</g>
</svg>
