<?xml version="1.0" encoding="utf-8"?>
<!-- Generator: Adobe Illustrator 22.1.0, SVG Export Plug-In . SVG Version: 6.00 Build 0)  -->
<svg version="1.1" id="Layer_1" xmlns="http://www.w3.org/2000/svg" xmlns:xlink="http://www.w3.org/1999/xlink" x="0px" y="0px"
	 viewBox="0 0 1500 1500" style="enable-background:new 0 0 1500 1500;" xml:space="preserve">
<style type="text/css">
	.st0{fill:#682121;}
	.st1{fill:#A32E2E;}
	.st2{fill:url(#SVGID_1_);}
	.st3{fill:#333333;}
	.st4{fill:#1A1A1A;}
	.st5{fill:none;}
	.st6{fill:#FFFFFF;stroke:#000000;stroke-width:0.5;stroke-miterlimit:10;}
	.st7{fill:url(#SVGID_2_);}
	.st8{fill:#F2F2F2;stroke:#000000;stroke-width:0.5;stroke-miterlimit:10;}
	.st9{fill:url(#SVGID_3_);}
	.st10{fill:url(#SVGID_4_);stroke:#000000;stroke-width:0.5;stroke-miterlimit:10;}
</style>
<g id="Layer_10">
	<path class="st0" d="M564.6,781.3l7.1-16.5l7.5,14l-19.8,16.7l46-20.7l110,12.7l8.3,12l10.6-9.7h36l10.7-3l14.7,12.7
		c0,0-12.5,16.1-0.1-0.8c12.8-17.4,11.5,3.2,11.5,3.2s11.4-9.9-0.2,0.1s10.1,41.9,10.1,41.9l52.8-79.2l48.5-87L899.5,666l-72.2,59
		l-133.9-8.2l-33.8-44l-124.8,65.3l-5,11l7.6,25.2C543.3,756.9,564.4,781.3,564.6,781.3z"/>
</g>
<g id="Layer_14">
	<g>
		<path class="st1" d="M628.4,934.7c-0.3-0.7-0.5-1.4-0.7-2.1v2.1H628.4z"/>
		<path class="st1" d="M538.5,774.3c47-12,42,75,42,75c-4,3,7,12,7,12c-3,5,13,18,13,18c10-2,9,22,9,22c8.5,8.3,14.3,19.3,18.2,31.4
			V906h-10v-67.5h76.7v33.8h16.8v70.6h-33.7v-36.8h-16.2v28.8h-1.1l0,0l0,0h-31.9c13.9,47.2-0.7,110.9-0.7,110.9
			c-15,8,7.8,91.3,7.8,91.3c37,60-37.5,178.2-37.5,178.2c-5.5,7-1.5,21-1.5,21c9,38.5,66.8,40.5,66.8,40.5
			c58,4.5,78.2-33.2,78.2-33.2c39.7-39.4,35-52.7,35-52.7c3.9-7.2,2.3-13.3,2.3-13.3c13.9-15.1,7.1-53.4,7.1-53.4
			c10.2-32.7,50.2-79.3,50.2-79.3c7.3-14.8,64.3-115.8,64.3-115.8c-11.8-45.5,16.8-128.6,16.8-128.6
			c11.3-16.7-14.6-100.3-14.6-100.3c12.4-22,5.7-26,5.7-26c-2.4-4,5.3-24,5.3-24c18.7-16.3,16-51.5,16-51.5c6-13-9.7-48.5-9.7-48.5
			c-8.7-25,6-24,6-24c6-2,37,29.8,37,29.8c-6-14-31.8-40.2-31.8-40.2c-16-10-18.1-2.9-18.1-2.9c-10,13.3-11.8,54-11.8,54
			c6.9,12.8-18.6,49.8-18.6,49.8c-22.6,10.6-33.3,57.3-33.3,57.3c-0.6,16-31.3,33.3-31.3,33.3c6,20-5.3,24.7-5.3,24.7
			c-8.7-3.3-2-25.3-2-25.3c28.6-24.7,39.3-48.7,39.3-48.7c-2.6-12,22.7-52,22.7-52c-17.4,6-26.3,41-26.3,41
			c-2.5,11.8-23.5,23.3-23.5,23.3c-9.2-5-21-3.5-21-3.5c-21.5-17-29,3.8-29,3.8c1-13.8-10.5-3.5-10.5-3.5
			c-5.8-5.3-20.8-0.5-20.8-0.5c-8-10.5-18.5,0.8-18.5,0.8l-3-3.3c-13-11-25,1.5-25,1.5c-4,4-7.5-0.5-7.5-0.5
			c-9-10.5-16.5-5.9-16.5-5.9c-9-10.9-21.5-11.6-21.5-11.6c-9-4.5-16-3-16-3c-13.5-2.5-38.5,14-38.5,14c-11-5-19-0.5-19-0.5
			c-13-4-22,0-22,0C545.5,760.6,538.5,774.1,538.5,774.3z"/>
	</g>
</g>
<g id="Layer_15">
	
		<linearGradient id="SVGID_1_" gradientUnits="userSpaceOnUse" x1="351.5153" y1="625.91" x2="620.8449" y2="625.91" gradientTransform="matrix(-1 0 0 -1 1199.9025 1500)">
		<stop  offset="0" style="stop-color:#1A1A1A"/>
		<stop  offset="0.6587" style="stop-color:#1A1A1A"/>
		<stop  offset="0.696" style="stop-color:#1A1A1A"/>
		<stop  offset="0.7398" style="stop-color:#1E1B1B"/>
		<stop  offset="0.7809" style="stop-color:#291E1E"/>
		<stop  offset="0.8209" style="stop-color:#3C2323"/>
		<stop  offset="0.8602" style="stop-color:#572A2A"/>
		<stop  offset="0.8991" style="stop-color:#793333"/>
		<stop  offset="0.9376" style="stop-color:#A33E3E"/>
		<stop  offset="0.9752" style="stop-color:#D44B4B"/>
		<stop  offset="1" style="stop-color:#F95555"/>
	</linearGradient>
	<path class="st2" d="M579.7,848c-3,4.3,7.3,11,7.3,11c-2,6,13,19,13,19c12,0,8.7,20.7,8.7,20.7c19.4,23.4-0.9,44-0.9,44
		c70,3.3,149.6,16,149.6,16c58.7,23,91-20,91-20c1.3-40.3-40.7-114-40.7-114c-2.7-7,0-23.7,0-23.7c-1.3-18.3-12-3.3-12-3.3
		c-2.9,22.8-12,34.7-12,34.7c-7.6-1.7,4.7-37,4.7-37c-6,1-7.8-11.2-7.8-11.2c-3.8,33.4-14.9,54.5-14.9,54.5
		c-4.4-2.3-0.1-44.5-0.1-44.5c-6.9-11.2-13.2-4.1-13.2-4.1c2.6,19.7-5.8,55.9-5.8,55.9c-3.8-0.6-10.7-52.5-11.2-52.8
		c2,54-3.1,49.8-3.1,49.8c-6-2-8.7-45.3-8.7-45.3c-8.3,4-8.3-12-8.3-12c0,48.7-16.7,66.7-16.7,66.7c2.4-9-2.7-69.6-2.7-69.6
		c-4.3,46-12,41.4-12,41.4l0.4-41.1H680c-12.3,45.7-22,53-22,53c-7-0.7,2.3-44,2.3-44c-4.6,23-20.3,38.3-20.3,38.3
		c-1.6-1,6.7-47.3,6.7-47.3c-11.1,0-49,55.7-49,55.7c-4-1.7,14.7-46.7,14.7-46.7c-4.4,0.6-29.7,51.3-29.7,51.3
		c-7.4,1,12.3-51.3,12.3-51.3c-5.7,1-15.9,27.7-15.9,27.7C580.9,820.8,579.7,848.2,579.7,848z M669.1,868c0,0-6.4-4.1-4.2-8l2.2-3.9
		c0,0,4.8-1.5,8.7,17.6c0,0,2.9,7.3,0,17.1c0,0-2.9,12.2-6.3,4.8s-3.4-7.4-3.4-7.4s-2.9-8.8,0-14.5C669,868,669.1,868,669.1,868z
		 M629,872.7c0,0,1.9-3.6,8.4-2.5c0,0,5.4-6.5,10.7,9.7c0,0,2.8,27.7,3.3,29.9s0.5,2.2,0.5,2.2s7.5-9.3,8.5,21.6
		C660.4,933.6,620.5,878.3,629,872.7z"/>
</g>
<g id="Layer_12">
</g>
<g id="Layer_13">
	<path class="st3" d="M328.4,1340.5l-12,12l-13.6-15.6c-19.3-26.5,8-8.5,8-8.5L328.4,1340.5"/>
</g>
<g id="Layer_1_1_">
	<g id="Layer_11">
	</g>
	<path class="st4" d="M645.7,525.7c192.1-94.4,301.5,39,301.5,39c66,66,53.6,164.9,53.6,164.9c2,6,13.9,21,13.9,21
		c6.9-7,52.1,70,52.1,70c13,1,41,52,41,52c64-30,390,288,390,288v338H791.5c-14-30,22-201,22-201c15-39,9-45,9-45c-6-7-38,71-38,71
		c-18,40-57,66-57,66c-80,24-104.4-25.1-104.4-25.1c10,5,34.4,7.1,34.4,7.1c49,14,83-32,83-32c23-7,42-71,42-71c0.3-98,35-93,35-93
		c-16.8,9.3,27-52,27-52c2-8,46-86,46-86c14-10,7-19,7-19c-10-65,14-101,14-101c19-48-8.8-105.5-8.8-105.5
		c-6.8-13.5-1.5-19.3-1.5-19.3c7.7-21.5,12.5-48,12.5-48c10.8-8,10.5-29,10.5-29c4.5-16.8-7.5-71.3-7.5-71.3
		c-1.5-34,15-20.5,15-20.5c1.7-3.3,18.5,17.5,18.5,17.5c-4.7-17-24.5-28.8-24.5-28.8c-12.2-2.5-12.2,14.9-12.2,14.9
		c-9,22-10.7,40.9-10.7,40.9c3.5,8.2-8,20.7-8,20.7c-11.3,15-18.3,19-18.3,19c-3-1,6-18.7,6-18.7c-1.6-2.3-7.3,5-7.3,5
		c-28,17.7-33,50.7-33,50.7c4.4-10-1.3-13.3-1.3-13.3c-0.7,10-19.7,14.7-19.7,14.7c-0.6-3.3-17.3-6.3-17.3-6.3
		c-5.3-2-9.3,0.3-9.3,0.3c0.4-3.7-34.3-3-34.3-3c-12-6.6-16.7-5.3-16.7-5.3c3.4,3.3,11.7,6.3,11.7,6.3c5.3,2.3,5,6,5,6
		c-9,8.3-31.3-4-31.3-4c-2.3-4-19.8,0.5-19.8,0.5c-33.5,5.5-42.5-16.5-42.5-16.5c-9.1-7.5-0.5-17-0.5-17c2-4-3.1-25-3.1-25l-1.4,6.5
		c4,13.5-1.4,21.5-1.4,21.5c4.5,3.5-3,17.5-3,17.5c-8-11.5-18-11.5-18-11.5c-4.5-6.5-62,20.5-62,20.5c-31.5-12-45.5,12-45.5,12
		c-0.5-3,0-27,0-27c-3.5-9,9.5-17,9.5-17c2.5-4,3-14.5,3-14.5C567.4,560,645.7,525.7,645.7,525.7z"/>
</g>
<g id="Cheshm1">
</g>
<g id="Cheshm2">
	<g id="Layer_6">
	</g>
	<g id="Layer_5">
	</g>
	<g>
		<path class="st5" d="M545.1,722.1c13.9-20.5,24.7-2.5,24.7-2.5c0.5-2.5,15.9-24.5,15.9-24.5c4.3-10,11.6-9.5,11.6-9.5l9.5-8.5
			c1.5-16.5,15-14.5,15-14.5c-3.5-7.5,7-16,7-16c-12.5-11-4-42.5-4-42.5c-8,4-9.5,28.5-9.5,28.5c-4,1.5-7.5,13-7.5,13
			c-39.5-16-9.5-62.5-9.5-62.5c-5.5-15.5,32.5-49.8,32.5-49.8c-68.9,46.3-85.7,142.3-85.7,142.3C535,723.1,545.1,722.1,545.1,722.1z
					">
<animate  accumulate="none" additive="replace" attributeName="fill" calcMode="linear" dur="3s" fill="remove" repeatCount="indefinite" restart="always" values="red;blue;red">
				</animate>
		</path>
		<path class="st5" d="M686,671.5c-7.8,15.5-5.8-3-5.8-3c-0.2-13.6-10.5-10.3-10.5-10.3c-9.5-22,13-45.3,13-45.3
			c-3.5-19,13.8-25.3,13.8-25.3c-5.5,5.2-6,10.5-6,10.5c-1,5.1,4.5,3.3,4.5,3.3c-10,21-4.2,24.3-4.5,26.8
			c-1.8,18.7,30.8-13.8,30.8-13.8c7-13.1,9.5-7.8,9.5-7.8c-1,0.5-11.3,16.3-11.3,16.3c-1,2.5,1,3.3,1,3.3c3.7,0,21.5-13.8,21.5-13.8
			c5.5-11.3-8.8-8.1-8.8-8.1c-2.6-4.6,18.7-11.3,18.7-11.3c3.3,1.3,13.3-6,13.3-6l14-4.7c1.4,4-13.3,8.7-13.3,8.7
			c12.7,4,42-26,42-26c-2.7-10,12-10.7,12-10.7c12,1.3,12.7-6,12.7-6c6.7-8.6-22-25.3-22-25.3c-22.7-16.7-54,5.3-54,5.3l2.7-4.7
			c12.7-14.7,42-8.7,42-8.7c12.6-2.7,53.3,17.3,53.3,17.3c42.7,4,30.7,28,30.7,28c20.7,10-25.3,48.7-25.3,48.7c-20,16,8.7,22,8.7,22
			c15.4,20-13.3,42.7-13.3,42.7c1.4,8.7-25.3,34.7-25.3,34.7c4.7-10.7,4-14,4-14c-1.3,6.6-11.3,13.3-11.3,13.3
			c-19.3,23.4-44,14.7-44,14.7c-8.6-15.3-25.3-15.3-25.3-15.3c-12.7,6.6-28.7,7.3-28.7,7.3c-25.3-9.3-24-34-24-34
			C696.8,663.4,686.3,671.4,686,671.5z		">
<animate  accumulate="none" additive="replace" attributeName="fill" calcMode="linear" dur="3s" fill="remove" repeatCount="indefinite" restart="always" values="red;blue;red">
				</animate>
		</path>
	</g>
	<path class="st4" d="M866.5,843.4c9.6,4.7-2.2,36-0.6,44c2.6,12.5-4,22.6-1,25.3c4.5,4-8-25.3-8-25.3c-6.7-6-8.7-40-8.7-40
		c-4.7-16,0-29.3,0-29.3l8.7-15.3C872.3,825.5,866.5,843.5,866.5,843.4z"/>
	<path class="st4" d="M888,758.2c-7.4,36,3.3,36,3.3,36c33.3-77.3,16-91.3,16-91.3C900,705.6,888,758.3,888,758.2z"/>
	<path class="st6" d="M564.6,776.1l1-3.3c1.6-16.3,17.3-7,17.3-7c12.7-11,23,0.3,23,0.3c4-11.3,12.6-6.7,13.3-5c4.7,11.7,13-1,13-1
		c-0.3-7,14-11.8,15.2-2.8s9.5-1,9.5-1c9.5-13,14.5,5.5,14.5,5.5c0.3,1.3,2.8,0.8,2.8,0.8c10.8-7.3,11,7.5,11,7.5
		c8.7-11.2,13.5,2.8,13.5,2.8s-2.5,2.5,1.5,0s10.3,0,10.3,0c11.5-5,10,16,10,16c-0.5-3.5,3.5-3.5,3.5-3.5c1-5.5,13-3.5,13-3.5
		c1.5-4.5-0.5-9-0.5-9c4-0.5,4.5,6.5,4.5,6.5c6.5,7,12.5,0.5,12.5,0.5c2.5-8.5,5,4,5,4c6,7.5,9.5-2,9.5-2
		c17.5-18.5,17.5,4.5,17.5,4.5c3.5-11,11.5,2,11.5,2c15.3-1.8,10,13,10,13c-1-12.5-5-8-5-8l-6.5,5c-2.5,23-12,34.5-12,34.5
		c-7-3,4.5-37,4.5-37c-6,1.5-7.5-11-7.5-11c-3,43.5-15.5,54.5-15.5,54.5c-3-3,0-43.5,0-43.5c-4.2-9-12.5-4.5-12.5-4.5
		c6,24.5-6,55.5-6,55.5c-3.5-6-11-52.5-11-52.5c2,4.5,0,43,0,43c-3,10-4.5,4-4.5,4c-4.5-2.5-7.5-43.5-7.5-43.5s0,0-1.5,1
		s-4-2.5-4-2.5c-2.5-1-2.5-11-2.5-11c-1.5,55.5-17.5,68.2-17.5,68.2c2.5-21.4-2-71.2-2-71.2c-3.5,45-12,42.5-12,42.5v-42l-4-0.5
		c-8.3,39.4-22,55-22,55c-7-4,2.5-45,2.5-45c-5,21-20.5,39-20.5,39c-2-5,6.5-48,6.5-48c-7-4.5-49,56.5-49,56.5c-3-7,15-47.5,15-47.5
		c-6,2-30,52-30,52c-7.5,1,12.5-52.5,12.5-52.5c-7.5,4.5-32,61.7-32,61.7c-4.4-3.6,3.3-36.3,3.3-36.3C563.7,819,557,844,557,844
		c-0.4,1.4-4.2,1.7-4.2,1.7c-2.8-6.3,2.5-31.3,2.5-31.3c-6.4,7.7-10.7,30-10.7,30c-4,3-4,0-4,0c2-49.3,16.3-64.3,16.3-64.3
		c2.5-7,8,0,8,0L564.6,776.1z"/>
	<g id="Layer_9">
	</g>
</g>
<g id="Layer_4">
	<g id="Layer_8">
		
			<linearGradient id="SVGID_2_" gradientUnits="userSpaceOnUse" x1="412.7448" y1="295.3131" x2="587.1449" y2="295.3131" gradientTransform="matrix(-1 0 0 -1 1199.9025 1500)">
			<stop  offset="0.1281" style="stop-color:#952C2C"/>
			<stop  offset="0.1423" style="stop-color:#902B2B"/>
			<stop  offset="0.3096" style="stop-color:#5E2424"/>
			<stop  offset="0.4556" style="stop-color:#391F1F"/>
			<stop  offset="0.5735" style="stop-color:#221B1B"/>
			<stop  offset="0.6482" style="stop-color:#1A1A1A"/>
			<stop  offset="0.6976" style="stop-color:#201B1B"/>
			<stop  offset="0.7618" style="stop-color:#301D1D"/>
			<stop  offset="0.8341" style="stop-color:#4B2121"/>
			<stop  offset="0.9124" style="stop-color:#702727"/>
			<stop  offset="0.9948" style="stop-color:#A02E2E"/>
			<stop  offset="1" style="stop-color:#A32E2E"/>
		</linearGradient>
		<path class="st7" d="M753.9,1071c2-2,33.3,42,33.3,42v31.3v31.3h-6.7l-10.7,12.7l1.3,15.3l5.3,4v12l-7.3-5.3l-15.3,65.3
			l-11.3,35.3l-22.7,18.7l-19.2-0.7l-54.7,11.3l-6-38l-6-148c4.6-2.7-1-31.7-1-31.7c-12.4-19.2-20.1-61-20.1-61
			c3.3-2.3,21.6,12.8,21.6,12.8c18,3.3,36.1,16.6,36.1,16.6c42.7,14.6,63,64.9,63,64.9c22.6,38.7,1,51.8,1,51.8
			c-15.9,31.8-6,51-6,51c2.7,2,19.3,23.7,19.3,23.7l-9.6-36.7c-5.6-4.6,24.9-121.3,24.9-121.3c-5.4-21.4-30.7-46.7-30.7-46.7
			S751.9,1073,753.9,1071z"/>
	</g>
	<g id="Layer_7">
		<path class="st8" d="M636.2,1335c9-3,13,16,13,16c22,13,25-13,25-13c0-8-16-13-16-13l6.2-28c4.3-4-11.2-23-11.2-23
			c7-15-13-25.6-13-25.6c17,1.4,5-25.4,5-25.4c24,0,3-25,3-25c30.2-1.5,9-16,9-16c11,3,4-9,4-9c4-6-8-8-8-8c-9-8-34-6-34-6
			c2,6,27,20,27,20c-5-6-19-7-19-7c-21-1-16,4-12,7s24,17,24,17c-24-9-35-8.8-35-8.8c12,3.1,31,39.8,31,39.8c-7-14-36.5-34-36.5-34
			c-4.5,4,24.5,54,24.5,54c-9-16-34-36-34-36c-3,6,33,60,33,60c1,10,24,33,24,33c-5-9-41-28-41-28c-21-7-39-44-39-44
			c-10,32,46,77,46,77c-13-3-61-40-61-40c6,39,76,69,76,69S627.2,1338,636.2,1335z"/>
	</g>
	
		<linearGradient id="SVGID_3_" gradientUnits="userSpaceOnUse" x1="352.4449" y1="326.3941" x2="883.3448" y2="326.3941" gradientTransform="matrix(-1 0 0 -1 1199.9025 1500)">
		<stop  offset="0.2462" style="stop-color:#1A1A1A"/>
		<stop  offset="1" style="stop-color:#A32E2E"/>
	</linearGradient>
	<path class="st9" d="M829.8,1036.6l-17,48l-27.6,59.7c-5.1-78.1-54.7-62.7-54.7-62.7c56.7-43,54.7,62.7,54.7,62.7l-38.6,56.1
		l-10,54l10,28l-20-18c-8-24,8-52,8-52c16-14,2-37.7,2-37.7c-22-85.7-120-96.3-120-96.3c-72-32-142,16-142,16c-42,14,22,62,22,62
		c34.5,16.9,54,48,54,48c18.3,26.6,36.2,76,32,86c4,56-44,96-44,96c-34,32-110,22-110,22c-54,2-112-56-112-56l12-12
		c44,34,100,38,100,38c112,0,86-102,86-102c-2-56-116.5-110-116.5-110c-42.5-30-29.5-90-29.5-90c22-92,154-122.9,154-122.9
		c63.2-37.8,224,2.9,224,2.9c78.6,0.6,100.9-17.1,100.9-17.1L829.8,1036.6z"/>
	
		<linearGradient id="SVGID_4_" gradientUnits="userSpaceOnUse" x1="402.9006" y1="243.3438" x2="608.1923" y2="243.3438" gradientTransform="matrix(-1 0 0 -1 1199.9025 1500)">
		<stop  offset="0" style="stop-color:#FFFFFF"/>
		<stop  offset="1" style="stop-color:#E8E8E8"/>
	</linearGradient>
	<path class="st10" d="M796,1158.4c4.5,3-7,11-7,11c9,10.5-8.5,13.5-8.5,13.5c7.5,15.5-6.5,19-6.5,19c4.5,2.4,4,15.5,4,15.5
		c7,9.1-7,10.5-7,10.5c9,12-6.5,18-6.5,18c7,18-3.5,23-3.5,23c7,19.5-9.5,24-9.5,24c0,3.5-4.3,21-4.3,21c1.6,11.4-15.2,12-15.2,12
		c1.5,10.5-20,10-20,10c-1.5,9.5-12.5,1.5-12.5,1.5c1,10.5-13,6.5-13,6.5c-4-0.5-6,10.5-6,10.5c-0.5,9-20.5,10-20.5,10
		c-7,0-19-15-19-15c-5.9-2.9-48.5-66.5-48.5-66.5c-3-5,4-1.5,4-1.5c-2,9,52.5,47,52.5,47c12.5,0,29.5,21,29.5,21
		c-35.5-47-34.5-60.5-34.5-60.5c-2.5,4.5,49,42.5,49,42.5c-11.5-7-23-51-23-51c-1.5-4,3-4.5,3-4.5c-0.5,4.5,39.5,55.5,39.5,55.5
		c-22.5-46.5-21.5-53.5-21.5-53.5c6-1,37,43.5,37,43.5c-0.5-4.5,2.5-6,2.5-6l-24.5-44.5c-4.5-7.5,0-4.5,0-4.5
		c17.5,4.5,39.1,39.6,38.5,44l2.7-21c-3.4,0-26.7-54.5-26.7-54.5c1-3.5,5.3,0,5.3,0l29.7,33.5l-0.5-6.5c-11-9.5-31.5-35-29-35.5
		s32,16.5,32,16.5c-1.5-4-27-38-27-38c5.5-4,31,17.5,31,17.5c-18-34-17.5-35.5-17.5-35.5c8-3,31.5,27.5,31.5,27.5
		c0-1.5-6-12.5-6-12.5c-0.5-10.5-29.5-32.5-29.5-32.5c-3.5-3,0-4.5,0-4.5c6-4.4,36,16,36,16c-2-6.5-22.5-26.5-22.5-26.5
		c8.5-4.5,30,17,30,17s2-2.5,2-7.5s-28.5-13.5-28.5-13.5c16-5,34,5,34,5L796,1158.4z"/>
	<path class="st5" d="M726,1234.9c52.8-41,2.9-85.9,2.9-85.9c-26.8-60.8-131-78-131-78c-66-13.7-134.6,33.9-134.6,33.9
		c-13.4,10.6,35.4,51.5,35.4,51.5c34.8-2.3,54,48,54,48c39.2,44.3,32,86,32,86c7.2,70.8-65.2,109.3-65.2,109.3
		c-10.4,18.9-88.8,8.7-88.8,8.7c-67.5,2.3-112-56-112-56l12-12c4.8,13.7,73,33.4,73,33.4c97.7,21.1,111.3-44.2,111.3-44.2
		c29-89.1-81.5-145-81.5-145c-66.4-28-64.4-77.7-64.4-77.7C352.4,1015.1,500,961,500,961c79.9-42.8,279.3,5.1,279.3,5.1
		c61.9-11.5,68.2-30.7,68.2-30.7"/>
</g>
</svg>
