<?xml version="1.0" encoding="utf-8"?>
<!-- Generator: Adobe Illustrator 22.1.0, SVG Export Plug-In . SVG Version: 6.00 Build 0)  -->
<svg version="1.1" xmlns="http://www.w3.org/2000/svg" xmlns:xlink="http://www.w3.org/1999/xlink" x="0px" y="0px"
	 viewBox="0 0 24 24" style="enable-background:new 0 0 24 24;" xml:space="preserve">
<style type="text/css">
	.st0{opacity:0.13;fill:#7DBC8E;}
	.st1{fill:#E1EFE4;}
</style>
<g id="Layer_2">
	<rect x="0" y="0" class="st0" width="24" height="24"/>
</g>
<g id="Layer_1">
	<g>
		<polygon class="st1" points="6,0 6,0 0,0 0,6 0,6 		"/>
	</g>
	<g>
		<polygon class="st1" points="0,6 0,6 0,12 6,12 6,12 		"/>
	</g>
	<g>
		<polygon class="st1" points="6,12 6,12 0,12 0,18 0,18 		"/>
	</g>
	<g>
		<polygon class="st1" points="0,18 0,18 0,24 6,24 6,24 		"/>
	</g>
	<g>
		<polygon class="st1" points="12,18 12,18 6,18 6,24 6,24 		"/>
	</g>
	<g>
		<polygon class="st1" points="6,0 6,0 6,6 12,6 12,6 		"/>
	</g>
	<g>
		<polygon class="st1" points="12,6 12,6 6,6 6,12 6,12 		"/>
	</g>
	<g>
		<polygon class="st1" points="6,12 6,12 6,18 12,18 12,18 		"/>
	</g>
	<g>
		<polygon class="st1" points="18,0 18,0 12,0 12,6 12,6 		"/>
	</g>
	<g>
		<polygon class="st1" points="12,6 12,6 12,12 18,12 18,12 		"/>
	</g>
	<g>
		<polygon class="st1" points="18,12 18,12 12,12 12,18 12,18 		"/>
	</g>
	<g>
		<polygon class="st1" points="12,18 12,18 12,24 18,24 18,24 		"/>
	</g>
	<g>
		<polygon class="st1" points="24,18 24,18 18,18 18,24 18,24 		"/>
	</g>
	<g>
		<polygon class="st1" points="18,0 18,0 18,6 24,6 24,6 		"/>
	</g>
	<g>
		<polygon class="st1" points="24,6 24,6 18,6 18,12 18,12 		"/>
	</g>
	<g>
		<polygon class="st1" points="18,12 18,12 18,18 24,18 24,18 		"/>
	</g>
</g>
</svg>
