<?xml version="1.0" encoding="utf-8"?>
<!-- Generator: Adobe Illustrator 22.1.0, SVG Export Plug-In . SVG Version: 6.00 Build 0)  -->
<svg version="1.1" id="Layer_1" xmlns="http://www.w3.org/2000/svg" xmlns:xlink="http://www.w3.org/1999/xlink" x="0px" y="0px"
	 width="75.5px" height="502px" viewBox="0 0 75.5 502" style="enable-background:new 0 0 75.5 502;" xml:space="preserve">
<style type="text/css">
	.st0{fill:#012E35;}
	.st1{fill:#3F8CCC;}
	.st2{fill:#023644;}
	.st3{fill:#0A6B8C;}
	.st4{fill:#0E3D19;}
	.st5{fill:#48935A;}
	.st6{fill:#7DBC8E;}
</style>
<path class="st0" d="M26.5,6.1c0,0,2.5-4.8,5.7-6.1l-0.5,3.4L26.5,6.1z"/>
<rect x="32.2" y="0" class="st0" width="8" height="8"/>
<g>
	<path class="st1" d="M32.1,2.2c0,0,61.1,37.2,18.1,281.2H31.6L32.1,2.2z"/>
	<path class="st2" d="M32.2,2.3c0,0,3,1.8,4-2.3c0,0,59,33.5,19,283.5h-5C50.2,283.5,89.2,60.3,32.2,2.3z"/>
	<g>
		<path class="st3" d="M36.2,0L45,0c0,0,53.2,21.5,19.2,281.5c0,0-2,0-2,2h-8C54.2,283.5,92.2,56,36.2,0z"/>
	</g>
	<g>
		<path class="st2" d="M32.2,3V0c0,0-2,4.3-4,4.3l0,279l4.1,0.1L32.2,3"/>
	</g>
	<path class="st1" d="M28.8,3.5l-0.6,279.8l-16-0.8C12.2,282.5-24.2,49.5,28.8,3.5z"/>
</g>
<g>
	<path class="st4" d="M52.9,286.9l-2.8,5.7l-36.2-1.4c0,0,2.5-5.1,1.3-5.1L52.9,286.9z"/>
	<path class="st4" d="M52.9,286.9l7-0.7l-9,48.7l-4.4,145.7c0,0-0.3,19.6-8.9,21.6l-9.3,0c0,0,9.3-2.1,9.6-21.7l4.4-145.7
		L52.9,286.9z"/>
	<path class="st5" d="M59.9,286.1c0,0-0.4,2.5,2.4,4.2l-9.1,42.3l-4.4,147.7c0,0-1.1,12.7-5.5,16.4c0,0,3.6-9.7,3.1-16.4l4.4-146.7
		L59.9,286.1z"/>
	<path class="st5" d="M52.9,286.9c0,0-3.4,6.4-5.9,3.7l-10.7,43.6l-3.1,144.7c0,0-2.2,20.8-10.7,17.6c0,0,3.9,6.8,7.1,5.4
		c0,0,9.4-0.2,9.7-24l3.1-143.6L52.9,286.9z"/>
	<path class="st6" d="M13.7,290.3l33.4,0.3l-10.4,43.3l-3.1,146.7c0,0-0.2,16.5-8.8,17.5c0,0-4.9-1.1-7.2-15.6l3.2-148.8L13.7,290.3
		z"/>
</g>
</svg>
