<?xml version="1.0" encoding="utf-8"?>
<!-- Generator: Adobe Illustrator 22.1.0, SVG Export Plug-In . SVG Version: 6.00 Build 0)  -->
<svg version="1.1" id="Layer_1" xmlns="http://www.w3.org/2000/svg" xmlns:xlink="http://www.w3.org/1999/xlink" x="0px" y="0px"
	 width="75.5px" height="502px" viewBox="0 0 75.5 502" style="enable-background:new 0 0 75.5 502;" xml:space="preserve">
<style type="text/css">
	.st0{fill:#9B1818;}
	.st1{fill:#911717;}
	.st2{fill:#F06060;}
	.st3{fill:#B22B2B;}
	.st4{fill:#ED4C4C;}
	.st5{fill:#0E3D19;}
	.st6{fill:#48935A;}
	.st7{fill:#7DBC8E;}
</style>
<path class="st0" d="M49,6.1c0,0-2.5-4.8-5.7-6.1l0.5,3.4L49,6.1z"/>
<rect x="35.4" y="0" transform="matrix(-1 -4.490642e-11 4.490642e-11 -1 78.7153 8.0358)" class="st1" width="8" height="8"/>
<path class="st2" d="M43.5,2.2c0,0-61.1,37.2-18.1,281.2H44L43.5,2.2z"/>
<path class="st3" d="M43.4,2.3c0,0-3,1.8-4-2.3c0,0-59,33.5-19,283.5h5C25.4,283.5-13.6,60.3,43.4,2.3z"/>
<g>
	<path class="st4" d="M39.3,0l-8.8,0c0,0-53.2,21.5-19.2,281.5c0,0,2,0,2,2h8C21.4,283.5-16.7,56,39.3,0z"/>
</g>
<g>
	<path class="st3" d="M43.4,3V0c0,0,2,4.3,4,4.3l0,279l-4.1,0.1L43.4,3"/>
</g>
<path class="st2" d="M46.7,3.5l0.6,279.8l16-0.8C63.4,282.5,99.7,49.5,46.7,3.5z"/>
<g>
	<path class="st5" d="M22.7,286.9l2.8,5.7l36.2-1.4c0,0-2.5-5.1-1.3-5.1L22.7,286.9z"/>
	<path class="st5" d="M22.7,286.9l-7-0.7l9,48.7L29,480.4c0,0,0.3,19.6,8.9,21.6l9.3,0c0,0-9.3-2.1-9.6-21.7l-4.4-145.7L22.7,286.9z
		"/>
	<path class="st6" d="M15.6,286.1c0,0,0.4,2.5-2.4,4.2l9.1,42.3l4.4,147.7c0,0,1.1,12.7,5.5,16.4c0,0-3.6-9.7-3.1-16.4l-4.4-146.7
		L15.6,286.1z"/>
	<path class="st6" d="M22.7,286.9c0,0,3.4,6.4,5.9,3.7l10.7,43.6l3.1,144.7c0,0,2.2,20.8,10.7,17.6c0,0-3.9,6.8-7.1,5.4
		c0,0-9.4-0.2-9.7-24l-3.1-143.6L22.7,286.9z"/>
	<path class="st7" d="M61.9,290.3l-33.4,0.3l10.4,43.3L42,480.5c0,0,0.2,16.5,8.8,17.5c0,0,4.9-1.1,7.2-15.6l-3.2-148.8L61.9,290.3z
		"/>
</g>
</svg>
